<?xml version="1.0" encoding="UTF-8"?>
<svg width="463px" height="274px" viewBox="0 0 463 274" version="1.1" xmlns="http://www.w3.org/2000/svg" xmlns:xlink="http://www.w3.org/1999/xlink">
    <!-- Generator: Sketch 47 (45396) - http://www.bohemiancoding.com/sketch -->
    <title>json-presentation-layer</title>
    <desc>Created with Sketch.</desc>
    <defs>
        <linearGradient x1="98.9789474%" y1="45.4465979%" x2="-3.04210526%" y2="45.4465979%" id="linearGradient-1">
            <stop stop-color="#EAFAFF" offset="0%"></stop>
            <stop stop-color="#A6ECFF" offset="100%"></stop>
        </linearGradient>
    </defs>
    <g id="Page-1" stroke="none" stroke-width="1" fill="none" fill-rule="evenodd">
        <g id="Properties-illustrated-1" transform="translate(-15.000000, -35.000000)">
            <g id="Group" transform="translate(25.000000, 44.000000)">
                <g>
                    <path d="M64.449,45.437 L2.554,45.437 C1.584,45.437 0.798,44.651 0.798,43.681 L0.798,4.613 C0.798,3.643 1.584,2.857 2.554,2.857 L64.449,2.857 C65.419,2.857 66.205,3.643 66.205,4.613 L66.205,43.681 C66.205,44.651 65.419,45.437 64.449,45.437 Z" id="Shape" fill="#FFFFFF" fill-rule="nonzero"></path>
                    <path d="M64.449,45.437 L2.554,45.437 C1.584,45.437 0.798,44.651 0.798,43.681 L0.798,4.613 C0.798,3.643 1.584,2.857 2.554,2.857 L64.449,2.857 C65.419,2.857 66.205,3.643 66.205,4.613 L66.205,43.681 C66.205,44.651 65.419,45.437 64.449,45.437 Z" id="Shape" stroke="#1237AD" stroke-width="1.3"></path>
                    <path d="M42.089,17.61 L53.175,17.61" id="Shape" stroke="#98CEFF" stroke-width="8"></path>
                    <path d="M41.503,30.439 L59.297,30.439" id="Shape" stroke="#524472" stroke-width="2" opacity="0.2" stroke-linejoin="round"></path>
                    <path d="M41.503,34.823 L52.589,34.823" id="Shape" stroke="#524472" stroke-width="2" opacity="0.2" stroke-linejoin="round"></path>
                    <rect id="Rectangle-path" fill="#00B7FF" fill-rule="nonzero" x="8.7" y="12.514" width="28.533" height="25.673"></rect>
                    <g transform="translate(9.000000, 0.000000)" id="Shape">
                        <g>
                            <path d="M4.968,4.174 L3.212,4.174 C1.757,4.174 0.578,5.353 0.578,6.808 L0.578,7.247 L7.601,7.247 L7.601,6.808 C7.601,5.353 6.422,4.174 4.968,4.174 Z" fill="#FFFFFF" fill-rule="nonzero"></path>
                            <path d="M4.968,4.174 L3.212,4.174 C1.757,4.174 0.578,5.353 0.578,6.808 L0.578,7.247 L7.601,7.247 L7.601,6.808 C7.601,5.353 6.422,4.174 4.968,4.174 Z" fill="#FFCF34" fill-rule="nonzero"></path>
                            <path d="M4.968,4.174 L3.212,4.174 C1.757,4.174 0.578,5.353 0.578,6.808 L0.578,7.247 L7.601,7.247 L7.601,6.808 C7.601,5.353 6.422,4.174 4.968,4.174 Z" stroke="#1237AD" stroke-width="1.3"></path>
                            <path d="M7.492,2.967 L7.492,1.924 C7.492,0.985 6.73,0.223 5.791,0.223 L5.791,0.223 C4.852,0.223 4.09,0.985 4.09,1.924 L4.09,4.064" stroke="#1237AD" stroke-width="1.3"></path>
                        </g>
                        <g transform="translate(41.000000, 0.000000)">
                            <path d="M3.036,4.174 L4.792,4.174 C6.247,4.174 7.426,5.353 7.426,6.808 L7.426,7.247 L0.403,7.247 L0.403,6.808 C0.402,5.353 1.581,4.174 3.036,4.174 Z" fill="#FFFFFF" fill-rule="nonzero"></path>
                            <path d="M3.036,4.174 L4.792,4.174 C6.247,4.174 7.426,5.353 7.426,6.808 L7.426,7.247 L0.403,7.247 L0.403,6.808 C0.402,5.353 1.581,4.174 3.036,4.174 Z" fill="#FFCF34" fill-rule="nonzero"></path>
                            <path d="M3.036,4.174 L4.792,4.174 C6.247,4.174 7.426,5.353 7.426,6.808 L7.426,7.247 L0.403,7.247 L0.403,6.808 C0.402,5.353 1.581,4.174 3.036,4.174 Z" stroke="#1237AD" stroke-width="1.3"></path>
                            <path d="M0.512,2.967 L0.512,1.924 C0.512,0.985 1.274,0.223 2.213,0.223 L2.213,0.223 C3.152,0.223 3.914,0.985 3.914,1.924 L3.914,4.064" stroke="#1237AD" stroke-width="1.3"></path>
                        </g>
                        <g transform="translate(20.000000, 0.000000)">
                            <path d="M3.624,4.174 L5.38,4.174 C6.835,4.174 8.014,5.353 8.014,6.808 L8.014,7.247 L0.991,7.247 L0.991,6.808 C0.99,5.353 2.169,4.174 3.624,4.174 Z" fill="#FFFFFF" fill-rule="nonzero"></path>
                            <path d="M3.624,4.174 L5.38,4.174 C6.835,4.174 8.014,5.353 8.014,6.808 L8.014,7.247 L0.991,7.247 L0.991,6.808 C0.99,5.353 2.169,4.174 3.624,4.174 Z" fill="#FFCF34" fill-rule="nonzero"></path>
                            <path d="M3.624,4.174 L5.38,4.174 C6.835,4.174 8.014,5.353 8.014,6.808 L8.014,7.247 L0.991,7.247 L0.991,6.808 C0.99,5.353 2.169,4.174 3.624,4.174 Z" stroke="#1237AD" stroke-width="1.3"></path>
                            <path d="M4.502,0.223 L4.502,3.845" stroke="#1237AD" stroke-width="1.3" stroke-linecap="round"></path>
                        </g>
                    </g>
                    <g transform="translate(11.000000, 45.000000)" id="Rectangle-path">
                        <rect fill="#524472" fill-rule="nonzero" opacity="0.4" x="0.992" y="0.437" width="3.512" height="17.541"></rect>
                        <rect stroke="#1237AD" stroke-width="1.3" x="0.992" y="0.437" width="3.512" height="17.541"></rect>
                        <rect fill="#524472" fill-rule="nonzero" opacity="0.4" x="40.499" y="0.437" width="3.512" height="17.541"></rect>
                        <rect stroke="#1237AD" stroke-width="1.3" x="40.499" y="0.437" width="3.512" height="17.541"></rect>
                    </g>
                    <path d="M3.432,62.978 L38.989,62.978" id="Shape" stroke="#1237AD" stroke-width="1.3" stroke-linecap="round"></path>
                    <path d="M48.207,62.978 L67.083,62.978" id="Shape" stroke="#1237AD" stroke-width="1.3" stroke-linecap="round"></path>
                    <path d="M21.671,53.859 C19.857,53.859 18.297,54.938 17.59,56.487 C17.343,56.428 17.086,56.393 16.82,56.393 C15.002,56.393 13.528,57.867 13.528,59.685 C13.528,61.503 15.002,62.977 16.82,62.977 L21.671,62.977 C24.149,62.977 26.159,60.824 26.159,58.346 C26.159,55.869 24.15,53.859 21.671,53.859 Z" id="Shape" fill="#FFFFFF" fill-rule="nonzero"></path>
                    <path d="M21.671,53.859 C19.857,53.859 18.297,54.938 17.59,56.487 C17.343,56.428 17.086,56.393 16.82,56.393 C15.002,56.393 13.528,57.867 13.528,59.685 C13.528,61.503 15.002,62.977 16.82,62.977 L21.671,62.977 C24.149,62.977 26.159,60.824 26.159,58.346 C26.159,55.869 24.15,53.859 21.671,53.859 Z" id="Shape" fill="#0BAA75" fill-rule="nonzero" opacity="0.7"></path>
                    <circle id="Oval" fill="#0BAA75" fill-rule="nonzero" opacity="0.7" cx="16.821" cy="59.686" r="2.897"></circle>
                    <path d="M21.671,53.859 C19.857,53.859 18.297,54.938 17.59,56.487 C17.343,56.428 17.086,56.393 16.82,56.393 C15.002,56.393 13.528,57.867 13.528,59.685 C13.528,61.503 15.002,62.977 16.82,62.977 L21.671,62.977 C24.149,62.977 26.159,60.824 26.159,58.346 C26.159,55.869 24.15,53.859 21.671,53.859 Z" id="Shape" stroke="#1237AD" stroke-width="1.3" stroke-linecap="round"></path>
                </g>
                <g transform="translate(144.000000, 24.000000)">
                    <path d="M71.407,38.978 L21.465,38.978 L21.465,2.614 C21.465,1.436 22.42,0.481 23.598,0.481 L69.274,0.481 C70.452,0.481 71.407,1.436 71.407,2.614 L71.407,38.978 L71.407,38.978 Z" id="Shape" fill="#FFFFFF" fill-rule="nonzero"></path>
                    <path d="M71.407,38.978 L21.465,38.978 L21.465,2.614 C21.465,1.436 22.42,0.481 23.598,0.481 L69.274,0.481 C70.452,0.481 71.407,1.436 71.407,2.614 L71.407,38.978 L71.407,38.978 Z" id="Shape" stroke="#1237AD" stroke-width="1.3"></path>
                    <path d="M78.17,36.377 L14.182,36.377 L14.182,36.845 C14.182,38.023 15.137,38.978 16.315,38.978 L76.037,38.978 C77.215,38.978 78.17,38.023 78.17,36.845 L78.17,36.377 L78.17,36.377 Z" id="Shape" fill="#FFFFFF" fill-rule="nonzero"></path>
                    <path d="M78.17,36.377 L14.182,36.377 L14.182,36.845 C14.182,38.023 15.137,38.978 16.315,38.978 L76.037,38.978 C77.215,38.978 78.17,38.023 78.17,36.845 L78.17,36.377 L78.17,36.377 Z" id="Shape" stroke="#1237AD" stroke-width="1.3"></path>
                    <path d="M51.7,36.377 L40.775,36.377 C40.775,37.238 41.474,37.938 42.336,37.938 L50.139,37.938 C51.002,37.938 51.7,37.239 51.7,36.377 Z" id="Shape" fill="#1237AD" fill-rule="nonzero"></path>
                    <path d="M46.957,14.007 L56.841,14.007" id="Shape" stroke="#98CEFF" stroke-width="2"></path>
                    <path d="M47.217,18.95 L63.864,18.95" id="Shape" stroke="#524472" opacity="0.2" stroke-linecap="round" stroke-linejoin="round"></path>
                    <path d="M47.217,20.51 L63.864,20.51" id="Shape" stroke="#524472" opacity="0.2" stroke-linecap="round" stroke-linejoin="round"></path>
                    <path d="M47.217,17.389 L63.864,17.389" id="Shape" stroke="#524472" opacity="0.2" stroke-linecap="round" stroke-linejoin="round"></path>
                    <path d="M47.217,23.632 L63.864,23.632" id="Shape" stroke="#524472" opacity="0.2" stroke-linecap="round" stroke-linejoin="round"></path>
                    <path d="M47.217,25.192 L60.743,25.192" id="Shape" stroke="#524472" opacity="0.2" stroke-linecap="round" stroke-linejoin="round"></path>
                    <path d="M47.217,22.071 L63.864,22.071" id="Shape" stroke="#524472" opacity="0.2" stroke-linecap="round" stroke-linejoin="round"></path>
                    <path d="M47.217,27.793 L63.864,27.793" id="Shape" stroke="#524472" opacity="0.2" stroke-linecap="round" stroke-linejoin="round"></path>
                    <path d="M47.217,29.354 L57.101,29.354" id="Shape" stroke="#524472" opacity="0.2" stroke-linecap="round" stroke-linejoin="round"></path>
                    <rect id="Rectangle-path" fill="#00B7FF" fill-rule="nonzero" x="27.188" y="13.487" width="15.607" height="16.127"></rect>
                    <path d="M66.725,9.325 L24.587,9.325 L24.587,8.146 C24.587,7.361 25.224,6.724 26.009,6.724 L65.303,6.724 C66.088,6.724 66.725,7.361 66.725,8.146 L66.725,9.325 L66.725,9.325 Z" id="Shape" fill="#524472" fill-rule="nonzero" opacity="0.2"></path>
                    <path d="M33.431,2.042 L9.032,2.042 C7.854,2.042 6.899,2.997 6.899,4.175 L6.899,36.845 C6.899,38.023 7.854,38.978 9.032,38.978 L33.379,38.978 C34.557,38.978 35.512,38.023 35.512,36.845 L35.512,4.173 C35.512,2.997 34.551,2.042 33.366,2.042" id="Shape" fill="#FFFFFF" fill-rule="nonzero"></path>
                    <path d="M33.379,2.042 L9.032,2.042 C7.854,2.042 6.899,2.997 6.899,4.175 L6.899,36.845 C6.899,38.023 7.854,38.978 9.032,38.978 L33.379,38.978 C34.557,38.978 35.512,38.023 35.512,36.845 L35.512,4.175 C35.512,2.997 34.557,2.042 33.379,2.042 Z" id="Shape" stroke="#1237AD" stroke-width="1.3"></path>
                    <path d="M22.42,36.909 C22.42,37.498 21.943,37.975 21.354,37.975 C20.765,37.975 20.288,37.498 20.288,36.909 C20.288,36.32 20.766,35.843 21.354,35.843 C21.943,35.843 22.42,36.321 22.42,36.909" id="Shape" fill="#1237AD" fill-rule="nonzero"></path>
                    <path d="M11.841,26.233 L31.09,26.233" id="Shape" stroke="#524472" opacity="0.2" stroke-linecap="round" stroke-linejoin="round"></path>
                    <path d="M11.841,27.793 L31.09,27.793" id="Shape" stroke="#524472" opacity="0.2" stroke-linecap="round" stroke-linejoin="round"></path>
                    <path d="M11.841,29.354 L29.009,29.354" id="Shape" stroke="#524472" opacity="0.2" stroke-linecap="round" stroke-linejoin="round"></path>
                    <path d="M11.841,31.435 L31.09,31.435" id="Shape" stroke="#524472" opacity="0.2" stroke-linecap="round" stroke-linejoin="round"></path>
                    <path d="M11.841,32.996 L25.888,32.996" id="Shape" stroke="#524472" opacity="0.2" stroke-linecap="round" stroke-linejoin="round"></path>
                    <rect id="Rectangle-path" fill="#00B7FF" fill-rule="nonzero" x="11.061" y="7.765" width="20.289" height="15.087"></rect>
                    <path d="M12.102,38.978 L2.27,38.978 C1.092,38.978 0.137,38.023 0.137,36.845 L0.137,15.62 C0.137,14.442 1.092,13.487 2.27,13.487 L12.05,13.487 C13.228,13.487 14.183,14.442 14.183,15.62 L14.183,36.854 C14.183,38.027 13.24,38.978 12.076,38.978" id="Shape" fill="#FFFFFF" fill-rule="nonzero"></path>
                    <path d="M12.05,38.978 L2.27,38.978 C1.092,38.978 0.137,38.023 0.137,36.845 L0.137,15.62 C0.137,14.442 1.092,13.487 2.27,13.487 L12.05,13.487 C13.228,13.487 14.183,14.442 14.183,15.62 L14.183,36.845 C14.182,38.023 13.228,38.978 12.05,38.978 Z" id="Shape" stroke="#1237AD" stroke-width="1.3"></path>
                    <path d="M8.2,36.909 C8.2,37.498 7.723,37.975 7.134,37.975 C6.545,37.975 6.068,37.498 6.068,36.909 C6.068,36.32 6.546,35.843 7.134,35.843 C7.723,35.843 8.2,36.321 8.2,36.909" id="Shape" fill="#1237AD" fill-rule="nonzero"></path>
                    <rect id="Rectangle-path" fill="#00B7FF" fill-rule="nonzero" x="2.217" y="19.73" width="9.884" height="7.283"></rect>
                    <path d="M2.217,17.649 L7.42,17.649" id="Shape" stroke="#98CEFF" stroke-width="2"></path>
                    <path d="M2.477,29.874 L11.841,29.874" id="Shape" stroke="#524472" opacity="0.2" stroke-linecap="round" stroke-linejoin="round"></path>
                    <path d="M2.477,31.435 L11.841,31.435" id="Shape" stroke="#524472" opacity="0.2" stroke-linecap="round" stroke-linejoin="round"></path>
                    <path d="M2.477,32.996 L9.24,32.996" id="Shape" stroke="#524472" opacity="0.2" stroke-linecap="round" stroke-linejoin="round"></path>
                </g>
                <g transform="translate(240.000000, 17.000000)">
                    <g transform="translate(0.000000, 3.000000)">
                        <path d="M21.95,42.978 L6.697,42.978 C5.81,42.978 5.091,42.259 5.091,41.372 L5.091,40.168 L23.556,40.168 L23.556,41.372 C23.556,42.259 22.837,42.978 21.95,42.978 Z" id="Shape" fill="#524472" fill-rule="nonzero" opacity="0.4"></path>
                        <path d="M21.95,42.978 L6.697,42.978 C5.81,42.978 5.091,42.259 5.091,41.372 L5.091,40.168 L23.556,40.168 L23.556,41.372 C23.556,42.259 22.837,42.978 21.95,42.978 Z" id="Shape" stroke="#1237AD" stroke-width="1.3"></path>
                        <path d="M23.556,18.091 L5.091,18.091 L5.091,2.035 C5.091,1.148 5.81,0.429 6.697,0.429 L21.95,0.429 C22.837,0.429 23.556,1.148 23.556,2.035 L23.556,18.091 Z" id="Shape" fill="#524472" fill-rule="nonzero" opacity="0.4"></path>
                        <path d="M23.556,18.091 L5.091,18.091 L5.091,2.035 C5.091,1.148 5.81,0.429 6.697,0.429 L21.95,0.429 C22.837,0.429 23.556,1.148 23.556,2.035 L23.556,18.091 Z" id="Shape" stroke="#1237AD" stroke-width="1.3"></path>
                        <circle id="Oval" fill="#FFFFFF" fill-rule="nonzero" cx="14.323" cy="28.929" r="14.049"></circle>
                        <path d="M14.323,40.57 C7.904,40.57 2.682,35.348 2.682,28.929 C2.682,22.51 7.904,17.288 14.323,17.288 C20.742,17.288 25.964,22.51 25.964,28.929 C25.964,35.348 20.742,40.57 14.323,40.57 Z" id="Shape" fill="#FFFFFF" fill-rule="nonzero"></path>
                        <circle id="Oval" stroke="#1237AD" stroke-width="1.3" cx="14.323" cy="28.929" r="14.049"></circle>
                        <path d="M11.915,4.042 L16.732,4.042" id="Shape" stroke="#FFFFFF" stroke-width="2" stroke-linecap="round"></path>
                        <path d="M11.915,8.859 L16.732,8.859" id="Shape" stroke="#FFFFFF" stroke-width="2" stroke-linecap="round"></path>
                        <path d="M22.741,20.901 C20.62,18.678 17.632,17.288 14.324,17.288 C11.016,17.288 8.028,18.677 5.907,20.901 L22.741,20.901 Z" id="Shape" fill="#524472" fill-rule="nonzero" opacity="0.2"></path>
                        <path d="M2.682,28.929 C2.682,30.339 2.934,31.691 3.396,32.943 L25.25,32.943 C25.711,31.691 25.964,30.339 25.964,28.929 C25.964,26.557 25.249,24.349 24.026,22.506 L4.621,22.506 C3.397,24.349 2.682,26.557 2.682,28.929 Z" id="Shape" fill="#00B7FF" fill-rule="nonzero"></path>
                        <path d="M5.091,34.549 L12.718,34.549" id="Shape" stroke="#98CEFF" stroke-width="2"></path>
                        <path d="M9.306,38.763 L19.341,38.763" id="Shape" stroke="#524472" opacity="0.2" stroke-linecap="round" stroke-linejoin="round"></path>
                        <path d="M6.094,36.756 L22.151,36.756" id="Shape" stroke="#524472" opacity="0.2" stroke-linecap="round" stroke-linejoin="round"></path>
                    </g>
                    <g transform="translate(23.000000, 0.000000)">
                        <path d="M16.969,45.978 L7.825,45.978 C6.42,45.978 5.231,44.94 5.041,43.548 L4.168,37.147 L20.626,37.147 L19.753,43.548 C19.563,44.94 18.374,45.978 16.969,45.978 Z" id="Shape" fill="#524472" fill-rule="nonzero" opacity="0.4"></path>
                        <path d="M7.825,0.619 L16.969,0.619 C18.374,0.619 19.563,1.657 19.753,3.049 L20.626,9.45 L4.168,9.45 L5.041,3.049 C5.231,1.657 6.42,0.619 7.825,0.619 Z" id="Shape" fill="#524472" fill-rule="nonzero" opacity="0.4"></path>
                        <path d="M16.969,45.978 L7.825,45.978 C6.42,45.978 5.231,44.94 5.041,43.548 L4.168,37.147 L20.626,37.147 L19.753,43.548 C19.563,44.94 18.374,45.978 16.969,45.978 Z" id="Shape" stroke="#1237AD" stroke-width="1.3"></path>
                        <path d="M7.825,0.619 L16.969,0.619 C18.374,0.619 19.563,1.657 19.753,3.049 L20.626,9.45 L4.168,9.45 L5.041,3.049 C5.231,1.657 6.42,0.619 7.825,0.619 Z" id="Shape" stroke="#1237AD" stroke-width="1.3"></path>
                        <path d="M20.693,9.45 L4.503,9.45 C2.323,9.45 0.556,11.217 0.556,13.397 L0.556,33.2 C0.556,35.38 2.323,37.147 4.503,37.147 L20.693,37.147 C22.873,37.147 24.64,35.38 24.64,33.2 L24.64,13.397 C24.64,11.217 22.873,9.45 20.693,9.45 Z" id="Shape" fill="#FFFFFF" fill-rule="nonzero"></path>
                        <path d="M3.767,15.94 L3.767,13.398 C3.767,12.992 4.097,12.662 4.503,12.662 L20.693,12.662 C21.099,12.662 21.429,12.992 21.429,13.398 L21.429,15.94 L3.767,15.94 Z" id="Shape" fill="#524472" fill-rule="nonzero" opacity="0.2"></path>
                        <path d="M20.693,9.45 L4.503,9.45 C2.323,9.45 0.556,11.217 0.556,13.397 L0.556,33.2 C0.556,35.38 2.323,37.147 4.503,37.147 L20.693,37.147 C22.873,37.147 24.64,35.38 24.64,33.2 L24.64,13.397 C24.64,11.217 22.873,9.45 20.693,9.45 Z" id="Shape" stroke="#1237AD" stroke-width="1.3"></path>
                        <rect id="Rectangle-path" stroke="#1237AD" stroke-width="1.3" x="24.64" y="15.471" width="1.606" height="5.62"></rect>
                        <path d="M24.64,31.929 L24.64,31.929 C25.305,31.929 25.844,31.39 25.844,30.725 L25.844,25.507 C25.844,24.842 25.305,24.303 24.64,24.303 L24.64,24.303 L24.64,31.929 Z" id="Shape" stroke="#1237AD" stroke-width="1.3"></path>
                        <rect id="Rectangle-path" fill="#00B7FF" fill-rule="nonzero" x="3.767" y="17.478" width="17.662" height="8.43"></rect>
                        <path d="M3.767,28.316 L11.393,28.316" id="Shape" stroke="#98CEFF" stroke-width="2"></path>
                        <path d="M3.967,32.531 L21.228,32.531" id="Shape" stroke="#524472" opacity="0.2" stroke-linecap="round" stroke-linejoin="round"></path>
                        <path d="M3.967,30.524 L21.228,30.524" id="Shape" stroke="#524472" opacity="0.2" stroke-linecap="round" stroke-linejoin="round"></path>
                    </g>
                </g>
                <g transform="translate(314.000000, 12.000000)">
                    <path d="M56.331,45.272 L3.216,45.272 C1.761,45.272 0.582,44.093 0.582,42.638 L0.582,6.643 C0.582,5.188 1.761,4.009 3.216,4.009 L56.331,4.009 C57.786,4.009 58.965,5.188 58.965,6.643 L58.965,42.638 C58.964,44.092 57.785,45.272 56.331,45.272 Z" id="Shape" fill="#FFFFFF" fill-rule="nonzero"></path>
                    <path d="M56.331,45.272 L3.216,45.272 C1.761,45.272 0.582,44.093 0.582,42.638 L0.582,6.643 C0.582,5.188 1.761,4.009 3.216,4.009 L56.331,4.009 C57.786,4.009 58.965,5.188 58.965,6.643 L58.965,42.638 C58.964,44.092 57.785,45.272 56.331,45.272 Z" id="Shape" stroke="#1237AD" stroke-width="1.3"></path>
                    <path d="M31.378,18.762 L42.464,18.762" id="Shape" stroke="#98CEFF" stroke-width="2"></path>
                    <path d="M31.67,24.305 L50.341,24.305" id="Shape" stroke="#524472" opacity="0.2" stroke-linecap="round" stroke-linejoin="round"></path>
                    <path d="M31.67,26.055 L50.341,26.055" id="Shape" stroke="#524472" opacity="0.2" stroke-linecap="round" stroke-linejoin="round"></path>
                    <path d="M31.67,22.555 L50.341,22.555" id="Shape" stroke="#524472" opacity="0.2" stroke-linecap="round" stroke-linejoin="round"></path>
                    <path d="M31.67,29.556 L50.341,29.556" id="Shape" stroke="#524472" opacity="0.2" stroke-linecap="round" stroke-linejoin="round"></path>
                    <path d="M31.67,31.307 L46.84,31.307" id="Shape" stroke="#524472" opacity="0.2" stroke-linecap="round" stroke-linejoin="round"></path>
                    <path d="M31.67,27.806 L50.341,27.806" id="Shape" stroke="#524472" opacity="0.2" stroke-linecap="round" stroke-linejoin="round"></path>
                    <path d="M31.67,34.224 L50.341,34.224" id="Shape" stroke="#524472" opacity="0.2" stroke-linecap="round" stroke-linejoin="round"></path>
                    <path d="M31.67,35.975 L42.756,35.975" id="Shape" stroke="#524472" opacity="0.2" stroke-linecap="round" stroke-linejoin="round"></path>
                    <rect id="Rectangle-path" fill="#00B7FF" fill-rule="nonzero" x="9.206" y="18.178" width="17.505" height="18.088"></rect>
                    <path d="M53.55,13.95 L6.288,13.95 L6.288,12.627 C6.288,11.746 7.002,11.032 7.883,11.032 L51.956,11.032 C52.837,11.032 53.551,11.746 53.551,12.627 L53.551,13.95 L53.55,13.95 Z" id="Shape" fill="#524472" fill-rule="nonzero" opacity="0.2"></path>
                    <rect id="Rectangle-path" fill="#524472" fill-rule="nonzero" opacity="0.4" x="27.359" y="45.272" width="4.829" height="3.951"></rect>
                    <path d="M45.576,49.222 L13.97,49.222 C13,49.222 12.214,50.008 12.214,50.978 L12.214,50.978 L47.331,50.978 L47.331,50.978 C47.332,50.008 46.546,49.222 45.576,49.222 Z" id="Shape" fill="#524472" fill-rule="nonzero" opacity="0.4"></path>
                    <rect id="Rectangle-path" stroke="#1237AD" stroke-width="1.3" x="27.359" y="45.272" width="4.829" height="3.951"></rect>
                    <path d="M45.576,49.222 L13.97,49.222 C13,49.222 12.214,50.008 12.214,50.978 L12.214,50.978 L47.331,50.978 L47.331,50.978 C47.332,50.008 46.546,49.222 45.576,49.222 Z" id="Shape" stroke="#1237AD" stroke-width="1.3"></path>
                    <path d="M61.273,29.908 L56.331,29.908 C55.846,29.908 55.453,30.301 55.453,30.786 L55.453,50.1 C55.453,50.585 55.846,50.978 56.331,50.978 L61.273,50.978 C61.758,50.978 62.151,50.585 62.151,50.1 L62.151,30.785 C62.151,30.301 61.758,29.908 61.273,29.908 Z" id="Shape" fill="#FFFFFF" fill-rule="nonzero"></path>
                    <path d="M61.273,29.908 L56.331,29.908 C55.846,29.908 55.453,30.301 55.453,30.786 L55.453,50.1 C55.453,50.585 55.846,50.978 56.331,50.978 L61.273,50.978 C61.758,50.978 62.151,50.585 62.151,50.1 L62.151,30.785 C62.151,30.301 61.758,29.908 61.273,29.908 Z" id="Shape" fill="#524472" fill-rule="nonzero" opacity="0.4"></path>
                    <path d="M61.273,29.908 L56.331,29.908 C55.846,29.908 55.453,30.301 55.453,30.786 L55.453,50.1 C55.453,50.585 55.846,50.978 56.331,50.978 L61.273,50.978 C61.758,50.978 62.151,50.585 62.151,50.1 L62.151,30.785 C62.151,30.301 61.758,29.908 61.273,29.908 Z" id="Shape" stroke="#1237AD" stroke-width="1.3"></path>
                    <circle id="Oval" stroke="#FFFFFF" stroke-width="1.3" cx="58.802" cy="36.639" r="1.589"></circle>
                    <rect id="Rectangle-path" stroke="#FFFFFF" stroke-width="0.5" x="57.154" y="32.542" width="1" height="1"></rect>
                    <rect id="Rectangle-path" stroke="#FFFFFF" stroke-width="0.5" x="59.348" y="32.542" width="1" height="1"></rect>
                    <rect id="Rectangle-path" stroke="#FFFFFF" stroke-width="0.5" x="57.154" y="40.004" width="1" height="1"></rect>
                    <rect id="Rectangle-path" stroke="#FFFFFF" stroke-width="0.5" x="59.348" y="40.004" width="1" height="1"></rect>
                    <rect id="Rectangle-path" stroke="#FFFFFF" stroke-width="0.5" x="57.154" y="42.199" width="1" height="1"></rect>
                    <rect id="Rectangle-path" stroke="#FFFFFF" stroke-width="0.5" x="59.348" y="42.199" width="1" height="1"></rect>
                    <path d="M57.208,44.613 L60.281,44.613" id="Shape" stroke="#FFFFFF" stroke-width="1.3"></path>
                    <circle id="Oval" stroke="#1237AD" opacity="0.3" cx="56.55" cy="6.423" r="1"></circle>
                    <path d="M56.55,2.472 C58.732,2.472 60.501,4.241 60.501,6.423" id="Shape" stroke="#1237AD" opacity="0.3" stroke-linecap="round" stroke-linejoin="round"></path>
                    <path d="M56.55,0.936 C59.581,0.936 62.037,3.393 62.037,6.423" id="Shape" stroke="#1237AD" opacity="0.3" stroke-linecap="round" stroke-linejoin="round"></path>
                </g>
                <g transform="translate(405.000000, 11.000000)">
                    <path d="M37.767,51.578 L3.778,51.578 L3.778,4.393 C3.778,2.185 5.568,0.394 7.777,0.394 L33.769,0.394 C35.977,0.394 37.768,2.184 37.768,4.393 L37.768,51.578 L37.767,51.578 Z" id="Shape" fill="#FFFFFF" fill-rule="nonzero"></path>
                    <path d="M37.767,51.578 L3.778,51.578 L3.778,4.393 C3.778,2.185 5.568,0.394 7.777,0.394 L33.769,0.394 C35.977,0.394 37.768,2.184 37.768,4.393 L37.768,51.578 L37.767,51.578 Z" id="Shape" stroke="#1237AD" stroke-width="1.3"></path>
                    <rect id="Rectangle-path" fill="#00B7FF" fill-rule="nonzero" x="7.377" y="5.593" width="20.793" height="16.395"></rect>
                    <path d="M7.377,5.593 L28.17,5.593" id="Shape" stroke="#1237AD" stroke-width="1.3"></path>
                    <text id="$" fill="#FFFFFF" font-family="Helvetica" font-size="8.4074" font-weight="normal">
                        <tspan x="15.1035" y="17.082">$</tspan>
                    </text>
                    <path d="M30.569,7.992 L35.368,7.992" id="Shape" stroke="#1237AD"></path>
                    <path d="M30.569,17.589 L35.368,17.589" id="Shape" stroke="#1237AD"></path>
                    <circle id="Oval" stroke="#1237AD" cx="32.969" cy="15.656" r="1"></circle>
                    <path d="M12.504,25.92 L29.512,25.92" id="Shape" stroke="#524472" opacity="0.2" stroke-linecap="round" stroke-linejoin="round"></path>
                    <path d="M41.766,51.978 L0.179,51.978 L0.179,51.478 C0.179,50.429 1.029,49.579 2.078,49.579 L39.866,49.579 C40.915,49.579 41.765,50.429 41.765,51.478 L41.765,51.978 L41.766,51.978 Z" id="Shape" fill="#FFFFFF" fill-rule="nonzero"></path>
                    <path d="M41.766,51.978 L0.179,51.978 L0.179,51.478 C0.179,50.429 1.029,49.579 2.078,49.579 L39.866,49.579 C40.915,49.579 41.765,50.429 41.765,51.478 L41.765,51.978 L41.766,51.978 Z" id="Shape" fill="#524472" fill-rule="nonzero" opacity="0.4"></path>
                    <path d="M41.766,51.978 L0.179,51.978 L0.179,51.478 C0.179,50.429 1.029,49.579 2.078,49.579 L39.866,49.579 C40.915,49.579 41.765,50.429 41.765,51.478 L41.765,51.978 L41.766,51.978 Z" id="Shape" stroke="#1237AD" stroke-width="1.3"></path>
                </g>
                <g transform="translate(98.000000, 15.000000)">
                    <ellipse id="Oval" stroke="#2BA6F9" stroke-width="2" cx="8.547" cy="5.218" rx="8.276" ry="2.759"></ellipse>
                    <path d="M0.271,45.22 C0.271,46.744 3.976,47.979 8.547,47.979 C13.118,47.979 16.823,46.744 16.823,45.22 L16.823,3.494 L0.271,3.494 L0.271,45.22 Z" id="Shape" fill="#FFFFFF" fill-rule="nonzero"></path>
                    <path d="M0.271,45.22 C0.271,46.744 3.976,47.979 8.547,47.979 C13.118,47.979 16.823,46.744 16.823,45.22 L16.823,3.494 L0.271,3.494 L0.271,45.22 Z" id="Shape" stroke="#1237AD" stroke-width="1.3"></path>
                    <path d="M8.547,25.219 C3.976,25.219 0.271,23.984 0.271,22.46 L0.271,41.771 C0.271,43.295 3.976,44.53 8.547,44.53 C13.118,44.53 16.823,43.295 16.823,41.771 L16.823,22.46 C16.823,23.984 13.118,25.219 8.547,25.219 Z" id="Shape" fill="#524472" fill-rule="nonzero" opacity="0.05"></path>
                    <ellipse id="Oval" fill="#FFFFFF" fill-rule="nonzero" cx="8.547" cy="3.494" rx="8.276" ry="2.759"></ellipse>
                    <ellipse id="Oval" stroke="#1237AD" stroke-width="1.3" cx="8.547" cy="3.494" rx="8.276" ry="2.759"></ellipse>
                    <path d="M13.978,3.494 L12.858,3.494" id="Shape" stroke="#1237AD" stroke-width="1.3" stroke-linecap="round"></path>
                    <circle id="Oval" fill="#524472" fill-rule="nonzero" opacity="0.1" cx="8.547" cy="12.632" r="3.448"></circle>
                    <path d="M4.323,3.494 L3.202,3.494" id="Shape" stroke="#1237AD" stroke-width="1.3" stroke-linecap="round"></path>
                    <path d="M8.935,3.494 L8.159,3.494" id="Shape" stroke="#2BA6F9" stroke-width="2"></path>
                    <g transform="translate(0.000000, 24.000000)" id="Shape" fill-rule="nonzero" fill="#524472" opacity="0.1">
                        <path d="M2.529,1.677 C2.529,2.126 2.172,2.364 1.739,2.185 C1.305,2.006 0.96,1.477 0.96,1.028 C0.96,0.579 1.305,0.38 1.739,0.559 C2.172,0.738 2.529,1.227 2.529,1.677 Z"></path>
                        <path d="M5.229,2.412 C5.229,2.861 4.861,3.157 4.41,3.05 C3.959,2.943 3.598,2.472 3.598,2.023 C3.598,1.574 3.959,1.317 4.41,1.424 C4.861,1.532 5.229,1.963 5.229,2.412 Z"></path>
                        <path d="M7.992,2.715 C7.992,3.164 7.619,3.519 7.16,3.482 C6.701,3.447 6.33,3.033 6.33,2.585 C6.33,2.136 6.701,1.821 7.16,1.857 C7.619,1.893 7.992,2.266 7.992,2.715 Z"></path>
                        <path d="M10.764,2.585 C10.764,3.034 10.393,3.447 9.934,3.482 C9.475,3.518 9.102,3.163 9.102,2.715 C9.102,2.266 9.475,1.893 9.934,1.857 C10.393,1.821 10.764,2.136 10.764,2.585 Z"></path>
                        <path d="M13.496,2.023 C13.496,2.472 13.135,2.943 12.684,3.05 C12.233,3.158 11.865,2.861 11.865,2.412 C11.865,1.963 12.233,1.532 12.684,1.424 C13.134,1.317 13.495,1.574 13.496,2.023 Z"></path>
                        <path d="M16.133,1.028 C16.133,1.477 15.788,2.006 15.354,2.185 C14.921,2.364 14.564,2.126 14.564,1.677 C14.564,1.228 14.921,0.739 15.354,0.559 C15.788,0.38 16.133,0.578 16.133,1.028 Z"></path>
                        <path d="M2.529,4.386 C2.529,4.835 2.172,5.073 1.739,4.894 C1.305,4.715 0.96,4.186 0.96,3.737 C0.96,3.288 1.305,3.089 1.739,3.268 C2.172,3.448 2.529,3.937 2.529,4.386 Z"></path>
                        <path d="M5.229,5.121 C5.229,5.57 4.861,5.866 4.41,5.759 C3.959,5.652 3.598,5.181 3.598,4.732 C3.598,4.283 3.959,4.026 4.41,4.133 C4.861,4.241 5.229,4.672 5.229,5.121 Z"></path>
                        <path d="M7.992,5.424 C7.992,5.873 7.619,6.228 7.16,6.191 C6.701,6.156 6.33,5.742 6.33,5.294 C6.33,4.845 6.701,4.53 7.16,4.566 C7.619,4.602 7.992,4.975 7.992,5.424 Z"></path>
                        <path d="M10.764,5.294 C10.764,5.742 10.393,6.156 9.934,6.191 C9.475,6.227 9.102,5.872 9.102,5.424 C9.102,4.975 9.475,4.602 9.934,4.566 C10.393,4.53 10.764,4.845 10.764,5.294 Z"></path>
                        <path d="M13.496,4.732 C13.496,5.181 13.135,5.652 12.684,5.759 C12.233,5.867 11.865,5.57 11.865,5.121 C11.865,4.672 12.233,4.241 12.684,4.133 C13.134,4.026 13.495,4.283 13.496,4.732 Z"></path>
                        <path d="M16.133,3.737 C16.133,4.186 15.788,4.715 15.354,4.894 C14.921,5.073 14.564,4.835 14.564,4.386 C14.564,3.937 14.921,3.448 15.354,3.268 C15.788,3.089 16.133,3.288 16.133,3.737 Z"></path>
                        <path d="M2.529,7.095 C2.529,7.544 2.172,7.782 1.739,7.603 C1.305,7.424 0.96,6.895 0.96,6.446 C0.96,5.997 1.305,5.798 1.739,5.977 C2.172,6.157 2.529,6.646 2.529,7.095 Z"></path>
                        <path d="M5.229,7.831 C5.229,8.28 4.861,8.576 4.41,8.469 C3.959,8.362 3.598,7.89 3.598,7.442 C3.598,6.993 3.959,6.736 4.41,6.843 C4.861,6.951 5.229,7.382 5.229,7.831 Z"></path>
                        <path d="M7.992,8.134 C7.992,8.583 7.619,8.938 7.16,8.901 C6.701,8.865 6.33,8.452 6.33,8.004 C6.33,7.555 6.701,7.24 7.16,7.276 C7.619,7.312 7.992,7.684 7.992,8.134 Z"></path>
                        <path d="M10.764,8.004 C10.764,8.453 10.393,8.866 9.934,8.901 C9.475,8.937 9.102,8.582 9.102,8.134 C9.102,7.685 9.475,7.312 9.934,7.276 C10.393,7.24 10.764,7.555 10.764,8.004 Z"></path>
                        <path d="M13.496,7.442 C13.496,7.89 13.135,8.362 12.684,8.469 C12.233,8.577 11.865,8.28 11.865,7.831 C11.865,7.382 12.233,6.951 12.684,6.843 C13.134,6.736 13.495,6.992 13.496,7.442 Z"></path>
                        <path d="M16.133,6.447 C16.133,6.896 15.788,7.425 15.354,7.604 C14.921,7.784 14.564,7.545 14.564,7.096 C14.564,6.647 14.921,6.158 15.354,5.978 C15.788,5.799 16.133,5.997 16.133,6.447 Z"></path>
                        <path d="M2.529,9.805 C2.529,10.254 2.172,10.492 1.739,10.313 C1.305,10.134 0.96,9.605 0.96,9.156 C0.96,8.707 1.305,8.508 1.739,8.687 C2.172,8.867 2.529,9.356 2.529,9.805 Z"></path>
                        <path d="M5.229,10.54 C5.229,10.989 4.861,11.286 4.41,11.178 C3.959,11.071 3.598,10.6 3.598,10.151 C3.598,9.702 3.959,9.445 4.41,9.552 C4.861,9.66 5.229,10.091 5.229,10.54 Z"></path>
                        <path d="M7.992,10.843 C7.992,11.292 7.619,11.647 7.16,11.61 C6.701,11.574 6.33,11.161 6.33,10.713 C6.33,10.264 6.701,9.949 7.16,9.985 C7.619,10.021 7.992,10.394 7.992,10.843 Z"></path>
                        <path d="M10.764,10.713 C10.764,11.162 10.393,11.575 9.934,11.61 C9.475,11.646 9.102,11.291 9.102,10.843 C9.102,10.394 9.475,10.021 9.934,9.985 C10.393,9.949 10.764,10.264 10.764,10.713 Z"></path>
                        <path d="M13.496,10.151 C13.496,10.6 13.135,11.071 12.684,11.178 C12.233,11.286 11.865,10.989 11.865,10.54 C11.865,10.091 12.233,9.66 12.684,9.552 C13.134,9.445 13.495,9.702 13.496,10.151 Z"></path>
                        <path d="M16.133,9.156 C16.133,9.605 15.788,10.134 15.354,10.313 C14.921,10.492 14.564,10.254 14.564,9.805 C14.564,9.356 14.921,8.867 15.354,8.687 C15.788,8.508 16.133,8.707 16.133,9.156 Z"></path>
                        <path d="M2.529,12.514 C2.529,12.963 2.172,13.201 1.739,13.022 C1.305,12.843 0.96,12.314 0.96,11.865 C0.96,11.416 1.305,11.217 1.739,11.396 C2.172,11.576 2.529,12.065 2.529,12.514 Z"></path>
                        <path d="M5.229,13.25 C5.229,13.699 4.861,13.995 4.41,13.888 C3.959,13.781 3.598,13.31 3.598,12.861 C3.598,12.412 3.959,12.155 4.41,12.262 C4.861,12.37 5.229,12.801 5.229,13.25 Z"></path>
                        <path d="M7.992,13.553 C7.992,14.002 7.619,14.357 7.16,14.32 C6.701,14.285 6.33,13.871 6.33,13.423 C6.33,12.974 6.701,12.659 7.16,12.695 C7.619,12.731 7.992,13.103 7.992,13.553 Z"></path>
                        <path d="M10.764,13.423 C10.764,13.871 10.393,14.285 9.934,14.32 C9.475,14.356 9.102,14.001 9.102,13.553 C9.102,13.104 9.475,12.731 9.934,12.695 C10.393,12.659 10.764,12.974 10.764,13.423 Z"></path>
                        <path d="M13.496,12.86 C13.496,13.309 13.135,13.78 12.684,13.887 C12.233,13.995 11.865,13.698 11.865,13.249 C11.865,12.8 12.233,12.369 12.684,12.261 C13.134,12.155 13.495,12.411 13.496,12.86 Z"></path>
                        <path d="M16.133,11.865 C16.133,12.314 15.788,12.843 15.354,13.022 C14.921,13.202 14.564,12.963 14.564,12.514 C14.564,12.065 14.921,11.576 15.354,11.396 C15.788,11.218 16.133,11.416 16.133,11.865 Z"></path>
                        <path d="M2.529,15.224 C2.529,15.673 2.172,15.911 1.739,15.732 C1.305,15.553 0.96,15.024 0.96,14.575 C0.96,14.126 1.305,13.927 1.739,14.106 C2.172,14.285 2.529,14.774 2.529,15.224 Z"></path>
                        <path d="M5.229,15.959 C5.229,16.407 4.861,16.704 4.41,16.597 C3.959,16.49 3.598,16.019 3.598,15.57 C3.598,15.121 3.959,14.864 4.41,14.971 C4.861,15.079 5.229,15.51 5.229,15.959 Z"></path>
                        <path d="M7.992,16.262 C7.992,16.711 7.619,17.066 7.16,17.029 C6.701,16.994 6.33,16.58 6.33,16.132 C6.33,15.683 6.701,15.368 7.16,15.404 C7.619,15.44 7.992,15.813 7.992,16.262 Z"></path>
                        <path d="M10.764,16.132 C10.764,16.581 10.393,16.994 9.934,17.029 C9.475,17.065 9.102,16.71 9.102,16.262 C9.102,15.813 9.475,15.44 9.934,15.404 C10.393,15.368 10.764,15.683 10.764,16.132 Z"></path>
                        <path d="M13.496,15.57 C13.496,16.019 13.135,16.49 12.684,16.597 C12.233,16.705 11.865,16.408 11.865,15.959 C11.865,15.51 12.233,15.079 12.684,14.971 C13.134,14.864 13.495,15.121 13.496,15.57 Z"></path>
                        <path d="M16.133,14.575 C16.133,15.024 15.788,15.553 15.354,15.732 C14.921,15.912 14.564,15.673 14.564,15.224 C14.564,14.775 14.921,14.286 15.354,14.106 C15.788,13.927 16.133,14.126 16.133,14.575 Z"></path>
                        <path d="M2.529,17.933 C2.529,18.381 2.172,18.62 1.739,18.441 C1.305,18.262 0.96,17.733 0.96,17.284 C0.96,16.835 1.305,16.636 1.739,16.815 C2.172,16.995 2.529,17.484 2.529,17.933 Z"></path>
                        <path d="M5.229,18.669 C5.229,19.118 4.861,19.414 4.41,19.307 C3.959,19.2 3.598,18.729 3.598,18.28 C3.598,17.831 3.959,17.574 4.41,17.681 C4.861,17.788 5.229,18.219 5.229,18.669 Z"></path>
                        <path d="M7.992,18.972 C7.992,19.421 7.619,19.776 7.16,19.739 C6.701,19.703 6.33,19.291 6.33,18.842 C6.33,18.393 6.701,18.078 7.16,18.114 C7.619,18.149 7.992,18.522 7.992,18.972 Z"></path>
                        <path d="M10.764,18.842 C10.764,19.291 10.393,19.704 9.934,19.739 C9.475,19.775 9.102,19.42 9.102,18.972 C9.102,18.523 9.475,18.15 9.934,18.114 C10.393,18.078 10.764,18.392 10.764,18.842 Z"></path>
                        <path d="M13.496,18.279 C13.496,18.728 13.135,19.199 12.684,19.306 C12.233,19.414 11.865,19.117 11.865,18.668 C11.865,18.219 12.233,17.788 12.684,17.68 C13.134,17.574 13.495,17.83 13.496,18.279 Z"></path>
                        <path d="M16.133,17.284 C16.133,17.733 15.788,18.262 15.354,18.441 C14.921,18.621 14.564,18.382 14.564,17.933 C14.564,17.484 14.921,16.995 15.354,16.815 C15.788,16.637 16.133,16.835 16.133,17.284 Z"></path>
                    </g>
                    <g transform="translate(7.000000, 10.000000)" id="Shape">
                        <path d="M3.032,2.291 L3.032,2.687 C3.032,3.506 2.366,4.172 1.547,4.172 C0.728,4.172 0.062,3.506 0.062,2.687 L0.062,2.291" stroke="#1237AD" stroke-width="1.3" stroke-linecap="round" stroke-linejoin="round"></path>
                        <path d="M1.547,3.379 L1.547,3.379 C1.164,3.379 0.854,3.069 0.854,2.686 L0.854,1.3 C0.854,0.917 1.164,0.607 1.547,0.607 L1.547,0.607 C1.93,0.607 2.24,0.917 2.24,1.3 L2.24,2.686 C2.24,3.069 1.93,3.379 1.547,3.379 Z" fill="#FFFFFF" fill-rule="nonzero"></path>
                        <path d="M1.547,3.379 L1.547,3.379 C1.164,3.379 0.854,3.069 0.854,2.686 L0.854,1.3 C0.854,0.917 1.164,0.607 1.547,0.607 L1.547,0.607 C1.93,0.607 2.24,0.917 2.24,1.3 L2.24,2.686 C2.24,3.069 1.93,3.379 1.547,3.379 Z" stroke="#2BA6F9" stroke-width="2"></path>
                        <path d="M1.547,4.171 L1.547,4.963" stroke="#1237AD" stroke-width="1.3" stroke-linecap="round" stroke-linejoin="round"></path>
                    </g>
                </g>
            </g>
        </g>
        <g id="Group-2" transform="translate(192.000000, 194.000000)">
            <rect id="Rectangle-path" fill="#00D3FF" fill-rule="nonzero" opacity="0.1" x="0.52137931" y="0.109090909" width="83.2758621" height="71.2727273"></rect>
            <polygon id="Shape" fill="url(#linearGradient-1)" fill-rule="nonzero" points="83.4351724 71.3818182 83.4351724 71.3818182 0.883448276 71.3818182 0.883448276 0.836363636 83.4351724 0.836363636 83.4351724 71.3818182 83.4351724 71.3818182 83.4351724 71.3818182 83.4351724 0.836363636 0.883448276 0.836363636 0.883448276 71.3818182 83.4351724 71.3818182"></polygon>
            <rect id="Rectangle-path" stroke="#2BA6F9" stroke-width="1.3" x="0.883448276" y="0.472727273" width="82.5517241" height="70.5454545"></rect>
            <text id="Contentful" font-family="AvenirNext-DemiBold, Avenir Next" font-size="12" font-weight="500" fill="#000000">
                <tspan x="12.8433103" y="61.8690909">Contentful</tspan>
            </text>
            <path d="M38.5241379,33.5127273 L38.5241379,33.5127273 C37.1710057,32.1553931 36.4106851,30.3134588 36.4106851,28.3927273 C36.4106851,26.4719957 37.1710057,24.6300614 38.5241379,23.2727273 L38.5241379,23.2727273 C39.6299453,22.1621328 39.6299453,20.3615035 38.5241379,19.2509091 C37.4183306,18.1403147 35.6254626,18.1403147 34.5196552,19.2509091 C32.1039216,21.676081 30.7466913,24.9659318 30.7466913,28.3963636 C30.7466913,31.8267955 32.1039216,35.1166463 34.5196552,37.5418182 C35.6254626,38.6524126 37.4183306,38.6524126 38.5241379,37.5418182 C39.6299453,36.4312238 39.6299453,34.6305944 38.5241379,33.52 L38.5241379,33.52" id="Shape" fill="#F9E300" fill-rule="nonzero"></path>
            <path d="M38.5313793,23.2727273 L38.5313793,23.2727273 C39.8828629,21.9137373 41.7168578,21.1501253 43.6293103,21.1501253 C45.5417629,21.1501253 47.3757578,21.9137373 48.7272414,23.2727273 L48.7272414,23.2727273 C49.8330488,24.3833216 51.6259167,24.3833215 52.731724,23.2727271 C53.8375313,22.1621328 53.8375314,20.3615035 52.7317241,19.2509091 C50.3170056,16.8247178 47.0413352,15.4616121 43.6256897,15.4616121 C40.2100442,15.4616121 36.9343737,16.8247178 34.5196552,19.2509091 C33.8043232,19.9693377 33.5249543,21.0164702 33.786784,21.997862 C34.0486136,22.9792537 34.8118637,23.745808 35.7890253,24.0087711 C36.766187,24.2717342 37.808806,23.9911559 38.5241379,23.2727273 L38.5241379,23.2727273" id="Shape" fill="#4FB5E1" fill-rule="nonzero"></path>
            <path d="M48.7272414,33.5127273 L48.7272414,33.5127273 C47.3767043,34.8735054 45.5423547,35.6383531 43.6293103,35.6383531 C41.7162659,35.6383531 39.8819164,34.8735054 38.5313793,33.5127273 L38.5313793,33.5127273 C37.8147538,32.7942985 36.7709395,32.5144132 35.793131,32.7785014 C34.8153225,33.0425896 34.0520723,33.81053 33.7908895,34.793047 C33.5297066,35.7755639 33.8102709,36.8233896 34.5268966,37.5418182 C36.9416151,39.9680094 40.2172855,41.3311152 43.632931,41.3311152 C47.0485765,41.3311152 50.324247,39.9680094 52.7389655,37.5418182 C53.8467725,36.4312238 53.8483936,34.6289664 52.7425862,33.5163636 C51.6367788,32.4037609 49.8422898,32.4021328 48.7344828,33.5127273 L48.7272414,33.5127273 Z" id="Shape" fill="#F05751" fill-rule="nonzero"></path>
            <path d="M38.5313793,23.2727273 C37.425612,24.3831108 35.6329609,24.3830185 34.5273069,23.2725212 C33.4216529,22.1620239 33.4216529,20.3616124 34.5273069,19.2511151 C35.6329609,18.1406178 37.425612,18.1405256 38.5313793,19.2509091 C39.6333239,20.3631077 39.6333239,22.1605287 38.5313793,23.2727273" id="Shape" fill="#0681B6" fill-rule="nonzero"></path>
            <path d="M38.5313793,37.5345455 C37.425612,38.6449289 35.6329609,38.6448367 34.5273069,37.5343394 C33.4216529,36.4238421 33.4216529,34.6234306 34.5273069,33.5129333 C35.6329609,32.402436 37.425612,32.4023438 38.5313793,33.5127273 C39.6333239,34.6249258 39.6333239,36.4223469 38.5313793,37.5345455" id="Shape" fill="#CD4739" fill-rule="nonzero"></path>
        </g>
        <g id="Group-3" transform="translate(45.000000, 96.000000)" stroke="#979797" stroke-dasharray="4">
            <polyline id="Path-2" points="0.349112166 2.81179677 0.349112166 36.0512984 392.622966 36.0512984 392.622966 0.499815525"></polyline>
            <path d="M190.245473,50.5 L190.245473,36.1074245" id="Path-3"></path>
            <path d="M190.245473,90.5 L190.245473,75.1074245" id="Path-3"></path>
            <path d="M70.3333333,36.2759717 L70.3333333,2.01712904" id="Path-3"></path>
            <path d="M142.333333,36.2759717 L142.333333,2.01712904" id="Path-3"></path>
            <path d="M229.333333,36.2759717 L229.333333,2.01712904" id="Path-3"></path>
            <path d="M309.333333,36.2759717 L309.333333,2.01712904" id="Path-3"></path>
        </g>
        <text id="{json}" fill="#2A3039" font-family="Courier" font-size="18" font-weight="normal">
            <tspan x="200.594727" y="163">{json}</tspan>
        </text>
        <polygon id="Triangle" fill="#979797" points="45.5 87 49 99 42 99"></polygon>
        <polygon id="Triangle" fill="#979797" points="115.5 87 119 99 112 99"></polygon>
        <polygon id="Triangle" fill="#979797" points="187.5 87 191 99 184 99"></polygon>
        <polygon id="Triangle" fill="#979797" points="274.5 87 278 99 271 99"></polygon>
        <polygon id="Triangle" fill="#979797" points="354.5 87 358 99 351 99"></polygon>
        <polygon id="Triangle" fill="#979797" points="437.5 87 441 99 434 99"></polygon>
    </g>
</svg>