<?xml version="1.0" encoding="UTF-8"?>
<svg width="726px" height="296px" viewBox="0 0 726 296" version="1.1" xmlns="http://www.w3.org/2000/svg" xmlns:xlink="http://www.w3.org/1999/xlink">
    <!-- Generator: Sketch 47.1 (45422) - http://www.bohemiancoding.com/sketch -->
    <title>Slice</title>
    <desc>Created with Sketch.</desc>
    <defs>
        <linearGradient x1="98.6831579%" y1="49.2985567%" x2="3.46350877%" y2="49.2985567%" id="linearGradient-1">
            <stop stop-color="#EAFAFF" offset="0%"></stop>
            <stop stop-color="#A6ECFF" offset="100%"></stop>
        </linearGradient>
    </defs>
    <g id="Page-2" stroke="none" stroke-width="1" fill="none" fill-rule="evenodd">
        <g id="Contentful" transform="translate(284.000000, 95.000000)">
            <rect id="Rectangle-path" fill="#00D3FF" fill-rule="nonzero" opacity="0.1" x="0" y="0" width="177" height="157.962264"></rect>
            <polygon id="Shape" fill="url(#linearGradient-1)" fill-rule="nonzero" points="176.784522 150.367925 176.784522 150.367925 1.32365217 150.367925 1.32365217 3.03773585 176.784522 3.03773585 176.784522 150.367925 176.784522 150.367925 176.784522 150.367925 176.784522 3.03773585 1.32365217 3.03773585 1.32365217 150.367925 176.784522 150.367925"></polygon>
            <rect id="Rectangle-path" stroke="#2BA6F9" stroke-width="1.3" x="1.32365217" y="2.27830189" width="175.46087" height="157.962264"></rect>
            <g id="Group-2" transform="translate(64.643478, 34.933962)" fill-rule="nonzero">
                <path d="M16.6995652,37.8653774 L16.6995652,37.8653774 C13.8235288,35.0306618 12.2074935,31.1838863 12.2074935,27.1725472 C12.2074935,23.161208 13.8235288,19.3144325 16.6995652,16.479717 L16.6995652,16.479717 C19.0499206,14.1603033 19.0499203,10.3997913 16.6995647,8.08037786 C14.3492091,5.76096446 10.5385298,5.76096424 8.18817391,8.08037736 C3.05361482,13.1452116 0.168868134,20.0158788 0.168868134,27.1801415 C0.168868134,34.3444042 3.05361482,41.2150715 8.18817391,46.2799057 C9.7085875,47.7803033 11.9246387,48.3662754 14.0015624,47.8170918 C16.0784862,47.2679082 17.7007483,45.667003 18.2572582,43.6174218 C18.8137682,41.5678406 18.219979,39.3809635 16.6995652,37.880566 L16.6995652,37.880566" id="Shape" fill="#F9E300"></path>
                <path d="M16.6995652,16.4645283 L16.6995652,16.4645283 C19.5720974,13.6263547 23.4701909,12.0315943 27.5350435,12.0315943 C31.599896,12.0315943 35.4979896,13.6263547 38.3705217,16.4645283 L38.3705217,16.4645283 C40.7208776,18.7839414 44.5315569,18.7839412 46.8819125,16.4645278 C49.2322682,14.1451144 49.2322684,10.3846024 46.881913,8.06518868 C41.7495112,2.99822558 34.7871857,0.151456321 27.5273478,0.151456321 C20.26751,0.151456321 13.3051844,2.99822558 8.17278261,8.06518868 C6.65236869,9.56558613 6.05857935,11.7524633 6.61508932,13.8020446 C7.17159929,15.8516259 8.79386146,17.4525311 10.8707853,18.0017147 C12.9477091,18.5508983 15.1637604,17.9649261 16.6841739,16.4645283 L16.6841739,16.4645283" id="Shape" fill="#4FB5E1"></path>
                <path d="M38.385913,37.8653774 L38.385913,37.8653774 C35.5153927,40.7072855 31.6165453,42.3046267 27.5504348,42.3046267 C23.4843243,42.3046267 19.5854769,40.7072855 16.7149565,37.8653774 L16.7149565,37.8653774 C15.1917935,36.3649798 12.9732018,35.7804554 10.8949035,36.3319887 C8.8166052,36.883522 7.19434318,38.487322 6.63920787,40.5392528 C6.08407256,42.5911837 6.68040221,44.7795081 8.20356522,46.2799057 C13.335967,51.3468688 20.2982926,54.193638 27.5581304,54.193638 C34.8179683,54.193638 41.7802939,51.3468688 46.9126957,46.2799057 C49.2673012,43.960492 49.2707464,40.1965798 46.9203908,37.8729722 C44.5700352,35.5493646 40.7559104,35.5459642 38.4013043,37.8653774 L38.385913,37.8653774 Z" id="Shape" fill="#F05751"></path>
                <path d="M16.6995652,16.4645283 C14.3492946,18.7835014 10.5390759,18.7833087 8.18904605,16.464098 C5.83901622,14.1448872 5.83901622,10.3848297 8.18904605,8.065619 C10.5390759,5.74640827 14.3492946,5.74621561 16.6995652,8.06518868 C19.0417108,10.3879524 19.0417108,14.1417646 16.6995652,16.4645283" id="Shape" fill="#0681B6"></path>
                <path d="M16.6995652,46.264717 C14.3492946,48.5836901 10.5390759,48.5834974 8.18904605,46.2642867 C5.83901622,43.9450759 5.83901622,40.1850184 8.18904605,37.8658077 C10.5390759,35.5465969 14.3492946,35.5464043 16.6995652,37.8653774 C19.0417108,40.1881411 19.0417108,43.9419532 16.6995652,46.264717" id="Shape" fill="#CD4739"></path>
            </g>
        </g>
        <text id="Content-Preview-API" fill="#000000" font-family="AvenirNext-DemiBold, Avenir Next" font-size="14" font-weight="500">
            <tspan x="117.91" y="138">Content Preview API</tspan>
            <tspan x="50.7262187" y="157" font-size="12">https://</tspan>
            <tspan x="91.5742188" y="157" font-family="Courier" font-size="12" font-weight="normal">preview.contentful.com</tspan>
        </text>
        <text id="Content-Management-A" fill="#000000" font-family="AvenirNext-DemiBold, Avenir Next" font-size="14" font-weight="500">
            <tspan x="497" y="127">Content Management API</tspan>
            <tspan x="497" y="146" font-family="Courier" font-size="12" font-weight="normal">https://api.contentful.com</tspan>
        </text>
        <text id="Content-Delivery-API" fill="#000000" font-family="AvenirNext-DemiBold, Avenir Next" font-size="14" font-weight="500">
            <tspan x="115.18" y="53">Content Delivery API</tspan>
            <tspan x="79.5309062" y="72" font-size="12">https://</tspan>
            <tspan x="120.378906" y="72" font-family="Courier" font-size="12" font-weight="normal">cdn.contentful.com</tspan>
        </text>
        <text id="Images-API-https://i" fill="#000000" font-family="AvenirNext-DemiBold, Avenir Next" font-size="14" font-weight="500">
            <tspan x="177.172" y="223">Images API</tspan>
            <tspan x="41.1660156" y="242" font-family="Courier" font-size="12" font-weight="normal">https://images.contentful.com</tspan>
        </text>
        <g id="arrow" transform="translate(18.000000, 245.000000)">
            <path d="M231.078146,6.5 L14.5960265,6.5" id="Shape" stroke="#1237AD" stroke-width="1.3" stroke-dasharray="3"></path>
            <polygon id="Shape" fill="#1237AD" fill-rule="nonzero" points="10.7549669 0 0 6.5 10.7549669 13"></polygon>
        </g>
        <g id="arrow" transform="translate(18.000000, 161.000000)">
            <path d="M231.078146,6.5 L14.5960265,6.5" id="Shape" stroke="#1237AD" stroke-width="1.3" stroke-dasharray="3"></path>
            <polygon id="Shape" fill="#1237AD" fill-rule="nonzero" points="10.7549669 0 0 6.5 10.7549669 13"></polygon>
        </g>
        <g id="arrow" transform="translate(18.000000, 76.000000)">
            <path d="M231.078146,6.5 L14.5960265,6.5" id="Shape" stroke="#1237AD" stroke-width="1.3" stroke-dasharray="3"></path>
            <polygon id="Shape" fill="#1237AD" fill-rule="nonzero" points="10.7549669 0 0 6.5 10.7549669 13"></polygon>
        </g>
        <g id="arrow" transform="translate(493.000000, 152.000000)">
            <path d="M215.433333,6.5 L14.5666667,6.5" id="Shape" stroke="#1237AD" stroke-width="1.3" stroke-dasharray="3"></path>
            <polygon id="Shape" fill="#1237AD" fill-rule="nonzero" points="10.3346667 0 0 6.32125 10.3346667 12.6425"></polygon>
            <polygon id="Shape" fill="#1237AD" fill-rule="nonzero" transform="translate(224.434000, 6.321250) rotate(-180.000000) translate(-224.434000, -6.321250) " points="219.266667 6.32125 229.601333 12.6425 229.601333 0"></polygon>
        </g>
        <text id="Contentful-infrastru" font-family="AvenirNext-DemiBold, Avenir Next" font-size="18" font-weight="500" fill="#000000">
            <tspan x="329.526" y="215">Contentful</tspan>
            <tspan x="318.285" y="240">infrastructure</tspan>
        </text>
        <rect id="Rectangle-path" stroke="#E4E4E4" fill-opacity="0.1" fill="#C5C5C5" fill-rule="nonzero" stroke-dasharray="4,4,4,4" x="265" y="13" width="214" height="262"></rect>
        <g id="aws" transform="translate(336.000000, 31.000000)" fill-rule="nonzero">
            <rect id="Rectangle-path" fill="#666666" x="13.787234" y="18.2222222" width="45.9574468" height="19.7407407"></rect>
            <path d="M51.3051429,34.153 L51.3051429,34.153 C47.0674286,34.153 46.1211429,31.611 46.1211429,29.3765 L46.1211429,29.0075 L48.8571429,29.0075 L48.8571429,29.3765 C48.8571429,31.242 49.6902857,32.2465 51.6034286,32.2465 C53.3828571,32.2465 54.1748571,31.12925 54.1748571,30.012 C54.1748571,28.372 53.2182857,27.634 51.7268571,27.25475 L49.9371429,26.6295 C47.4891429,25.7685 46.4091429,24.61025 46.4091429,22.37575 C46.4091429,19.62875 48.4457143,18.0195 51.6034286,18.0195 C55.9645714,18.0195 56.376,20.5205 56.376,22.1195 L56.376,22.4885 L53.8045714,22.4885 L53.8045714,22.1195 C53.8045714,20.746 53.0948571,19.885 51.3051429,19.885 C50.2251429,19.885 49.1451429,20.5205 49.1451429,22.1195 C49.1451429,23.493 49.8137143,24.1285 51.6034286,24.764 L53.5165714,25.3995 C55.8411429,26.1375 56.9211429,27.3675 56.9211429,29.48925 C56.9211429,32.76925 54.7611429,34.153 51.3051429,34.153 L51.3051429,34.153 Z M41.3382857,33.8865 L41.3382857,33.8865 L38.1805714,33.8865 L35.9794286,22.1195 L35.9794286,22.1195 L33.8194286,33.8865 L30.6617143,33.8865 L27.504,18.39875 L30.2502857,18.39875 L32.4514286,30.39125 L32.4514286,30.39125 L34.6114286,18.39875 L37.512,18.39875 L39.8468571,30.39125 L39.8468571,30.39125 L42.0068571,18.39875 L44.7428571,18.39875 L41.3382857,33.8865 L41.3382857,33.8865 Z M24.9325714,33.8865 L24.9325714,33.8865 L23.976,30.012 L18.9051429,30.012 L17.784,33.8865 L15.0377143,33.8865 L19.8617143,18.39875 L23.2662857,18.39875 L27.792,33.8865 L24.9325714,33.8865 L24.9325714,33.8865 Z M0,28.75125 L0,28.75125 L0,29.8685 C0,35.37275 6.43885714,41 14.5028571,41 L57.4971429,41 C65.5611429,41 72,35.37275 72,29.8685 L72,28.75125 C72,23.64675 66.3942857,17.12775 59.1222857,16.646 C58.9988571,11.9925 54.8845714,8.37425 49.8137143,8.37425 C47.7771429,8.37425 45.9874286,8.86625 44.496,9.87075 C41.5851429,3.98725 35.1874286,0 27.6274286,0 C17.5371429,0 9.30857143,7.36975 9.30857143,16.75875 C9.30857143,16.8715 9.30857143,17.015 9.30857143,17.2405 C3.82628571,18.62425 0,24.50775 0,28.75125 L0,28.75125 Z" id="Shape" fill="#666666"></path>
            <path d="M19.8276136,28.5849021 L19.8276136,28.5849021 L21.9133052,20.6586223 L21.9133052,20.6586223 L23.8725912,28.5849021 L19.8276136,28.5849021 L19.8276136,28.5849021 Z M20.2594992,18.6158764 L20.2594992,18.6158764 L15.3191489,34.6918613 L18.1316724,34.6918613 L19.2798562,30.6702052 L24.4730176,30.6702052 L25.4526606,34.6918613 L28.3810559,34.6918613 L23.7461857,18.6158764 L20.2594992,18.6158764 L20.2594992,18.6158764 Z M40.7266647,31.0638594 L40.7266647,31.0638594 L40.7266647,31.0638594 L38.335493,18.6158764 L35.3649626,18.6158764 L33.1528654,31.0638594 L33.1528654,31.0638594 L30.7616938,18.6158764 L28.0861096,18.6158764 L31.319985,34.6918613 L34.5538603,34.6918613 L36.7659574,22.4779429 L36.7659574,22.4779429 L39.0201898,34.6918613 L42.2540651,34.6918613 L45.7407516,18.6158764 L42.9387619,18.6158764 L40.7266647,31.0638594 Z M54.7260795,25.8825195 L54.7260795,25.8825195 L52.7667935,25.2228828 C50.933913,24.563246 50.2492162,23.9036093 50.2492162,22.4779429 C50.2492162,20.8182118 51.3552648,20.1585751 52.4613134,20.1585751 C54.2941939,20.1585751 55.0210258,21.0522765 55.0210258,22.4779429 L55.0210258,22.8609578 L57.6544748,22.8609578 L57.6544748,22.4779429 C57.6544748,20.8182118 57.2331229,18.2222222 52.7667935,18.2222222 C49.5329181,18.2222222 47.4472265,19.8925926 47.4472265,22.7439255 C47.4472265,25.0632932 48.5532751,26.2655343 51.0603185,27.1592357 L52.893199,27.8082331 C54.4205994,28.2018872 55.4002424,28.967917 55.4002424,30.6702052 C55.4002424,31.8298891 54.5891402,32.989573 52.7667935,32.989573 C50.933913,32.989573 49.9542699,31.9469214 49.9542699,30.0105685 L49.9542699,29.6275537 L47.1522802,29.6275537 L47.1522802,30.0105685 C47.1522802,32.3299363 48.1213895,34.9259259 52.4613134,34.9259259 C56.0006688,34.9259259 58.212766,33.5321774 58.212766,30.1276008 C58.212766,27.9252654 57.1067174,26.6485492 54.7260795,25.8825195 L54.7260795,25.8825195 Z" id="Shape" fill="#FFFFFF"></path>
        </g>
    </g>
</svg>