<?xml version="1.0" encoding="UTF-8"?>
<svg width="708px" height="232px" viewBox="0 0 708 232" version="1.1" xmlns="http://www.w3.org/2000/svg" xmlns:xlink="http://www.w3.org/1999/xlink">
    <!-- Generator: Sketch 47.1 (45422) - http://www.bohemiancoding.com/sketch -->
    <title>Slice</title>
    <desc>Created with Sketch.</desc>
    <defs>
        <linearGradient x1="98.6831579%" y1="49.2985567%" x2="3.46350877%" y2="49.2985567%" id="linearGradient-1">
            <stop stop-color="#EAFAFF" offset="0%"></stop>
            <stop stop-color="#A6ECFF" offset="100%"></stop>
        </linearGradient>
    </defs>
    <g id="Page-2" stroke="none" stroke-width="1" fill="none" fill-rule="evenodd">
        <rect id="Rectangle-path" stroke="#E4E4E4" fill-opacity="0.1" fill="#C5C5C5" fill-rule="nonzero" stroke-dasharray="4,4,4,4" x="547" y="62" width="137" height="127"></rect>
        <polygon id="Fill-510" fill="#DEDEDE" points="651 166 674 166 674 92 651 92"></polygon>
        <path d="M668.25,167 L563.75,167 C561.126813,167 559,164.821757 559,162.135135 L559,81.8648649 C559,79.1782432 561.126813,77 563.75,77 L668.25,77 C670.873187,77 673,79.1782432 673,81.8648649 L673,162.135135 C673,164.821757 670.873187,167 668.25,167 Z" id="Stroke-500" stroke="#1237AD" stroke-width="1.3"></path>
        <path d="M672.682448,91.3946169 L559,91.3946169 L559,80.8781407 C559,78.7359181 560.69988,77 562.79616,77 L668.886288,77 C670.982568,77 672.682448,78.7359181 672.682448,80.8781407 L672.682448,91.3946169 Z" id="Fill-511"></path>
        <path d="M559,91 L673.277644,91" id="Stroke-512" stroke="#1237AD" stroke-width="1.3"></path>
        <path d="M571,85 C571,86.1053333 570.105333,87 569,87 C567.894667,87 567,86.1053333 567,85 C567,83.8946667 567.894667,83 569,83 C570.105333,83 571,83.8946667 571,85" id="Fill-513" fill="#1237AD"></path>
        <path d="M578,87 C576.894667,87 576,86.1053333 576,85 C576,83.8946667 576.894667,83 578,83 C579.105333,83 580,83.8946667 580,85 C580,86.1053333 579.105333,87 578,87 Z" id="Fill-514" fill="#1237AD"></path>
        <path d="M588,85 C588,86.1053333 587.105333,87 586,87 C584.894667,87 584,86.1053333 584,85 C584,83.8946667 584.894667,83 586,83 C587.105333,83 588,83.8946667 588,85" id="Fill-515" fill="#1237AD"></path>
        <g id="Text" transform="translate(570.000000, 120.000000)">
            <path d="M0,0 L35.7692308,0" id="Stroke-501" stroke="#98CEFF" stroke-width="2"></path>
            <path d="M2.38461538,12.3529412 L62,12.3529412" id="Stroke-502" stroke="#524472" stroke-width="1.367" stroke-linecap="round" stroke-linejoin="round"></path>
            <path d="M2.38461538,16.0588235 L62,16.0588235" id="Stroke-503" stroke="#524472" stroke-width="1.367" stroke-linecap="round" stroke-linejoin="round"></path>
            <path d="M2.38461538,8.64705882 L62,8.64705882" id="Stroke-504" stroke="#524472" stroke-width="1.367" stroke-linecap="round" stroke-linejoin="round"></path>
            <path d="M2.38461538,19.7647059 L51.2692308,19.7647059" id="Stroke-506" stroke="#524472" stroke-width="1.367" stroke-linecap="round" stroke-linejoin="round"></path>
        </g>
        <g id="publish-button" transform="translate(571.000000, 146.000000)">
            <polygon id="Fill-510" fill="#00B7FF" points="0 15 32 15 32 0 0 0"></polygon>
            <text id="Publish" font-family="AvenirNext-DemiBold, Avenir Next" font-size="6" font-weight="500" fill="#FFFFFF">
                <tspan x="4.74074074" y="9.5">Publish</tspan>
            </text>
        </g>
        <g id="preview-button" transform="translate(607.000000, 146.000000)">
            <polygon id="Fill-510" fill="#00B7FF" points="0 14.6666667 32 14.6666667 32 0 0 0"></polygon>
            <text id="Preview" font-family="AvenirNext-DemiBold, Avenir Next" font-size="6" font-weight="500" fill="#FFFFFF">
                <tspan x="3.55555556" y="10.2222222">Preview</tspan>
            </text>
        </g>
        <g id="contentful-logo" transform="translate(570.000000, 97.000000)" fill-rule="nonzero">
            <path d="M4.33693664,9.76215993 L4.33800987,9.76107764 C3.58250578,8.99417176 3.15899273,7.95670197 3.16013991,6.87567783 C3.16013991,5.74900822 3.61089652,4.72840356 4.3390831,3.98973689 L4.33747325,3.98757229 C4.95417558,3.35970405 4.95417558,2.34803146 4.33747325,1.72016322 C4.04225196,1.41929416 3.63996416,1.25 3.22024079,1.25 C2.80051743,1.25 2.39822963,1.41929416 2.10300834,1.72016322 C0.752707848,3.08982508 -0.00361432106,4.94376298 1.40971133e-05,6.87513669 C-0.00376597625,8.80664623 0.752798079,10.660704 2.10354495,12.0301102 C2.3987456,12.3308122 2.80091797,12.5 3.2205091,12.5 C3.64010023,12.5 4.0422726,12.3308122 4.33747325,12.0301102 C4.95417558,11.4022419 4.95417558,10.3905693 4.33747325,9.76270108 L4.33693664,9.76215993" id="Shape" fill="#F8E419"></path>
            <path d="M3.828904,4.51710913 L3.83047343,4.51877412 C4.56194298,3.73374624 5.5589907,3.29170093 6.59947686,3.29112477 C7.68133952,3.29112477 8.66066588,3.76120569 9.37004971,4.51988411 L9.37214229,4.51766412 C9.65968326,4.82613287 10.0516132,4.99971932 10.4605443,4.99971932 C10.8694754,4.99971932 11.2614053,4.82613287 11.5489462,4.51766412 C12.1503513,3.87316063 12.1503513,2.83507281 11.5489462,2.19056931 C10.2419433,0.787434665 8.45944915,-0.00155574094 6.6,3.31525548e-06 C4.74049235,-0.00186638412 2.95788974,0.787172027 1.65105377,2.19056931 C1.04964874,2.83507281 1.04964874,3.87316063 1.65105377,4.51766412 C1.93861475,4.82630433 2.33065721,5 2.73971731,5 C3.14877741,5 3.54081988,4.82630433 3.82838085,4.51766412 L3.82838085,4.51710913" id="Shape" fill="#56AED2"></path>
            <path d="M9.371096,10.4828909 L9.36952657,10.4812259 C8.63784297,11.2661868 7.64059185,11.7080389 6.6,11.7083202 C5.5589346,11.708638 4.56118812,11.2662501 3.82995029,10.4801159 L3.82785771,10.4823359 C3.54031674,10.1738671 3.14838685,10.0002807 2.73945574,10.0002807 C2.33052464,10.0002807 1.93859475,10.1738671 1.65105377,10.4823359 C1.04964874,11.1268394 1.04964874,12.1649272 1.65105377,12.8094307 C2.9580567,14.2125653 4.74055085,15.0015557 6.6,14.9999967 C8.45950765,15.0018664 10.2421103,14.212828 11.5489462,12.8094307 C12.1503513,12.1649272 12.1503513,11.1268394 11.5489462,10.4823359 C11.2613853,10.1736957 10.8693428,10 10.4602827,10 C10.0512226,10 9.65918012,10.1736957 9.37161915,10.4823359 L9.37161915,10.4828909" id="Shape" fill="#E0534E"></path>
            <path d="M4.27290095,4.4505821 C3.93648802,4.80217745 3.47816928,5 3,5 C2.52183072,5 2.06351198,4.80217745 1.72709905,4.4505821 C1.02430032,3.71644823 1.02430032,2.53355177 1.72709905,1.7994179 C2.06351198,1.44782255 2.52183072,1.25 3,1.25 C3.47816928,1.25 3.93648802,1.44782255 4.27290095,1.7994179 C4.97569968,2.53355177 4.97569968,3.71644823 4.27290095,4.4505821" id="Shape" fill="#1E78A4"></path>
            <path d="M4.2729453,13.2006748 C3.93656067,13.5522108 3.4782805,13.75 3.00015146,13.75 C2.52202241,13.75 2.06374224,13.5522108 1.72735761,13.2006748 C1.02421413,12.4665901 1.02421413,11.2834099 1.72735761,10.5493252 C2.06374224,10.1977892 2.52202241,10 3.00015146,10 C3.4782805,10 3.93656067,10.1977892 4.2729453,10.5493252 C4.9756849,11.2833352 4.9756849,12.4660321 4.2729453,13.2000422" id="Shape" fill="#BE433B"></path>
        </g>
        <text id="Contentful’s-web-app" fill="#000000" font-family="AvenirNext-DemiBold, Avenir Next" font-size="14" font-weight="500">
            <tspan x="576.636" y="31">Contentful’s</tspan>
            <tspan x="586.947" y="50">web app</tspan>
        </text>
        <g id="Contentful" transform="translate(243.000000, 18.000000)">
            <rect id="Rectangle-path" fill="#00D3FF" fill-rule="nonzero" opacity="0.1" x="35" y="44" width="137" height="127"></rect>
            <polygon id="Shape" fill="url(#linearGradient-1)" fill-rule="nonzero" points="181 189 181 189 26 189 26 57 181 57 181 189 181 189 181 189 181 57 26 57 26 189 181 189"></polygon>
            <rect id="Rectangle-path" stroke="#2BA6F9" stroke-width="1.3" x="37" y="46" width="137" height="127"></rect>
            <g id="Group-2" transform="translate(83.000000, 86.000000)" fill-rule="nonzero">
                <path d="M14.5796875,33.9325 L14.5796875,33.9325 C12.0687412,31.3922114 10.6578488,27.9449803 10.6578488,24.3502778 C10.6578488,20.7555753 12.0687412,17.3083441 14.5796875,14.7680556 L14.5796875,14.7680556 C16.6316838,12.6895472 16.6316836,9.3196197 14.5796871,7.24111156 C12.5276905,5.16260342 9.2007468,5.16260322 7.14875,7.24111111 C2.66598257,11.7798877 0.14743166,17.9369348 0.14743166,24.3570833 C0.14743166,30.7772318 2.66598257,36.934279 7.14875,41.4730556 C8.47615911,42.8176148 10.4109001,43.342725 12.2241748,42.8505823 C14.0374495,42.3584395 15.4537783,40.9238119 15.9396437,39.0871099 C16.4255092,37.2504079 15.9070968,35.2906702 14.5796875,33.9461111 L14.5796875,33.9461111" id="Shape" fill="#F9E300"></path>
                <path d="M14.5796875,14.7544444 L14.5796875,14.7544444 C17.0875744,12.211057 20.4908358,10.781936 24.0396875,10.781936 C27.5885392,10.781936 30.9918006,12.211057 33.4996875,14.7544444 L33.4996875,14.7544444 C35.5516843,16.8329523 38.878628,16.8329521 40.9306246,14.754444 C42.9826211,12.6759359 42.9826213,9.30600839 40.930625,7.2275 C36.449741,2.68681568 30.3712276,0.13572535 24.0329687,0.13572535 C17.6947099,0.13572535 11.6161965,2.68681568 7.1353125,7.2275 C5.8079031,8.57205907 5.28949063,10.5317968 5.77535606,12.3684989 C6.26122149,14.205201 7.6775503,15.6398286 9.49082506,16.1319714 C11.3040998,16.6241141 13.2388409,16.0990038 14.56625,14.7544444 L14.56625,14.7544444" id="Shape" fill="#4FB5E1"></path>
                <path d="M33.513125,33.9325 L33.513125,33.9325 C31.0069945,36.4792341 27.6030749,37.9106679 24.053125,37.9106679 C20.5031751,37.9106679 17.0992555,36.4792341 14.593125,33.9325 L14.593125,33.9325 C13.2633155,32.5879409 11.3263565,32.0641279 9.51188169,32.5583763 C7.6974069,33.0526248 6.28107822,34.4898465 5.79641294,36.3286541 C5.31174767,38.1674617 5.83237799,40.1284964 7.1621875,41.4730556 C11.6430715,46.0137399 17.7215849,48.5648302 24.0598437,48.5648302 C30.3981026,48.5648302 36.476616,46.0137399 40.9575,41.4730556 C43.013207,39.3945472 43.0162149,36.0215727 40.9642183,33.939306 C38.9122218,31.8570393 35.58227,31.8539921 33.5265625,33.9325 L33.513125,33.9325 Z" id="Shape" fill="#F05751"></path>
                <path d="M14.5796875,14.7544444 C12.5277651,16.832558 9.20122356,16.8323853 7.14951143,14.7540588 C5.09779929,12.6757323 5.09779929,9.30621215 7.14951143,7.22788563 C9.20122356,5.1495591 12.5277651,5.14938645 14.5796875,7.2275 C16.6245162,9.3090105 16.6245162,12.6729339 14.5796875,14.7544444" id="Shape" fill="#0681B6"></path>
                <path d="M14.5796875,41.4594444 C12.5277651,43.537558 9.20122356,43.5373853 7.14951143,41.4590588 C5.09779929,39.3807323 5.09779929,36.0112122 7.14951143,33.9328856 C9.20122356,31.8545591 12.5277651,31.8543865 14.5796875,33.9325 C16.6245162,36.0140105 16.6245162,39.3779339 14.5796875,41.4594444" id="Shape" fill="#CD4739"></path>
            </g>
            <text id="Contentful’s-content" fill="#000000" font-family="AvenirNext-DemiBold, Avenir Next" font-size="14" font-weight="500">
                <tspan x="65.636" y="14">Contentful’s</tspan>
                <tspan x="35.193" y="33">content infrastructure</tspan>
            </text>
        </g>
        <rect id="Rectangle-path" stroke="#E4E4E4" fill-opacity="0.1" fill="#C5C5C5" fill-rule="nonzero" stroke-dasharray="4,4,4,4" x="18" y="62" width="137" height="127"></rect>
        <g id="App" transform="translate(29.000000, 74.000000)">
            <path d="M109.25,91 L4.75,91 C2.1268125,91 0,88.7975541 0,86.0810811 L0,4.91891892 C0,2.20244595 2.1268125,0 4.75,0 L109.25,0 C111.873188,0 114,2.20244595 114,4.91891892 L114,86.0810811 C114,88.7975541 111.873188,91 109.25,91 Z" id="Stroke-500" stroke="#1237AD" stroke-width="1.3"></path>
            <path d="M113.40625,14.5513919 L0,14.5513919 L0,3.92037838 C0,1.75482432 1.69575,0 3.7869375,0 L109.619312,0 C111.7105,0 113.40625,1.75482432 113.40625,3.92037838 L113.40625,14.5513919 Z" id="Fill-511"></path>
            <path d="M0,14.7567568 L114,14.7567568" id="Stroke-512" stroke="#1237AD" stroke-width="1.3"></path>
            <path d="M10.6875,6.76351351 C10.6875,7.78295946 9.8906875,8.60810811 8.90625,8.60810811 C7.9218125,8.60810811 7.125,7.78295946 7.125,6.76351351 C7.125,5.74406757 7.9218125,4.91891892 8.90625,4.91891892 C9.8906875,4.91891892 10.6875,5.74406757 10.6875,6.76351351" id="Fill-513" fill="#1237AD"></path>
            <path d="M17.21875,8.60810811 C16.2343125,8.60810811 15.4375,7.78295946 15.4375,6.76351351 C15.4375,5.74406757 16.2343125,4.91891892 17.21875,4.91891892 C18.2031875,4.91891892 19,5.74406757 19,6.76351351 C19,7.78295946 18.2031875,8.60810811 17.21875,8.60810811 Z" id="Fill-514" fill="#1237AD"></path>
            <path d="M27.3125,6.76351351 C27.3125,7.78295946 26.5156875,8.60810811 25.53125,8.60810811 C24.5468125,8.60810811 23.75,7.78295946 23.75,6.76351351 C23.75,5.74406757 24.5468125,4.91891892 25.53125,4.91891892 C26.5156875,4.91891892 27.3125,5.74406757 27.3125,6.76351351" id="Fill-515" fill="#1237AD"></path>
            <polygon id="Fill-510" fill="#00B7FF" points="13.0625 67.6351351 100.9375 67.6351351 100.9375 36.8918919 13.0625 36.8918919"></polygon>
            <g id="Text" transform="translate(13.062500, 72.554054)">
                <path d="M0,0 L40.375,0" id="Stroke-501" stroke="#98CEFF" stroke-width="2"></path>
                <path d="M0,9.83783784 L67.6875,9.83783784" id="Stroke-502" stroke="#524472" stroke-width="1.367" stroke-linecap="round" stroke-linejoin="round"></path>
                <path d="M0,6.14864865 L67.6875,6.14864865" id="Stroke-504" stroke="#524472" stroke-width="1.367" stroke-linecap="round" stroke-linejoin="round"></path>
            </g>
            <g id="TEA-Logo" transform="translate(11.875000, 19.675676)">
                <g id="logo-the-example-app">
                    <polygon id="Shape" fill="#D9453F" fill-rule="nonzero" points="1.15760392 12.0193596 1.15760392 9.78774396 8.64344262 9.78774396 8.64344262 12.0193596"></polygon>
                    <ellipse id="Oval" fill="#F5A623" fill-rule="nonzero" cx="2.87085773" cy="4.88447581" rx="2.87085773" ry="2.92310217"></ellipse>
                    <polygon id="Shape" fill="#3C80CF" fill-rule="nonzero" points="10.8043033 9.06482622 5.86519321 0.515538163 10.8043033 0.515538163"></polygon>
                    <path d="M16.5453542,9.97060187 C16.5453542,9.80545818 16.4946098,9.66360611 16.3931195,9.54504141 C16.2916291,9.4264767 16.1393959,9.36719524 15.9364152,9.36719524 C15.8369961,9.36719524 15.7458633,9.3830742 15.6630141,9.41483261 C15.5801648,9.44659101 15.5076728,9.48999351 15.4455359,9.54504141 C15.3833989,9.6000893 15.3336901,9.66466375 15.296408,9.73876669 C15.2591258,9.81286963 15.2384138,9.89014725 15.2342713,9.97060187 L16.5453542,9.97060187 Z M17.4836173,10.3707557 L17.4836173,10.4977887 C17.4836173,10.5401333 17.4815461,10.58036 17.4774036,10.6184701 L15.2342713,10.6184701 C15.2425563,10.7073936 15.2684463,10.787847 15.3119421,10.8598327 C15.355438,10.9318184 15.4113604,10.9942757 15.479711,11.0472063 C15.5480617,11.100137 15.6246961,11.1414223 15.7096166,11.1710635 C15.794537,11.2007047 15.882563,11.215525 15.9736972,11.215525 C16.1352533,11.215525 16.2719525,11.1848257 16.383799,11.1234261 C16.4956455,11.0620266 16.5867783,10.9826317 16.6572001,10.8852393 L17.3655577,11.342558 C17.2205715,11.5585152 17.0289855,11.724715 16.7907939,11.8411624 C16.5526023,11.9576099 16.2760971,12.0158328 15.9612699,12.0158328 C15.729292,12.0158328 15.5097448,11.9787819 15.3026216,11.9046789 C15.0954985,11.830576 14.9142685,11.722599 14.7589261,11.5807448 C14.6035838,11.4388906 14.481383,11.264222 14.39232,11.0567338 C14.3032571,10.8492456 14.2587263,10.6121197 14.2587263,10.3453492 C14.2587263,10.0870475 14.3022215,9.85309742 14.3892132,9.64349196 C14.4762049,9.4338865 14.5942633,9.25604212 14.743392,9.10995346 C14.8925206,8.96386481 15.0685727,8.85059487 15.2715533,8.77014025 C15.474534,8.68968563 15.6940812,8.64945893 15.9302016,8.64945893 C16.158037,8.64945893 16.3672282,8.68862704 16.5577815,8.76696443 C16.7483348,8.84530182 16.9119596,8.95857176 17.0486609,9.10677764 C17.1853621,9.25498352 17.292029,9.4349451 17.3686645,9.64666779 C17.4453001,9.85839047 17.4836173,10.0997507 17.4836173,10.3707557 Z M20.0933557,11.9142064 L19.4284937,10.9424041 L18.7449908,11.9142064 L17.5643949,11.9142064 L18.8009138,10.2564261 L17.6824545,8.75108531 L18.8692641,8.75108531 L19.4471347,9.5958546 L20.031219,8.75108531 L21.1807466,8.75108531 L20.068501,10.2564261 L21.2925926,11.9142064 L20.0933557,11.9142064 Z M23.4984429,10.5358986 L23.3679559,10.5358986 C23.2561095,10.5358986 23.143229,10.5411916 23.0293113,10.5517777 C22.9153936,10.5623639 22.8139048,10.5824772 22.7248418,10.6121184 C22.6357789,10.6417596 22.5622513,10.6851621 22.5042568,10.7423272 C22.4462623,10.7994923 22.4172655,10.8746528 22.4172655,10.9678107 C22.4172655,11.0270931 22.4307283,11.0779058 22.4576543,11.1202503 C22.4845804,11.1625948 22.5187552,11.19647 22.5601798,11.2218767 C22.6016044,11.2472834 22.649242,11.2652796 22.703094,11.2758657 C22.756946,11.2864518 22.808726,11.2917448 22.8584356,11.2917448 C23.0655587,11.2917448 23.2240055,11.233522 23.3337808,11.1170745 C23.4435561,11.000627 23.4984429,10.842896 23.4984429,10.6438766 L23.4984429,10.5358986 Z M21.6281304,9.18299742 C21.8103987,9.00515037 22.0226967,8.87176708 22.2650308,8.78284355 C22.5073649,8.69392002 22.7548733,8.64945893 23.0075635,8.64945893 C23.2685386,8.64945893 23.4891215,8.68227545 23.6693186,8.74790948 C23.8495157,8.81354352 23.9955353,8.91516888 24.1073818,9.05278862 C24.2192283,9.19040837 24.3010407,9.36401837 24.3528215,9.57362383 C24.4046023,9.78322928 24.4304923,10.0319997 24.4304923,10.3199426 L24.4304923,11.9142064 L23.4984429,11.9142064 L23.4984429,11.577569 L23.4798019,11.577569 C23.4010951,11.7088371 23.2820011,11.8104624 23.1225163,11.8824482 C22.9630315,11.9544339 22.7900862,11.9904262 22.6036754,11.9904262 C22.4794015,11.9904262 22.3509871,11.9734886 22.2184283,11.939613 C22.0858695,11.9057374 21.9647043,11.8506903 21.8549291,11.7744701 C21.7451538,11.69825 21.6550566,11.5966246 21.5846347,11.469591 C21.5142129,11.3425574 21.4790025,11.1858849 21.4790025,10.999569 C21.4790025,10.7709085 21.5401029,10.5867125 21.6623055,10.4469755 C21.7845082,10.3072386 21.9419194,10.1992616 22.1345439,10.1230414 C22.3271684,10.0468213 22.5415376,9.9960086 22.777658,9.97060187 C23.0137783,9.94519515 23.2436816,9.93249198 23.4673745,9.93249198 L23.4673745,9.88167879 C23.4673745,9.725004 23.4135233,9.60961687 23.3058193,9.53551393 C23.1981153,9.46141099 23.0655585,9.42436008 22.9081449,9.42436008 C22.7631587,9.42436008 22.6233527,9.45611801 22.4887227,9.51963481 C22.3540926,9.58315162 22.239141,9.65937064 22.1438644,9.74829417 L21.6281304,9.18299742 Z M29.1404487,11.9142064 L29.1404487,10.1865579 C29.1404487,10.0976344 29.1342351,10.011888 29.1218077,9.92931616 C29.1093803,9.84674431 29.0865971,9.77581827 29.0534574,9.71653592 C29.0203177,9.65725357 28.9757869,9.60961668 28.9198636,9.57362383 C28.8639404,9.53763097 28.7904128,9.51963481 28.6992786,9.51963481 C28.6122869,9.51963481 28.5366881,9.53868957 28.4724799,9.57679965 C28.4082718,9.61490973 28.3544205,9.66572242 28.3109247,9.72923922 C28.2674288,9.79275603 28.2353252,9.86579926 28.2146129,9.9483711 C28.1939006,10.030943 28.1835446,10.1166894 28.1835446,10.2056129 L28.1835446,11.9142064 L27.1645039,11.9142064 L27.1645039,10.1103381 C27.1645039,9.92825664 27.1292935,9.78428737 27.0588716,9.67842603 C26.9884498,9.57256469 26.876605,9.51963481 26.7233338,9.51963481 C26.5617778,9.51963481 26.4364702,9.58526786 26.3474073,9.71653592 C26.2583443,9.84780399 26.2138135,10.0087108 26.2138135,10.1992612 L26.2138135,11.9142064 L25.1885591,11.9142064 L25.1885591,8.75108531 L26.1765315,8.75108531 L26.1765315,9.18934907 L26.1889588,9.18934907 C26.226241,9.12159781 26.272843,9.05596477 26.3287663,8.99244796 C26.3846895,8.92893116 26.4520035,8.87282549 26.5307103,8.82412927 C26.6094171,8.77543305 26.6974431,8.73626494 26.794791,8.70662377 C26.8921388,8.67698259 26.9988057,8.66216222 27.1147946,8.66216222 C27.3384876,8.66216222 27.5280024,8.70874052 27.6833448,8.8018985 C27.8386871,8.89505648 27.9598523,9.02843977 28.046844,9.20205237 C28.1504056,9.03690868 28.2829624,8.90564258 28.4445184,8.80825015 C28.6060745,8.71085771 28.8028385,8.66216222 29.0348164,8.66216222 C29.246082,8.66216222 29.4231696,8.70133033 29.5660846,8.77966773 C29.7089995,8.85800512 29.8239511,8.95963048 29.9109429,9.08454687 C29.9979346,9.20946325 30.0611062,9.34919813 30.1004596,9.50375569 C30.139813,9.65831325 30.1594894,9.8096927 30.1594894,9.95789858 L30.1594894,11.9142064 L29.1404487,11.9142064 Z M34.3723527,10.3199426 C34.3723527,10.5401342 34.3392135,10.7518537 34.2729341,10.9551074 C34.2066547,11.1583612 34.1103439,11.3372642 33.9839988,11.4918218 C33.8576537,11.6463793 33.7033493,11.7702352 33.5210809,11.8633932 C33.3388126,11.9565512 33.1316926,12.0031295 32.8997147,12.0031295 C32.7091614,12.0031295 32.528967,11.9639614 32.359126,11.885624 C32.189285,11.8072866 32.0567282,11.7003682 31.9614516,11.5648657 L31.9490243,11.5648657 L31.9490243,13.4386021 L30.9299836,13.4386021 L30.9299836,8.75108531 L31.899315,8.75108531 L31.899315,9.13853588 L31.9179559,9.13853588 C32.0132326,9.01150227 32.1447538,8.90034953 32.3125235,8.80507432 C32.4802933,8.70979911 32.6780929,8.66216222 32.9059283,8.66216222 C33.1296213,8.66216222 33.3325989,8.70662332 33.5148673,8.79554685 C33.6971356,8.88447038 33.85144,9.0051505 33.9777852,9.15759083 C34.1041303,9.31003116 34.2014767,9.48681695 34.2698273,9.6879535 C34.3381779,9.88909005 34.3723527,10.099751 34.3723527,10.3199426 Z M33.3843804,10.3199426 C33.3843804,10.2183157 33.3688464,10.1188075 33.3377779,10.0214151 C33.3067094,9.92402263 33.261143,9.83827623 33.2010773,9.76417329 C33.1410116,9.69007035 33.0654128,9.62973029 32.9742786,9.5831513 C32.8831444,9.53657231 32.7775132,9.51328316 32.6573818,9.51328316 C32.5413929,9.51328316 32.4378329,9.53657231 32.3466987,9.5831513 C32.2555645,9.62973029 32.1778945,9.69112895 32.1136863,9.76734911 C32.0494782,9.84356928 31.9997693,9.93037428 31.9645584,10.0277667 C31.9293475,10.1251591 31.9117423,10.2246673 31.9117423,10.3262942 C31.9117423,10.4279211 31.9293475,10.5274293 31.9645584,10.6248217 C31.9997693,10.7222141 32.0494782,10.8090191 32.1136863,10.8852393 C32.1778945,10.9614595 32.2555645,11.0228581 32.3466987,11.0694371 C32.4378329,11.1160161 32.5413929,11.1393053 32.6573818,11.1393053 C32.7775132,11.1393053 32.8831444,11.1160161 32.9742786,11.0694371 C33.0654128,11.0228581 33.1410116,10.9614595 33.2010773,10.8852393 C33.261143,10.8090191 33.3067094,10.7211555 33.3377779,10.6216459 C33.3688464,10.5221362 33.3843804,10.4215694 33.3843804,10.3199426 Z M35.0247873,11.9142064 L35.0247873,7.11235992 L36.0562554,7.11235992 L36.0562554,11.9142064 L35.0247873,11.9142064 Z M38.9953179,9.97060187 C38.9953179,9.80545818 38.9445735,9.66360611 38.8430831,9.54504141 C38.7415928,9.4264767 38.5893596,9.36719524 38.3863789,9.36719524 C38.2869598,9.36719524 38.195827,9.3830742 38.1129777,9.41483261 C38.0301285,9.44659101 37.9576365,9.48999351 37.8954995,9.54504141 C37.8333626,9.6000893 37.7836538,9.66466375 37.7463716,9.73876669 C37.7090895,9.81286963 37.6883775,9.89014725 37.684235,9.97060187 L38.9953179,9.97060187 Z M39.9335809,10.3707557 L39.9335809,10.4977887 C39.9335809,10.5401333 39.9315097,10.58036 39.9273673,10.6184701 L37.684235,10.6184701 C37.6925199,10.7073936 37.7184099,10.787847 37.7619058,10.8598327 C37.8054017,10.9318184 37.8613241,10.9942757 37.9296747,11.0472063 C37.9980253,11.100137 38.0746597,11.1414223 38.1595802,11.1710635 C38.2445007,11.2007047 38.3325267,11.215525 38.4236609,11.215525 C38.5852169,11.215525 38.7219161,11.1848257 38.8337626,11.1234261 C38.9456091,11.0620266 39.0367419,10.9826317 39.1071638,10.8852393 L39.8155213,11.342558 C39.6705352,11.5585152 39.4789491,11.724715 39.2407575,11.8411624 C39.0025659,11.9576099 38.7260607,12.0158328 38.4112336,12.0158328 C38.1792557,12.0158328 37.9597084,11.9787819 37.7525853,11.9046789 C37.5454622,11.830576 37.3642322,11.722599 37.2088898,11.5807448 C37.0535475,11.4388906 36.9313466,11.264222 36.8422837,11.0567338 C36.7532208,10.8492456 36.70869,10.6121197 36.70869,10.3453492 C36.70869,10.0870475 36.7521852,9.85309742 36.8391769,9.64349196 C36.9261686,9.4338865 37.044227,9.25604212 37.1933557,9.10995346 C37.3424843,8.96386481 37.5185363,8.85059487 37.721517,8.77014025 C37.9244977,8.68968563 38.1440449,8.64945893 38.3801652,8.64945893 C38.6080007,8.64945893 38.8171919,8.68862704 39.0077452,8.76696443 C39.1982985,8.84530182 39.3619233,8.95857176 39.4986245,9.10677764 C39.6353258,9.25498352 39.7419926,9.4349451 39.8186282,9.64666779 C39.8952637,9.85839047 39.9335809,10.0997507 39.9335809,10.3707557 Z M43.9476071,10.5358986 L43.8171202,10.5358986 C43.7052737,10.5358986 43.5923933,10.5411916 43.4784756,10.5517777 C43.3645578,10.5623639 43.263069,10.5824772 43.1740061,10.6121184 C43.0849431,10.6417596 43.0114155,10.6851621 42.9534211,10.7423272 C42.8954266,10.7994923 42.8664298,10.8746528 42.8664298,10.9678107 C42.8664298,11.0270931 42.8798926,11.0779058 42.9068186,11.1202503 C42.9337446,11.1625948 42.9679194,11.19647 43.009344,11.2218767 C43.0507686,11.2472834 43.0984063,11.2652796 43.1522583,11.2758657 C43.2061103,11.2864518 43.2578903,11.2917448 43.3075998,11.2917448 C43.514723,11.2917448 43.6731698,11.233522 43.782945,11.1170745 C43.8927203,11.000627 43.9476071,10.842896 43.9476071,10.6438766 L43.9476071,10.5358986 Z M42.0772946,9.18299742 C42.259563,9.00515037 42.471861,8.87176708 42.714195,8.78284355 C42.9565291,8.69392002 43.2040375,8.64945893 43.4567277,8.64945893 C43.7177029,8.64945893 43.9382857,8.68227545 44.1184828,8.74790948 C44.29868,8.81354352 44.4446996,8.91516888 44.5565461,9.05278862 C44.6683925,9.19040837 44.750205,9.36401837 44.8019857,9.57362383 C44.8537665,9.78322928 44.8796565,10.0319997 44.8796565,10.3199426 L44.8796565,11.9142064 L43.9476071,11.9142064 L43.9476071,11.577569 L43.9289661,11.577569 C43.8502593,11.7088371 43.7311653,11.8104624 43.5716805,11.8824482 C43.4121957,11.9544339 43.2392505,11.9904262 43.0528397,11.9904262 C42.9285658,11.9904262 42.8001514,11.9734886 42.6675926,11.939613 C42.5350338,11.9057374 42.4138686,11.8506903 42.3040933,11.7744701 C42.194318,11.69825 42.1042208,11.5966246 42.033799,11.469591 C41.9633771,11.3425574 41.9281667,11.1858849 41.9281667,10.999569 C41.9281667,10.7709085 41.9892671,10.5867125 42.1114698,10.4469755 C42.2336724,10.3072386 42.3910836,10.1992616 42.5837081,10.1230414 C42.7763326,10.0468213 42.9907019,9.9960086 43.2268222,9.97060187 C43.4629426,9.94519515 43.6928458,9.93249198 43.9165388,9.93249198 L43.9165388,9.88167879 C43.9165388,9.725004 43.8626876,9.60961687 43.7549836,9.53551393 C43.6472795,9.46141099 43.5147227,9.42436008 43.3573091,9.42436008 C43.212323,9.42436008 43.0725169,9.45611801 42.9378869,9.51963481 C42.8032569,9.58315162 42.6883053,9.65937064 42.5930286,9.74829417 L42.0772946,9.18299742 Z M49.0800926,10.3199426 C49.0800926,10.5401342 49.0469534,10.7518537 48.980674,10.9551074 C48.9143946,11.1583612 48.8180838,11.3372642 48.6917386,11.4918218 C48.5653935,11.6463793 48.4110891,11.7702352 48.2288208,11.8633932 C48.0465524,11.9565512 47.8394324,12.0031295 47.6074545,12.0031295 C47.4169012,12.0031295 47.2367068,11.9639614 47.0668658,11.885624 C46.8970249,11.8072866 46.764468,11.7003682 46.6691914,11.5648657 L46.6567641,11.5648657 L46.6567641,13.4386021 L45.6377234,13.4386021 L45.6377234,8.75108531 L46.6070548,8.75108531 L46.6070548,9.13853588 L46.6256958,9.13853588 C46.7209724,9.01150227 46.8524936,8.90034953 47.0202634,8.80507432 C47.1880331,8.70979911 47.3858327,8.66216222 47.6136682,8.66216222 C47.8373611,8.66216222 48.0403388,8.70662332 48.2226071,8.79554685 C48.4048755,8.88447038 48.5591799,9.0051505 48.685525,9.15759083 C48.8118701,9.31003116 48.9092165,9.48681695 48.9775671,9.6879535 C49.0459178,9.88909005 49.0800926,10.099751 49.0800926,10.3199426 Z M48.0921202,10.3199426 C48.0921202,10.2183157 48.0765862,10.1188075 48.0455177,10.0214151 C48.0144492,9.92402263 47.9688828,9.83827623 47.9088171,9.76417329 C47.8487514,9.69007035 47.7731526,9.62973029 47.6820184,9.5831513 C47.5908843,9.53657231 47.4852531,9.51328316 47.3651216,9.51328316 C47.2491327,9.51328316 47.1455727,9.53657231 47.0544385,9.5831513 C46.9633043,9.62973029 46.8856343,9.69112895 46.8214261,9.76734911 C46.757218,9.84356928 46.7075092,9.93037428 46.6722982,10.0277667 C46.6370873,10.1251591 46.6194821,10.2246673 46.6194821,10.3262942 C46.6194821,10.4279211 46.6370873,10.5274293 46.6722982,10.6248217 C46.7075092,10.7222141 46.757218,10.8090191 46.8214261,10.8852393 C46.8856343,10.9614595 46.9633043,11.0228581 47.0544385,11.0694371 C47.1455727,11.1160161 47.2491327,11.1393053 47.3651216,11.1393053 C47.4852531,11.1393053 47.5908843,11.1160161 47.6820184,11.0694371 C47.7731526,11.0228581 47.8487514,10.9614595 47.9088171,10.8852393 C47.9688828,10.8090191 48.0144492,10.7211555 48.0455177,10.6216459 C48.0765862,10.5221362 48.0921202,10.4215694 48.0921202,10.3199426 Z M53.162469,10.3199426 C53.162469,10.5401342 53.1293298,10.7518537 53.0630504,10.9551074 C52.996771,11.1583612 52.9004602,11.3372642 52.7741151,11.4918218 C52.64777,11.6463793 52.4934656,11.7702352 52.3111972,11.8633932 C52.1289289,11.9565512 51.9218088,12.0031295 51.6898309,12.0031295 C51.4992777,12.0031295 51.3190832,11.9639614 51.1492423,11.885624 C50.9794013,11.8072866 50.8468445,11.7003682 50.7515679,11.5648657 L50.7391405,11.5648657 L50.7391405,13.4386021 L49.7200998,13.4386021 L49.7200998,8.75108531 L50.6894312,8.75108531 L50.6894312,9.13853588 L50.7080722,9.13853588 C50.8033489,9.01150227 50.9348701,8.90034953 51.1026398,8.80507432 C51.2704095,8.70979911 51.4682092,8.66216222 51.6960446,8.66216222 C51.9197376,8.66216222 52.1227152,8.70662332 52.3049836,8.79554685 C52.4872519,8.88447038 52.6415563,9.0051505 52.7679014,9.15759083 C52.8942465,9.31003116 52.991593,9.48681695 53.0599436,9.6879535 C53.1282942,9.88909005 53.162469,10.099751 53.162469,10.3199426 Z M52.1744966,10.3199426 C52.1744966,10.2183157 52.1589626,10.1188075 52.1278942,10.0214151 C52.0968257,9.92402263 52.0512593,9.83827623 51.9911936,9.76417329 C51.9311279,9.69007035 51.8555291,9.62973029 51.7643949,9.5831513 C51.6732607,9.53657231 51.5676295,9.51328316 51.4474981,9.51328316 C51.3315091,9.51328316 51.2279491,9.53657231 51.136815,9.5831513 C51.0456808,9.62973029 50.9680108,9.69112895 50.9038026,9.76734911 C50.8395944,9.84356928 50.7898856,9.93037428 50.7546747,10.0277667 C50.7194638,10.1251591 50.7018586,10.2246673 50.7018586,10.3262942 C50.7018586,10.4279211 50.7194638,10.5274293 50.7546747,10.6248217 C50.7898856,10.7222141 50.8395944,10.8090191 50.9038026,10.8852393 C50.9680108,10.9614595 51.0456808,11.0228581 51.136815,11.0694371 C51.2279491,11.1160161 51.3315091,11.1393053 51.4474981,11.1393053 C51.5676295,11.1393053 51.6732607,11.1160161 51.7643949,11.0694371 C51.8555291,11.0228581 51.9311279,10.9614595 51.9911936,10.8852393 C52.0512593,10.8090191 52.0968257,10.7211555 52.1278942,10.6216459 C52.1589626,10.5221362 52.1744966,10.4215694 52.1744966,10.3199426 Z" id="example-app" fill="#000000"></path>
                    <path d="M16.5080722,4.95230116 L14.762033,4.95230116 L14.7931013,4.76810335 C14.8925204,4.72999327 14.9909024,4.69929394 15.0882503,4.67600444 C15.1855981,4.65271495 15.292265,4.63260159 15.4082539,4.61566378 L16.1911754,0.83643275 L15.240485,0.83643275 L14.724751,1.74471853 L14.5631958,1.74471853 C14.5673382,1.66002945 14.5766586,1.56369708 14.5911573,1.45571851 C14.6056559,1.34773994 14.6211899,1.23764579 14.6377597,1.12543277 C14.6543296,1.01321975 14.6719348,0.903125602 14.6905759,0.795147033 C14.7092169,0.687168463 14.7288933,0.590836087 14.7496057,0.506147013 L18.3535301,0.506147013 C18.3369602,0.590836087 18.3162482,0.686109866 18.2913934,0.791971208 C18.2665387,0.897832551 18.2396131,1.0068681 18.2106158,1.11908112 C18.1816186,1.23129414 18.1515862,1.34138829 18.1205177,1.44936686 C18.0894492,1.55734543 18.0594168,1.655795 18.0304196,1.74471853 L17.8688644,1.74471853 L17.7383775,0.83643275 L16.787687,0.83643275 L16.0047655,4.61566378 C16.1041846,4.63683605 16.1984242,4.658008 16.2874872,4.67918027 C16.3765501,4.70035253 16.4604337,4.72999327 16.5391405,4.76810335 L16.5080722,4.95230116 Z M18.446735,0.563311852 L18.446735,0.41722393 C18.508872,0.391817208 18.5782572,0.365352269 18.6548927,0.33782832 C18.7315283,0.310304371 18.8112695,0.28489803 18.8941187,0.261608534 C18.976968,0.238319039 19.0577448,0.219264283 19.1364516,0.204443695 C19.2151584,0.189623107 19.2897216,0.180095729 19.3601434,0.175861276 L19.4906304,0.233026115 L18.9314007,2.90071861 L18.962469,2.90071861 C19.0411758,2.73134046 19.1302374,2.57360942 19.2296565,2.42752077 C19.3290756,2.28143212 19.4336712,2.15440041 19.5434465,2.04642184 C19.6532218,1.93844327 19.7681734,1.85375547 19.8883048,1.79235589 C20.0084362,1.73095631 20.130637,1.70025698 20.2549109,1.70025698 C20.4454642,1.70025698 20.583199,1.75636265 20.6681195,1.86857568 C20.7530399,1.9807887 20.7954995,2.11946498 20.7954995,2.28460867 C20.7954995,2.39893892 20.7851435,2.52173624 20.7644312,2.6530043 C20.7437189,2.78427237 20.7188645,2.91130407 20.6898673,3.03410323 L20.3356885,4.59660883 L20.7954995,4.59660883 L20.7954995,4.7617517 C20.7126503,4.82950296 20.6132327,4.88455003 20.4972437,4.92689457 C20.3812548,4.96923911 20.2652676,4.99041106 20.1492786,4.99041106 C20.0291472,4.99041106 19.9462992,4.96500472 19.9007321,4.91419127 C19.855165,4.86337783 19.8323818,4.80833075 19.8323818,4.7490484 C19.8323818,4.67282824 19.8427378,4.58708184 19.8634501,4.49180663 C19.8841624,4.39653142 19.9048744,4.30019904 19.9255868,4.20280661 L20.1492786,3.14208126 C20.1782759,3.01081319 20.2041659,2.88801588 20.2269494,2.77368563 C20.2497329,2.65935538 20.2611245,2.54926124 20.2611245,2.44339989 C20.2611245,2.34600746 20.2404125,2.26343685 20.1989879,2.19568559 C20.1575633,2.12793433 20.1016409,2.09405921 20.031219,2.09405921 C19.9028027,2.09405921 19.7785307,2.1406375 19.6583993,2.23379548 C19.5382678,2.32695346 19.426423,2.4391648 19.3228615,2.57043287 C19.2192999,2.70170093 19.1281671,2.83826002 19.0494603,2.98011422 C18.9707535,3.12196841 18.9106887,3.23947274 18.8692641,3.33263072 L18.53994,4.95230116 L18.0179923,4.95230116 L18.8692641,0.620476691 L18.446735,0.563311852 Z M23.6165025,4.38700442 C23.5792203,4.46745904 23.5253691,4.54579526 23.4549472,4.62201543 C23.3845254,4.69823559 23.3016773,4.76704443 23.2064007,4.82844401 C23.1111241,4.88984359 23.0034217,4.93853908 22.8832902,4.97453193 C22.7631588,5.01052479 22.6347444,5.02852095 22.4980432,5.02852095 C22.1542188,5.02852095 21.8901407,4.92795418 21.7058011,4.72681763 C21.5214616,4.52568108 21.4292932,4.24726993 21.4292932,3.89157582 C21.4292932,3.5909296 21.4707172,3.30722546 21.5535664,3.04045488 C21.6364157,2.7736843 21.7524029,2.54079284 21.9015315,2.34177351 C22.0506602,2.14275419 22.2318902,1.98608175 22.445227,1.8717515 C22.6585638,1.75742125 22.8957163,1.70025698 23.1566914,1.70025698 C23.3555296,1.70025698 23.5264036,1.75212826 23.6693186,1.85587238 C23.8122335,1.9596165 23.88369,2.11311314 23.88369,2.31636692 C23.88369,2.61701313 23.7376703,2.85413898 23.4456267,3.02775158 C23.1535831,3.20136418 22.6823851,3.31357552 22.0320184,3.36438897 C22.0154486,3.43637468 22.004057,3.50624212 21.9978433,3.57399338 C21.9916296,3.64174464 21.9885228,3.70737768 21.9885228,3.77089449 C21.9885228,4.02496171 22.0516944,4.23244683 22.1780395,4.39335607 C22.3043846,4.55426531 22.489757,4.63471872 22.7341623,4.63471872 C22.8128691,4.63471872 22.8905391,4.62201555 22.9671747,4.59660883 C23.0438103,4.57120211 23.1163023,4.53944418 23.1846529,4.5013341 C23.2530035,4.46322402 23.3151395,4.42299731 23.3710628,4.38065277 C23.426986,4.33830824 23.4756592,4.30019872 23.5170838,4.26632309 L23.6165025,4.38700442 Z M22.9640679,1.97337788 C22.785942,1.97761234 22.620246,2.06335874 22.4669748,2.23061966 C22.3137037,2.39788058 22.1832181,2.68476051 22.0755141,3.09126807 C22.477333,3.07856471 22.7900842,3.00763867 23.0137772,2.87848783 C23.2374701,2.749337 23.349315,2.57043401 23.349315,2.34177351 C23.349315,2.25284998 23.323425,2.17027938 23.2716442,2.09405921 C23.2198634,2.01783904 23.117339,1.97761234 22.9640679,1.97337788 Z M27.9101434,3.14208126 C27.9391407,3.01081319 27.9650307,2.88907448 27.9878142,2.77686145 C28.0105978,2.66464843 28.0219894,2.55349569 28.0219894,2.44339989 C28.0219894,2.34600746 28.0002418,2.26343685 27.9567459,2.19568559 C27.9132501,2.12793433 27.8438648,2.09405921 27.7485882,2.09405921 C27.6367417,2.09405921 27.5228257,2.1406375 27.4068368,2.23379548 C27.2908478,2.32695346 27.1831454,2.4391648 27.0837263,2.57043287 C26.9843072,2.70170093 26.89421,2.83826002 26.813432,2.98011422 C26.7326539,3.12196841 26.6715535,3.23947274 26.6301289,3.33263072 L26.3008048,4.95230116 L25.7788571,4.95230116 L26.3256594,2.1448724 L25.946626,2.08770756 L25.9590533,1.92891634 C26.0170478,1.89927517 26.0822906,1.87069303 26.1547837,1.84316908 C26.2272768,1.81564513 26.30184,1.79129739 26.3784756,1.77012512 C26.4551111,1.74895285 26.5296743,1.73201529 26.6021674,1.71931193 C26.6746605,1.70660857 26.7419745,1.70025698 26.8041115,1.70025698 L26.9283847,1.77647677 L26.6922655,2.90071861 L26.7233338,2.90071861 C26.8020406,2.73134046 26.8921378,2.57360942 26.9936282,2.42752077 C27.0951185,2.28143212 27.2028209,2.15440041 27.3167386,2.04642184 C27.4306564,1.93844327 27.5497504,1.85375547 27.6740243,1.79235589 C27.7982981,1.73095631 27.9246413,1.70025698 28.0530577,1.70025698 C28.2270411,1.70025698 28.3544199,1.75636265 28.4351979,1.86857568 C28.515976,1.9807887 28.5563644,2.12158217 28.5563644,2.29096032 C28.5563644,2.3841183 28.5460084,2.50056403 28.5252961,2.64030101 C28.5045837,2.78003798 28.4797293,2.91130407 28.4507321,3.03410323 L28.0965533,4.59660883 L28.5563644,4.59660883 L28.5563644,4.7617517 C28.4735151,4.82950296 28.3730619,4.88455003 28.2550017,4.92689457 C28.1369415,4.96923911 28.0219899,4.99041106 27.9101434,4.99041106 C27.790012,4.99041106 27.707164,4.96500472 27.6615969,4.91419127 C27.6160298,4.86337783 27.5932466,4.80833075 27.5932466,4.7490484 C27.5932466,4.66859378 27.6036026,4.58073019 27.624315,4.48545498 C27.6450273,4.39017977 27.6657393,4.29384739 27.6864516,4.19645496 L27.9101434,3.14208126 Z M29.1963716,3.77089449 C29.1963716,3.54646844 29.2305464,3.31251839 29.2988971,3.0690373 C29.3672477,2.82555621 29.4718433,2.60219213 29.612687,2.39893835 C29.7535308,2.19568457 29.9295828,2.02842616 30.1408484,1.8971581 C30.352114,1.76589003 30.5985868,1.70025698 30.8802743,1.70025698 C31.2033863,1.70025698 31.4467524,1.80188235 31.6103796,2.00513613 C31.7740069,2.2083899 31.8558193,2.50903161 31.8558193,2.90707025 C31.8558193,3.1865442 31.8164665,3.45436938 31.7377597,3.71055383 C31.6590529,3.96673827 31.5492793,4.19221955 31.4084356,4.38700442 C31.2675919,4.58178929 31.0977534,4.73740313 30.8989152,4.85385061 C30.700077,4.97029808 30.4805298,5.02852095 30.240267,5.02852095 C29.9212974,5.02852095 29.6675753,4.92371979 29.4790933,4.71411433 C29.2906113,4.50450888 29.1963716,4.19010541 29.1963716,3.77089449 Z M30.756001,1.97337788 C30.5530203,1.97761234 30.3873243,2.04536258 30.258908,2.17663064 C30.1304916,2.30789871 30.0290028,2.47092273 29.9544385,2.6657076 C29.8798742,2.86049247 29.8280942,3.07009478 29.7990969,3.29452083 C29.7700997,3.51894688 29.7556013,3.7243148 29.7556013,3.91063076 C29.7556013,4.16046353 29.8094525,4.36371426 29.9171565,4.52038905 C30.0248606,4.67706383 30.1698446,4.75540005 30.3521129,4.75540005 C30.4970991,4.75540005 30.6265491,4.69929438 30.7404668,4.58708136 C30.8543846,4.47486834 30.951731,4.32666468 31.032509,4.14246594 C31.113287,3.95826721 31.175423,3.74972349 31.2189189,3.51682854 C31.2624147,3.28393358 31.2841623,3.04892493 31.2841623,2.81179552 C31.2841623,2.56196275 31.2417027,2.36082922 31.1567823,2.20838889 C31.0718618,2.05594855 30.9382694,1.97761234 30.756001,1.97337788 Z M33.2911754,4.63471872 C33.4030219,4.63471872 33.5148667,4.58073025 33.6267132,4.47275168 C33.7385597,4.36477311 33.8441909,4.23456561 33.94361,4.08212528 C34.0430291,3.92968495 34.1320907,3.77089532 34.2107975,3.60575162 C34.2895043,3.44060793 34.3516403,3.30299025 34.3972074,3.19289445 L34.5960446,2.10676251 C34.5339077,2.06441797 34.4769497,2.03583584 34.4251689,2.02101525 C34.3733881,2.00619466 34.2998605,1.99666728 34.2045838,1.99243283 C34.0057456,1.99666728 33.8276224,2.05912454 33.6702088,2.17980647 C33.5127953,2.3004884 33.3802385,2.45504364 33.2725344,2.64347683 C33.1648304,2.83191002 33.083018,3.04257093 33.0270948,3.27546588 C32.9711715,3.50836084 32.9432103,3.73701791 32.9432103,3.96144395 C32.9432103,4.17740109 32.9691003,4.34360091 33.0208811,4.46004838 C33.0726619,4.57649586 33.1627591,4.63471872 33.2911754,4.63471872 Z M34.2729341,3.707378 C34.2190821,3.85981833 34.1507325,4.01437358 34.0678833,4.17104836 C33.985034,4.32772315 33.8907944,4.46957522 33.7851616,4.59660883 C33.6795288,4.72364244 33.5635416,4.827385 33.4371965,4.90783962 C33.3108514,4.98829424 33.1751878,5.02852095 33.0302016,5.02852095 C32.5993855,5.02852095 32.3839807,4.7067073 32.3839807,4.06307033 C32.3839807,3.76242412 32.4254047,3.4713098 32.5082539,3.18971863 C32.5911032,2.90812745 32.7112328,2.65829843 32.8686463,2.44022407 C33.0260599,2.2221497 33.2166103,2.04748111 33.4403033,1.91621304 C33.6639963,1.78494498 33.9187539,1.71931193 34.2045838,1.71931193 C34.3122879,1.71931193 34.3930647,1.72672211 34.4469167,1.7415427 C34.5007687,1.75636329 34.5691183,1.78282823 34.6519676,1.82093831 L34.8880868,0.620476691 L34.4531304,0.563311852 L34.4531304,0.404520632 C34.5152673,0.37911391 34.5836169,0.354766166 34.6581812,0.331476671 C34.7327456,0.308187176 34.8104156,0.287015225 34.8911936,0.267960183 C34.9719716,0.248905142 35.053784,0.230908983 35.1366333,0.213971169 C35.2194825,0.197033354 35.2961169,0.184330183 35.3665388,0.175861276 L35.4970257,0.226674466 L34.6457539,4.60296048 L35.0993513,4.60296048 L35.0993513,4.7617517 C35.016502,4.82950296 34.9170844,4.88455003 34.8010955,4.92689457 C34.6851065,4.96923911 34.5711905,4.99041106 34.459344,4.99041106 C34.3392126,4.99041106 34.2532578,4.96394612 34.201477,4.91101545 C34.1496962,4.85808478 34.1238062,4.80197911 34.1238062,4.74269675 C34.1238062,4.66647659 34.1383046,4.54156208 34.1673019,4.36794948 C34.1962991,4.19433687 34.2397943,3.97414858 34.2977888,3.707378 L34.2729341,3.707378 Z M37.8644312,4.38700442 C37.8271491,4.46745904 37.7732979,4.54579526 37.702876,4.62201543 C37.6324541,4.69823559 37.5496061,4.76704443 37.4543295,4.82844401 C37.3590528,4.88984359 37.2513504,4.93853908 37.131219,4.97453193 C37.0110876,5.01052479 36.8826732,5.02852095 36.7459719,5.02852095 C36.4021475,5.02852095 36.1380695,4.92795418 35.9537299,4.72681763 C35.7693903,4.52568108 35.6772219,4.24726993 35.6772219,3.89157582 C35.6772219,3.5909296 35.7186459,3.30722546 35.8014952,3.04045488 C35.8843444,2.7736843 36.0003317,2.54079284 36.1494603,2.34177351 C36.298589,2.14275419 36.479819,1.98608175 36.6931558,1.8717515 C36.9064926,1.75742125 37.143645,1.70025698 37.4046202,1.70025698 C37.6034584,1.70025698 37.7743324,1.75212826 37.9172474,1.85587238 C38.0601623,1.9596165 38.1316187,2.11311314 38.1316187,2.31636692 C38.1316187,2.61701313 37.9855991,2.85413898 37.6935555,3.02775158 C37.4015119,3.20136418 36.9303138,3.31357552 36.2799472,3.36438897 C36.2633774,3.43637468 36.2519858,3.50624212 36.2457721,3.57399338 C36.2395584,3.64174464 36.2364516,3.70737768 36.2364516,3.77089449 C36.2364516,4.02496171 36.2996232,4.23244683 36.4259683,4.39335607 C36.5523134,4.55426531 36.7376858,4.63471872 36.9820911,4.63471872 C37.0607979,4.63471872 37.1384679,4.62201555 37.2151035,4.59660883 C37.291739,4.57120211 37.364231,4.53944418 37.4325817,4.5013341 C37.5009323,4.46322402 37.5630683,4.42299731 37.6189916,4.38065277 C37.6749148,4.33830824 37.723588,4.30019872 37.7650126,4.26632309 L37.8644312,4.38700442 Z M37.2119966,1.97337788 C37.0338707,1.97761234 36.8681747,2.06335874 36.7149036,2.23061966 C36.5616325,2.39788058 36.4311469,2.68476051 36.3234429,3.09126807 C36.7252617,3.07856471 37.038013,3.00763867 37.2617059,2.87848783 C37.4853989,2.749337 37.5972437,2.57043401 37.5972437,2.34177351 C37.5972437,2.25284998 37.5713537,2.17027938 37.5195729,2.09405921 C37.4677922,2.01783904 37.3652678,1.97761234 37.2119966,1.97337788 Z M38.4298745,4.59025718 C38.4298745,4.46322357 38.4692274,4.36159821 38.5479341,4.28537804 C38.6266409,4.20915787 38.7281297,4.17104836 38.8524036,4.17104836 C38.98082,4.17104836 39.08438,4.20915787 39.1630868,4.28537804 C39.2417935,4.36159821 39.2811463,4.46322357 39.2811463,4.59025718 C39.2811463,4.71305634 39.2417935,4.81256451 39.1630868,4.88878468 C39.08438,4.96500484 38.98082,5.00311435 38.8524036,5.00311435 C38.7281297,5.00311435 38.6266409,4.96500484 38.5479341,4.88878468 C38.4692274,4.81256451 38.4298745,4.71305634 38.4298745,4.59025718 Z M40.7599981,2.1448724 L40.3809647,2.08770756 L40.3809647,1.92891634 C40.509381,1.86963399 40.6533294,1.81670411 40.8128142,1.77012512 C40.972299,1.72354613 41.1141763,1.70025698 41.2384501,1.70025698 L41.3627234,1.77647677 L40.7662118,4.67918027 C40.7040748,4.97982648 40.61812,5.2296555 40.5083448,5.42867482 C40.3985695,5.62769415 40.2846535,5.78860097 40.1665933,5.91140013 C40.0485331,6.03419929 39.9325459,6.12523868 39.8186282,6.18452103 C39.7047105,6.24380338 39.6146133,6.28191289 39.5483338,6.29885071 L39.4799836,6.15911443 C39.5296931,6.13370771 39.5876867,6.09030521 39.6539661,6.02890563 C39.7202455,5.96750605 39.7865239,5.88281825 39.8528033,5.77483968 C39.9190827,5.66686111 39.9843255,5.53241922 40.0485337,5.37150998 C40.1127419,5.21060074 40.1676287,5.02005319 40.2131958,4.79986159 L40.7599981,2.1448724 Z M40.8469894,0.67764153 C40.8469894,0.567545734 40.8801286,0.480740735 40.946408,0.41722393 C41.0126874,0.353707124 41.0996778,0.321949198 41.2073818,0.321949198 C41.3233708,0.321949198 41.4145036,0.353707124 41.480783,0.41722393 C41.5470624,0.480740735 41.5802016,0.567545734 41.5802016,0.67764153 C41.5802016,0.783502872 41.5470624,0.866073481 41.480783,0.925355833 C41.4145036,0.984638184 41.3233708,1.01427892 41.2073818,1.01427892 C41.0996778,1.01427892 41.0126874,0.984638184 40.946408,0.925355833 C40.8801286,0.866073481 40.8469894,0.783502872 40.8469894,0.67764153 Z M43.2330359,4.20280661 C43.2288934,4.10117972 43.2009322,4.01331612 43.1491514,3.93921318 C43.0973707,3.86511024 43.0310922,3.79418421 42.9503142,3.72643295 C42.8695362,3.65868169 42.7835814,3.59093145 42.6924472,3.52318019 C42.601313,3.45542893 42.5153582,3.3802685 42.4345802,3.29769665 C42.3538022,3.21512481 42.2875238,3.11985103 42.235743,3.01187246 C42.1839622,2.90389389 42.1580722,2.77368639 42.1580722,2.62124606 C42.1580722,2.46880573 42.187069,2.33542244 42.2450635,2.22109219 C42.303058,2.10676194 42.3827992,2.01148816 42.4842895,1.93526799 C42.5857799,1.85904782 42.7079807,1.80082496 42.8508956,1.76059765 C42.9938106,1.72037034 43.1501862,1.70025698 43.3200272,1.70025698 C43.4277312,1.70025698 43.5488964,1.70978436 43.6835264,1.7288394 C43.8181565,1.74789445 43.9455353,1.79341414 44.0656667,1.86539985 C44.0656667,1.91197884 44.0573819,1.96596732 44.040812,2.0273669 C44.0242422,2.08876648 44.0024946,2.14804794 43.9755686,2.20521306 C43.9486426,2.26237819 43.9186102,2.31530807 43.8854705,2.36400428 C43.8523308,2.4127005 43.8171204,2.44551702 43.7798382,2.46245484 L43.3200272,1.97337788 C43.2330354,1.97761234 43.1522586,1.98819831 43.0776943,2.00513613 C43.00313,2.02207394 42.9378872,2.04959748 42.8819639,2.08770756 C42.8260407,2.12581764 42.7825455,2.17557173 42.751477,2.23697131 C42.7204085,2.29837089 42.7048745,2.37564851 42.7048745,2.46880649 C42.7048745,2.57890228 42.7318002,2.67311747 42.7856522,2.75145486 C42.8395042,2.82979225 42.9068182,2.90389408 42.9875962,2.97376257 C43.0683742,3.04363105 43.1553646,3.1113813 43.24857,3.17701533 C43.3417754,3.24264936 43.4287659,3.31675119 43.5095439,3.39932304 C43.5903219,3.48189488 43.6576359,3.57716866 43.7114879,3.68514723 C43.7653399,3.7931258 43.7922655,3.9212161 43.7922655,4.06942198 C43.7922655,4.22186232 43.7580907,4.3573628 43.6897401,4.4759275 C43.6213895,4.59449221 43.5281855,4.69505898 43.4101253,4.77763082 C43.2920651,4.86020267 43.1553659,4.92265992 43.0000235,4.96500446 C42.8446812,5.007349 42.6800208,5.02852095 42.5060373,5.02852095 C42.3320539,5.02852095 42.1736071,5.01052479 42.0306921,4.97453193 C41.8877772,4.93853908 41.7748968,4.89301938 41.6920475,4.83797149 C41.7127598,4.72787569 41.7376142,4.62095734 41.7666115,4.51721322 C41.7956087,4.41346911 41.8556735,4.31713673 41.9468077,4.2282132 L42.5060373,4.75540005 C42.5930291,4.75540005 42.6789839,4.74481408 42.7639043,4.72364181 C42.8488248,4.70246954 42.9254592,4.66859442 42.9938099,4.62201543 C43.0621605,4.57543644 43.1180829,4.51827217 43.1615788,4.45052091 C43.2050746,4.38276965 43.2288934,4.30019904 43.2330359,4.20280661 Z" id="The-node.js" fill="#848484"></path>
                </g>
            </g>
        </g>
        <text id="example.com" fill="#000000" font-family="Courier-Oblique, Courier" font-size="14" font-style="italic" font-weight="normal">
            <tspan x="40.2924805" y="211">example.com</tspan>
        </text>
        <text id="app.contentful.com" fill="#000000" font-family="Courier-Oblique, Courier" font-size="14" font-style="italic" font-weight="normal">
            <tspan x="539.887695" y="211">app.contentful.com</tspan>
        </text>
        <text id="Custom-application" fill="#000000" font-family="AvenirNext-DemiBold, Avenir Next" font-size="14" font-weight="500">
            <tspan x="60.566" y="31">Custom</tspan>
            <tspan x="49.24" y="50">application</tspan>
        </text>
        <g id="consume-arrow" transform="translate(160.000000, 82.000000)">
            <text id="Delivery-API" fill="#000000" font-family="Courier" font-size="12" font-weight="normal">
                <tspan x="15.7929688" y="11">Delivery API</tspan>
            </text>
            <text id="Preview-API" fill="#000000" font-family="Courier" font-size="12" font-weight="normal">
                <tspan x="17.3935547" y="41">Preview API</tspan>
            </text>
            <text id="Image-API" fill="#000000" font-family="Courier" font-size="12" font-weight="normal">
                <tspan x="26.5947266" y="70">Image API</tspan>
            </text>
            <g id="arrow" transform="translate(1.000000, 13.000000)">
                <path d="M110,5 L8,5" id="Shape" stroke="#1237AD" stroke-width="1.3" stroke-dasharray="3"></path>
                <polygon id="Shape" fill="#1237AD" fill-rule="nonzero" points="9 0 0 5.5 9 11"></polygon>
            </g>
            <g id="arrow" transform="translate(1.000000, 43.000000)">
                <path d="M110,5 L8,5" id="Shape" stroke="#1237AD" stroke-width="1.3" stroke-dasharray="3"></path>
                <polygon id="Shape" fill="#1237AD" fill-rule="nonzero" points="9 0 0 5.5 9 11"></polygon>
            </g>
            <g id="arrow" transform="translate(1.000000, 73.000000)">
                <path d="M110,5 L8,5" id="Shape" stroke="#1237AD" stroke-width="1.3" stroke-dasharray="3"></path>
                <polygon id="Shape" fill="#1237AD" fill-rule="nonzero" points="9 0 0 5.5 9 11"></polygon>
            </g>
        </g>
        <text id="Management-API" fill="#000000" font-family="Courier" font-size="12" font-weight="normal">
            <tspan x="430.591797" y="107">Management API</tspan>
        </text>
        <g id="arrow" transform="translate(423.000000, 120.000000)">
            <path d="M99.5,5 L12.5,5" id="Shape" stroke="#1237AD" stroke-width="1.3" stroke-dasharray="3"></path>
            <polygon id="Shape" fill="#1237AD" fill-rule="nonzero" points="9 0 0 5.5 9 11"></polygon>
            <polygon id="Shape" fill="#1237AD" fill-rule="nonzero" transform="translate(107.500000, 5.500000) rotate(180.000000) translate(-107.500000, -5.500000) " points="112 0 103 5.5 112 11"></polygon>
        </g>
    </g>
</svg>