<?xml version="1.0" encoding="UTF-8"?>
<svg width="642px" height="219px" viewBox="0 0 642 219" version="1.1" xmlns="http://www.w3.org/2000/svg" xmlns:xlink="http://www.w3.org/1999/xlink">
    <!-- Generator: Sketch 47 (45396) - http://www.bohemiancoding.com/sketch -->
    <title>Slice</title>
    <desc>Created with Sketch.</desc>
    <defs>
        <linearGradient x1="98.6831579%" y1="49.2985567%" x2="3.46350877%" y2="49.2985567%" id="linearGradient-1">
            <stop stop-color="#EAFAFF" offset="0%"></stop>
            <stop stop-color="#A6ECFF" offset="100%"></stop>
        </linearGradient>
    </defs>
    <g id="Page-2" stroke="none" stroke-width="1" fill="none" fill-rule="evenodd">
        <rect id="Rectangle-path" stroke="#E4E4E4" fill-opacity="0.1" fill="#C5C5C5" fill-rule="nonzero" stroke-dasharray="4,4,4,4" x="476" y="61" width="115" height="104"></rect>
        <polygon id="Fill-510" fill="#DEDEDE" points="563 147 582 147 582 86 563 86"></polygon>
        <path d="M578,147 L490,147 C487.791,147 486,145.209 486,143 L486,77 C486,74.791 487.791,73 490,73 L578,73 C580.209,73 582,74.791 582,77 L582,143 C582,145.209 580.209,147 578,147 Z" id="Stroke-500" stroke="#1237AD" stroke-width="1.3"></path>
        <path d="M581.5,84.833 L486,84.833 L486,76.188 C486,74.427 487.428,73 489.189,73 L578.311,73 C580.072,73 581.5,74.427 581.5,76.188 L581.5,84.833 Z" id="Fill-511"></path>
        <path d="M486,85 L582,85" id="Stroke-512" stroke="#1237AD" stroke-width="1.3"></path>
        <path d="M496,79.5 C496,80.329 495.329,81 494.5,81 C493.671,81 493,80.329 493,79.5 C493,78.671 493.671,78 494.5,78 C495.329,78 496,78.671 496,79.5" id="Fill-513" fill="#1237AD"></path>
        <path d="M501.5,81 C500.671,81 500,80.329 500,79.5 C500,78.671 500.671,78 501.5,78 C502.329,78 503,78.671 503,79.5 C503,80.329 502.329,81 501.5,81 Z" id="Fill-514" fill="#1237AD"></path>
        <path d="M510,79.5 C510,80.329 509.329,81 508.5,81 C507.671,81 507,80.329 507,79.5 C507,78.671 507.671,78 508.5,78 C509.329,78 510,78.671 510,79.5" id="Fill-515" fill="#1237AD"></path>
        <g id="Text" transform="translate(495.000000, 109.000000)">
            <path d="M0,0 L30,0" id="Stroke-501" stroke="#98CEFF" stroke-width="2"></path>
            <path d="M2,10 L52,10" id="Stroke-502" stroke="#524472" stroke-width="1.367" stroke-linecap="round" stroke-linejoin="round"></path>
            <path d="M2,13 L52,13" id="Stroke-503" stroke="#524472" stroke-width="1.367" stroke-linecap="round" stroke-linejoin="round"></path>
            <path d="M2,7 L52,7" id="Stroke-504" stroke="#524472" stroke-width="1.367" stroke-linecap="round" stroke-linejoin="round"></path>
            <path d="M2,16 L43,16" id="Stroke-506" stroke="#524472" stroke-width="1.367" stroke-linecap="round" stroke-linejoin="round"></path>
        </g>
        <g id="publish-button" transform="translate(496.000000, 130.000000)">
            <polygon id="Fill-510" fill="#00B7FF" points="0 12 27 12 27 0 0 0"></polygon>
            <text id="Publish" font-family="AvenirNext-DemiBold, Avenir Next" font-size="6" font-weight="500" fill="#FFFFFF">
                <tspan x="4" y="8">Publish</tspan>
            </text>
        </g>
        <g id="preview-button" transform="translate(526.000000, 130.000000)">
            <polygon id="Fill-510" fill="#00B7FF" points="0 12 27 12 27 0 0 0"></polygon>
            <text id="Preview" font-family="AvenirNext-DemiBold, Avenir Next" font-size="6" font-weight="500" fill="#FFFFFF">
                <tspan x="3" y="8">Preview</tspan>
            </text>
        </g>
        <g id="contentful-logo" transform="translate(495.000000, 90.000000)" fill-rule="nonzero">
            <path d="M3.61411386,7.80972795 L3.61500822,7.80886211 C2.98542149,7.19533741 2.63249394,6.36536158 2.63344993,5.50054227 C2.63344993,4.59920658 3.00908044,3.78272285 3.61590258,3.19178951 L3.61456104,3.19005784 C4.12847965,2.68776324 4.12847965,1.87842517 3.61456104,1.37613058 C3.3685433,1.13543533 3.03330346,1 2.68353399,1 C2.33376452,1 1.99852469,1.13543533 1.75250695,1.37613058 C0.62725654,2.47186007 -0.00301193421,3.95501038 1.17475944e-05,5.50010935 C-0.00313831354,7.04531699 0.627331732,8.52856317 1.75295413,9.62408812 C1.99895467,9.86464975 2.33409831,10 2.68375758,10 C3.03341686,10 3.3685605,9.86464975 3.61456104,9.62408812 C4.12847965,9.12179353 4.12847965,8.31245546 3.61456104,7.81016086 L3.61411386,7.80972795" id="Shape" fill="#F8E419"></path>
            <path d="M3.19075333,3.6136873 L3.19206119,3.61501929 C3.80161915,2.986997 4.63249225,2.63336075 5.49956405,2.63289981 C6.40111627,2.63289981 7.21722156,3.00896455 7.80837476,3.61590728 L7.81011857,3.6141313 C8.04973605,3.86090629 8.37634429,3.99977546 8.71712022,3.99977546 C9.05789614,3.99977546 9.38450438,3.86090629 9.62412186,3.6141313 C10.1252927,3.0985285 10.1252927,2.26805825 9.62412186,1.75245545 C8.53495275,0.629947732 7.04954096,-0.00124459275 5.5,2.65220439e-06 C3.95041029,-0.0014931073 2.46490811,0.629737622 1.37587814,1.75245545 C0.874707285,2.26805825 0.874707285,3.0985285 1.37587814,3.6141313 C1.61551229,3.86104346 1.94221434,4 2.28309776,4 C2.62398118,4 2.95068323,3.86104346 3.19031738,3.6141313 L3.19031738,3.6136873" id="Shape" fill="#56AED2"></path>
            <path d="M7.80924667,8.3863127 L7.80793881,8.38498071 C7.19820247,9.01294941 6.36715988,9.36643111 5.5,9.36665619 C4.6324455,9.36691043 3.8009901,9.01300009 3.19162524,8.38409272 L3.18988143,8.3858687 C2.95026395,8.13909371 2.62365571,8.00022454 2.28287978,8.00022454 C1.94210386,8.00022454 1.61549562,8.13909371 1.37587814,8.3858687 C0.874707285,8.9014715 0.874707285,9.73194175 1.37587814,10.2475446 C2.46504725,11.3700523 3.95045904,12.0012446 5.5,11.9999973 C7.04958971,12.0014931 8.53509189,11.3702624 9.62412186,10.2475446 C10.1252927,9.73194175 10.1252927,8.9014715 9.62412186,8.3858687 C9.38448771,8.13895654 9.05778566,8 8.71690224,8 C8.37601882,8 8.04931677,8.13895654 7.80968262,8.3858687 L7.80968262,8.3863127" id="Shape" fill="#E0534E"></path>
            <path d="M3.56075079,3.56046568 C3.28040668,3.84174196 2.8984744,4 2.5,4 C2.1015256,4 1.71959332,3.84174196 1.43924921,3.56046568 C0.853583598,2.97315858 0.853583598,2.02684142 1.43924921,1.43953432 C1.71959332,1.15825804 2.1015256,1 2.5,1 C2.8984744,1 3.28040668,1.15825804 3.56075079,1.43953432 C4.1464164,2.02684142 4.1464164,2.97315858 3.56075079,3.56046568" id="Shape" fill="#1E78A4"></path>
            <path d="M3.56078775,10.5605398 C3.28046723,10.8417687 2.89856709,11 2.50012621,11 C2.10168534,11 1.7197852,10.8417687 1.43946467,10.5605398 C0.853511776,9.9732721 0.853511776,9.0267279 1.43946467,8.43946017 C1.7197852,8.15823135 2.10168534,8 2.50012621,8 C2.89856709,8 3.28046723,8.15823135 3.56078775,8.43946017 C4.14640408,9.02666819 4.14640408,9.97282571 3.56078775,10.5600337" id="Shape" fill="#BE433B"></path>
        </g>
        <text id="Contentful’s-Web-App" fill="#000000" font-family="AvenirNext-DemiBold, Avenir Next" font-size="11" font-weight="500">
            <tspan x="502.964" y="34">Contentful’s</tspan>
            <tspan x="509.4045" y="49">Web App</tspan>
        </text>
        <g id="Contentful" transform="translate(258.000000, 24.000000)">
            <rect id="Rectangle-path" fill="#00D3FF" fill-rule="nonzero" opacity="0.1" x="0" y="37" width="115" height="104"></rect>
            <polygon id="Shape" fill="url(#linearGradient-1)" fill-rule="nonzero" points="114.86 136 114.86 136 0.86 136 0.86 39 114.86 39 114.86 136 114.86 136 114.86 136 114.86 39 0.86 39 0.86 136 114.86 136"></polygon>
            <rect id="Rectangle-path" stroke="#2BA6F9" stroke-width="1.3" x="0.86" y="38.5" width="114" height="104"></rect>
            <g id="Group-2" transform="translate(42.000000, 71.000000)" fill-rule="nonzero">
                <path d="M10.85,24.93 L10.85,24.93 C8.98138879,23.0636655 7.93142233,20.5310059 7.93142233,17.89 C7.93142233,15.2489941 8.98138879,12.7163345 10.85,10.85 L10.85,10.85 C12.377067,9.32293261 12.3770669,6.84706753 10.8499997,5.32000033 C9.32293247,3.79293312 6.84706739,3.79293298 5.32,5.32 C1.98398703,8.65461134 0.109716584,13.1781562 0.109716584,17.895 C0.109716584,22.6118438 1.98398703,27.1353887 5.32,30.47 C6.30783934,31.4578395 7.74764662,31.8436347 9.09706034,31.4820604 C10.4464741,31.1204862 11.5004862,30.0664741 11.8620604,28.7170603 C12.2236347,27.3676466 11.8378395,25.9278393 10.85,24.94 L10.85,24.94" id="Shape" fill="#F9E300"></path>
                <path d="M10.85,10.84 L10.85,10.84 C12.7163345,8.97138879 15.2489941,7.92142233 17.89,7.92142233 C20.5310059,7.92142233 23.0636655,8.97138879 24.93,10.84 L24.93,10.84 C26.4570674,12.367067 28.9329325,12.3670669 30.4599997,10.8399997 C31.9870669,9.31293247 31.987067,6.83706739 30.46,5.31 C27.1253887,1.97398703 22.6018438,0.0997165839 17.885,0.0997165839 C13.1681562,0.0997165839 8.64461134,1.97398703 5.31,5.31 C4.32216045,6.29783932 3.93636512,7.73764664 4.29793939,9.08706042 C4.65951367,10.4364742 5.7135258,11.4904863 7.06293958,11.8520606 C8.41235336,12.2136349 9.85216068,11.8278396 10.84,10.84 L10.84,10.84" id="Shape" fill="#4FB5E1"></path>
                <path d="M24.94,24.93 L24.94,24.93 C23.0749726,26.80107 20.5418232,27.8527356 17.9,27.8527356 C15.2581768,27.8527356 12.7250274,26.80107 10.86,24.93 L10.86,24.93 C9.87037432,23.9421606 8.42891645,23.5573185 7.07860963,23.9204398 C5.72830281,24.2835611 4.67429077,25.3394791 4.31360963,26.6904398 C3.9529285,28.0414004 4.34037432,29.4821606 5.33,30.47 C8.66461134,33.806013 13.1881562,35.6802834 17.905,35.6802834 C22.6218438,35.6802834 27.1453887,33.806013 30.48,30.47 C32.0098285,28.9429326 32.0120669,26.464829 30.4849997,24.9350003 C28.9579325,23.4051717 26.4798288,23.402933 24.95,24.93 L24.94,24.93 Z" id="Shape" fill="#F05751"></path>
                <path d="M10.85,10.84 C9.32298799,12.3667773 6.84742218,12.3666505 5.32056664,10.8397167 C3.7937111,9.31278291 3.7937111,6.83721709 5.32056664,5.31028332 C6.84742218,3.78334954 9.32298799,3.7832227 10.85,5.31 C12.371733,6.83927302 12.371733,9.31072698 10.85,10.84" id="Shape" fill="#0681B6"></path>
                <path d="M10.85,30.46 C9.32298799,31.9867773 6.84742218,31.9866505 5.32056664,30.4597167 C3.7937111,28.9327829 3.7937111,26.4572171 5.32056664,24.9302833 C6.84742218,23.4033495 9.32298799,23.4032227 10.85,24.93 C12.371733,26.459273 12.371733,28.930727 10.85,30.46" id="Shape" fill="#CD4739"></path>
            </g>
            <text id="Contentful’s-Content" fill="#000000" font-family="AvenirNext-DemiBold, Avenir Next" font-size="11" font-weight="500">
                <tspan x="26.964" y="11">Contentful’s</tspan>
                <tspan x="1.8895" y="26">Content Infrastructure</tspan>
            </text>
        </g>
        <rect id="Rectangle-path" stroke="#E4E4E4" fill-opacity="0.1" fill="#C5C5C5" fill-rule="nonzero" stroke-dasharray="4,4,4,4" x="44" y="61" width="115" height="104"></rect>
        <g id="App" transform="translate(53.000000, 71.000000)">
            <path d="M92,74 L4,74 C1.791,74 0,72.209 0,70 L0,4 C0,1.791 1.791,0 4,0 L92,0 C94.209,0 96,1.791 96,4 L96,70 C96,72.209 94.209,74 92,74 Z" id="Stroke-500" stroke="#1237AD" stroke-width="1.3"></path>
            <path d="M95.5,11.833 L0,11.833 L0,3.188 C0,1.427 1.428,0 3.189,0 L92.311,0 C94.072,0 95.5,1.427 95.5,3.188 L95.5,11.833 Z" id="Fill-511"></path>
            <path d="M0,12 L96,12" id="Stroke-512" stroke="#1237AD" stroke-width="1.3"></path>
            <path d="M9,5.5 C9,6.329 8.329,7 7.5,7 C6.671,7 6,6.329 6,5.5 C6,4.671 6.671,4 7.5,4 C8.329,4 9,4.671 9,5.5" id="Fill-513" fill="#1237AD"></path>
            <path d="M14.5,7 C13.671,7 13,6.329 13,5.5 C13,4.671 13.671,4 14.5,4 C15.329,4 16,4.671 16,5.5 C16,6.329 15.329,7 14.5,7 Z" id="Fill-514" fill="#1237AD"></path>
            <path d="M23,5.5 C23,6.329 22.329,7 21.5,7 C20.671,7 20,6.329 20,5.5 C20,4.671 20.671,4 21.5,4 C22.329,4 23,4.671 23,5.5" id="Fill-515" fill="#1237AD"></path>
            <polygon id="Fill-510" fill="#00B7FF" points="11 55 85 55 85 30 11 30"></polygon>
            <g id="Text" transform="translate(11.000000, 59.000000)">
                <path d="M0,0 L34,0" id="Stroke-501" stroke="#98CEFF" stroke-width="2"></path>
                <path d="M0,8 L57,8" id="Stroke-502" stroke="#524472" stroke-width="1.367" stroke-linecap="round" stroke-linejoin="round"></path>
                <path d="M0,5 L57,5" id="Stroke-504" stroke="#524472" stroke-width="1.367" stroke-linecap="round" stroke-linejoin="round"></path>
            </g>
            <g id="TEA-Logo" transform="translate(10.000000, 16.000000)">
                <g id="logo-the-example-app">
                    <polygon id="Shape" fill="#D9453F" fill-rule="nonzero" points="0.974824356 9.77398472 0.974824356 7.95926432 7.27868852 7.95926432 7.27868852 9.77398472"></polygon>
                    <ellipse id="Oval" fill="#F5A623" fill-rule="nonzero" cx="2.4175644" cy="3.97199132" rx="2.4175644" ry="2.37702814"></ellipse>
                    <polygon id="Shape" fill="#3C80CF" fill-rule="nonzero" points="9.09836066 7.37139714 4.93911007 0.419228836 9.09836066 0.419228836"></polygon>
                    <path d="M13.9329299,8.10796196 C13.9329299,7.97366929 13.8901977,7.85831706 13.8047322,7.7619018 C13.7192666,7.66548655 13.5910702,7.61727965 13.4201392,7.61727965 C13.3364178,7.61727965 13.2596744,7.63019221 13.1899066,7.65601772 C13.1201388,7.68184324 13.0590929,7.71713758 13.0067671,7.7619018 C12.9544412,7.80666603 12.9125812,7.85917712 12.8811857,7.91943665 C12.8497902,7.97969619 12.8323485,8.04253733 12.8288601,8.10796196 L13.9329299,8.10796196 Z M14.7230461,8.43336182 L14.7230461,8.53666336 C14.7230461,8.57109738 14.721302,8.6038092 14.7178136,8.63479982 L12.8288601,8.63479982 C12.8358369,8.70711126 12.857639,8.77253492 12.8942671,8.83107275 C12.9308952,8.88961058 12.9779877,8.9404 13.0355461,8.98344252 C13.0931046,9.02648505 13.1576388,9.06005771 13.2291508,9.08416152 C13.3006628,9.10826534 13.3747899,9.12031706 13.4515345,9.12031706 C13.5875817,9.12031706 13.7026968,9.09535277 13.7968833,9.04542345 C13.8910699,8.99549412 13.9678133,8.9309313 14.0271159,8.85173306 L14.6236275,9.2236186 C14.5015339,9.3992321 14.3401983,9.5343836 14.1396159,9.62907715 C13.9390335,9.7237707 13.706187,9.77111677 13.4410694,9.77111677 C13.2457196,9.77111677 13.0608377,9.74098745 12.8864182,9.68072792 C12.7119987,9.62046839 12.559384,9.53266296 12.4285694,9.41730899 C12.2977548,9.30195503 12.1948488,9.15991683 12.1198485,8.99119014 C12.0448481,8.82246344 12.0073485,8.62963583 12.0073485,8.41270151 C12.0073485,8.20265399 12.043976,8.01240889 12.1172322,7.8419605 C12.1904884,7.6715121 12.289906,7.52689139 12.415488,7.40809403 C12.54107,7.28929666 12.6893243,7.19718704 12.8602554,7.1317624 C13.0311865,7.06633777 13.2160684,7.03362594 13.4149066,7.03362594 C13.606768,7.03362594 13.782929,7.06547693 13.943395,7.12917987 C14.1038609,7.1928828 14.2416502,7.28499242 14.3567671,7.40551149 C14.4718839,7.52603055 14.5617086,7.67237294 14.6262438,7.84454304 C14.690779,8.01671313 14.7230461,8.2129841 14.7230461,8.43336182 Z M16.9207205,9.68847554 L16.3608368,8.89821875 L15.7852554,9.68847554 L14.7910694,9.68847554 L15.8323485,8.34039043 L14.890488,7.11626717 L15.8899066,7.11626717 L16.3765345,7.80322242 L16.868395,7.11626717 L17.8364182,7.11626717 L16.8997903,8.34039043 L17.9306043,9.68847554 L16.9207205,9.68847554 Z M19.7881624,8.56765382 L19.6782787,8.56765382 C19.5840922,8.56765382 19.489035,8.57195801 19.3931043,8.58056651 C19.2971736,8.58917502 19.2117093,8.60553093 19.1367089,8.62963474 C19.0617085,8.65373856 18.9997906,8.6890329 18.9509531,8.73551882 C18.9021157,8.78200475 18.8776973,8.84312422 18.8776973,8.91887906 C18.8776973,8.96708669 18.8890344,9.00840689 18.9117089,9.04284091 C18.9343835,9.07727493 18.9631622,9.10482173 18.9980461,9.12548214 C19.03293,9.14614255 19.0730459,9.16077679 19.118395,9.16938529 C19.163744,9.1779938 19.2073482,9.18229799 19.2492089,9.18229799 C19.4236284,9.18229799 19.5570573,9.13495192 19.6494996,9.04025837 C19.7419419,8.94556482 19.7881624,8.81730002 19.7881624,8.65546013 L19.7881624,8.56765382 Z M18.2131624,7.46749241 C18.3666515,7.32286953 18.5454288,7.214404 18.7494996,7.14209256 C18.9535704,7.06978112 19.1619986,7.03362594 19.3747903,7.03362594 C19.5945589,7.03362594 19.7803128,7.0603119 19.9320578,7.11368463 C20.0838027,7.16705736 20.2067666,7.24969777 20.3009531,7.36160833 C20.3951396,7.47351889 20.4640343,7.61469625 20.5076392,7.78514465 C20.551244,7.95559304 20.5730461,8.15788987 20.5730461,8.3920412 L20.5730461,9.68847554 L19.7881624,9.68847554 L19.7881624,9.41472645 L19.7724647,9.41472645 C19.7061853,9.52147191 19.6058956,9.60411232 19.4715926,9.66265015 C19.3372896,9.72118798 19.1916516,9.75045646 19.034674,9.75045646 C18.9300224,9.75045646 18.8218839,9.73668306 18.7102554,9.70913585 C18.598627,9.68158863 18.4965931,9.63682508 18.4041508,9.57484384 C18.3117085,9.51286261 18.2358371,9.4302222 18.1765345,9.32692014 C18.1172319,9.22361809 18.087581,9.09621413 18.087581,8.94470444 C18.087581,8.75876074 18.139034,8.608975 18.2419415,8.49534274 C18.344849,8.38171048 18.4774058,8.29390505 18.6396159,8.23192381 C18.801826,8.16994258 18.9823475,8.12862238 19.1811857,8.10796196 C19.3800239,8.08730155 19.5736266,8.0769715 19.7619996,8.0769715 L19.7619996,8.03565089 C19.7619996,7.90824501 19.7166512,7.81441372 19.6259531,7.75415419 C19.535255,7.69389465 19.4236282,7.66376534 19.2910694,7.66376534 C19.1689758,7.66376534 19.0512444,7.68959047 18.9378717,7.74124149 C18.8244991,7.79289252 18.7276977,7.85487283 18.6474647,7.92718427 L18.2131624,7.46749241 Z M24.5393252,9.68847554 L24.5393252,8.28357458 C24.5393252,8.21126314 24.5340927,8.1415353 24.5236275,8.07438896 C24.5131624,8.00724263 24.4939765,7.94956651 24.4660694,7.90135888 C24.4381623,7.85315126 24.4006626,7.81441357 24.3535694,7.78514465 C24.3064761,7.75587573 24.2445581,7.74124149 24.1678136,7.74124149 C24.0945574,7.74124149 24.0308952,7.75673657 23.9768252,7.78772719 C23.9227552,7.8187178 23.8774068,7.86003801 23.8407787,7.91168904 C23.8041506,7.96334007 23.777116,8.02273786 23.759674,8.08988419 C23.7422321,8.15703053 23.7335112,8.22675837 23.7335112,8.29906981 L23.7335112,9.68847554 L22.8753717,9.68847554 L22.8753717,8.22159366 C22.8753717,8.07352738 22.8457208,7.95645347 22.7864182,7.87036842 C22.7271156,7.78428337 22.6329305,7.74124149 22.5038601,7.74124149 C22.3678129,7.74124149 22.2622907,7.79461342 22.1872903,7.90135888 C22.1122899,8.00810434 22.0747903,8.13895165 22.0747903,8.29390474 L22.0747903,9.68847554 L21.2114182,9.68847554 L21.2114182,7.11626717 L22.043395,7.11626717 L22.043395,7.47265749 L22.0538601,7.47265749 C22.0852556,7.41756306 22.1244994,7.36419113 22.1715926,7.3125401 C22.2186859,7.26088907 22.2753714,7.21526468 22.3416508,7.17566556 C22.4079302,7.13606644 22.4820573,7.10421545 22.5640345,7.08011163 C22.6460117,7.05600782 22.7358363,7.04395609 22.8335112,7.04395609 C23.0218843,7.04395609 23.1814757,7.08183295 23.3122903,7.15758779 C23.4431049,7.23334263 23.5451388,7.34180816 23.618395,7.48298764 C23.7056047,7.34869497 23.8172315,7.24195111 23.9532787,7.16275287 C24.0893259,7.08355462 24.2550219,7.04395609 24.4503717,7.04395609 C24.6282796,7.04395609 24.777406,7.07580708 24.8977554,7.13951002 C25.0181049,7.20321295 25.1149062,7.28585336 25.1881624,7.38743372 C25.2614186,7.48901407 25.3146157,7.60264463 25.3477554,7.7283288 C25.3808951,7.85401297 25.3974647,7.97711274 25.3974647,8.09763181 L25.3974647,9.68847554 L24.5393252,9.68847554 Z M28.9451392,8.3920412 C28.9451392,8.5710981 28.9172325,8.74326561 28.8614182,8.9085489 C28.805604,9.0738322 28.7245002,9.21931374 28.6181043,9.34499791 C28.5117084,9.47068208 28.3817678,9.57140008 28.2282787,9.64715492 C28.0747895,9.72290976 27.9003727,9.76078662 27.7050229,9.76078662 C27.544557,9.76078662 27.3928143,9.72893563 27.2497903,9.66523269 C27.1067663,9.60152975 26.9951396,9.51458516 26.9149066,9.4043963 L26.9044415,9.4043963 L26.9044415,10.928094 L26.0463019,10.928094 L26.0463019,7.11626717 L26.862581,7.11626717 L26.862581,7.43133687 L26.8782787,7.43133687 C26.9585116,7.32803482 27.0692664,7.23764687 27.2105461,7.16017033 C27.3518259,7.08269378 27.518394,7.04395609 27.7102554,7.04395609 C27.8986285,7.04395609 28.069557,7.08011127 28.2230461,7.15242271 C28.3765353,7.22473415 28.5064758,7.32286963 28.6128717,7.4468321 C28.7192676,7.57079457 28.8012435,7.71455445 28.8588019,7.87811604 C28.9163604,8.04167763 28.9451392,8.2129843 28.9451392,8.3920412 Z M28.1131624,8.3920412 C28.1131624,8.30939956 28.1000811,8.22848082 28.0739182,8.14928258 C28.0477553,8.07008434 28.0093836,8.00035649 27.9588019,7.94009696 C27.9082203,7.87983743 27.8445581,7.83076969 27.7678136,7.79289226 C27.691069,7.75501484 27.6021164,7.73607642 27.5009531,7.73607642 C27.4032782,7.73607642 27.3160698,7.75501484 27.2393252,7.79289226 C27.1625806,7.83076969 27.0971743,7.88069826 27.0431043,7.9426795 C26.9890342,8.00466073 26.9471742,8.07524941 26.9175229,8.15444766 C26.8878716,8.2336459 26.8730461,8.31456463 26.8730461,8.39720628 C26.8730461,8.47984792 26.8878716,8.56076665 26.9175229,8.6399649 C26.9471742,8.71916314 26.9890342,8.78975182 27.0431043,8.85173306 C27.0971743,8.91371429 27.1625806,8.96364287 27.2393252,9.00152029 C27.3160698,9.03939771 27.4032782,9.05833614 27.5009531,9.05833614 C27.6021164,9.05833614 27.691069,9.03939771 27.7678136,9.00152029 C27.8445581,8.96364287 27.9082203,8.91371429 27.9588019,8.85173306 C28.0093836,8.78975182 28.0477553,8.7183023 28.0739182,8.63738236 C28.1000811,8.55646242 28.1131624,8.47468285 28.1131624,8.3920412 Z M29.4945578,9.68847554 L29.4945578,5.7836773 L30.3631624,5.7836773 L30.3631624,9.68847554 L29.4945578,9.68847554 Z M32.8381624,8.10796196 C32.8381624,7.97366929 32.7954303,7.85831706 32.7099647,7.7619018 C32.6244992,7.66548655 32.4963028,7.61727965 32.3253717,7.61727965 C32.2416504,7.61727965 32.1649069,7.63019221 32.0951392,7.65601772 C32.0253714,7.68184324 31.9643255,7.71713758 31.9119996,7.7619018 C31.8596738,7.80666603 31.8178137,7.85917712 31.7864182,7.91943665 C31.7550227,7.97969619 31.737581,8.04253733 31.7340926,8.10796196 L32.8381624,8.10796196 Z M33.6282787,8.43336182 L33.6282787,8.53666336 C33.6282787,8.57109738 33.6265345,8.6038092 33.6230461,8.63479982 L31.7340926,8.63479982 C31.7410694,8.70711126 31.7628715,8.77253492 31.7994996,8.83107275 C31.8361277,8.88961058 31.8832203,8.9404 31.9407787,8.98344252 C31.9983371,9.02648505 32.0628714,9.06005771 32.1343833,9.08416152 C32.2058953,9.10826534 32.2800225,9.12031706 32.3567671,9.12031706 C32.4928143,9.12031706 32.6079294,9.09535277 32.7021159,9.04542345 C32.7963024,8.99549412 32.8730458,8.9309313 32.9323485,8.85173306 L33.5288601,9.2236186 C33.4067665,9.3992321 33.2454309,9.5343836 33.0448485,9.62907715 C32.8442661,9.7237707 32.6114195,9.77111677 32.3463019,9.77111677 C32.1509521,9.77111677 31.9660703,9.74098745 31.7916508,9.68072792 C31.6172313,9.62046839 31.4646166,9.53266296 31.3338019,9.41730899 C31.2029873,9.30195503 31.1000814,9.15991683 31.025081,8.99119014 C30.9500806,8.82246344 30.912581,8.62963583 30.912581,8.41270151 C30.912581,8.20265399 30.9492086,8.01240889 31.0224647,7.8419605 C31.0957209,7.6715121 31.1951385,7.52689139 31.3207205,7.40809403 C31.4463026,7.28929666 31.5945569,7.19718704 31.765488,7.1317624 C31.9364191,7.06633777 32.121301,7.03362594 32.3201392,7.03362594 C32.5120006,7.03362594 32.6881616,7.06547693 32.8486275,7.12917987 C33.0090934,7.1928828 33.1468828,7.28499242 33.2619996,7.40551149 C33.3771165,7.52603055 33.4669412,7.67237294 33.5314764,7.84454304 C33.5960116,8.01671313 33.6282787,8.2129841 33.6282787,8.43336182 Z M37.0085112,8.56765382 L36.8986275,8.56765382 C36.804441,8.56765382 36.7093838,8.57195801 36.6134531,8.58056651 C36.5175224,8.58917502 36.4320581,8.60553093 36.3570578,8.62963474 C36.2820574,8.65373856 36.2201394,8.6890329 36.1713019,8.73551882 C36.1224645,8.78200475 36.0980461,8.84312422 36.0980461,8.91887906 C36.0980461,8.96708669 36.1093832,9.00840689 36.1320578,9.04284091 C36.1547323,9.07727493 36.1835111,9.10482173 36.218395,9.12548214 C36.2532789,9.14614255 36.2933947,9.16077679 36.3387438,9.16938529 C36.3840929,9.1779938 36.4276971,9.18229799 36.4695578,9.18229799 C36.6439772,9.18229799 36.7774061,9.13495192 36.8698485,9.04025837 C36.9622908,8.94556482 37.0085112,8.81730002 37.0085112,8.65546013 L37.0085112,8.56765382 Z M35.4335112,7.46749241 C35.5870004,7.32286953 35.7657777,7.214404 35.9698485,7.14209256 C36.1739192,7.06978112 36.3823474,7.03362594 36.5951392,7.03362594 C36.8149077,7.03362594 37.0006617,7.0603119 37.1524066,7.11368463 C37.3041515,7.16705736 37.4271154,7.24969777 37.5213019,7.36160833 C37.6154885,7.47351889 37.6843831,7.61469625 37.727988,7.78514465 C37.7715929,7.95559304 37.793395,8.15788987 37.793395,8.3920412 L37.793395,9.68847554 L37.0085112,9.68847554 L37.0085112,9.41472645 L36.9928136,9.41472645 C36.9265342,9.52147191 36.8262445,9.60411232 36.6919415,9.66265015 C36.5576385,9.72118798 36.4120004,9.75045646 36.2550229,9.75045646 C36.1503712,9.75045646 36.0422327,9.73668306 35.9306043,9.70913585 C35.8189758,9.68158863 35.7169419,9.63682508 35.6244996,9.57484384 C35.5320573,9.51286261 35.456186,9.4302222 35.3968833,9.32692014 C35.3375807,9.22361809 35.3079299,9.09621413 35.3079299,8.94470444 C35.3079299,8.75876074 35.3593828,8.608975 35.4622903,8.49534274 C35.5651978,8.38171048 35.6977546,8.29390505 35.8599647,8.23192381 C36.0221748,8.16994258 36.2026963,8.12862238 36.4015345,8.10796196 C36.6003727,8.08730155 36.7939754,8.0769715 36.9823485,8.0769715 L36.9823485,8.03565089 C36.9823485,7.90824501 36.9370001,7.81441372 36.8463019,7.75415419 C36.7556038,7.69389465 36.643977,7.66376534 36.5114182,7.66376534 C36.3893246,7.66376534 36.2715932,7.68959047 36.1582205,7.74124149 C36.0448479,7.79289252 35.9480465,7.85487283 35.8678136,7.92718427 L35.4335112,7.46749241 Z M41.3306043,8.3920412 C41.3306043,8.5710981 41.3026976,8.74326561 41.2468833,8.9085489 C41.1910691,9.0738322 41.1099653,9.21931374 41.0035694,9.34499791 C40.8971735,9.47068208 40.7672329,9.57140008 40.6137438,9.64715492 C40.4602547,9.72290976 40.2858378,9.76078662 40.090488,9.76078662 C39.9300221,9.76078662 39.7782794,9.72893563 39.6352554,9.66523269 C39.4922315,9.60152975 39.3806047,9.51458516 39.3003717,9.4043963 L39.2899066,9.4043963 L39.2899066,10.928094 L38.4317671,10.928094 L38.4317671,7.11626717 L39.2480461,7.11626717 L39.2480461,7.43133687 L39.2637438,7.43133687 C39.3439768,7.32803482 39.4547315,7.23764687 39.5960112,7.16017033 C39.737291,7.08269378 39.9038591,7.04395609 40.0957205,7.04395609 C40.2840936,7.04395609 40.4550221,7.08011127 40.6085112,7.15242271 C40.7620004,7.22473415 40.8919409,7.32286963 40.9983368,7.4468321 C41.1047327,7.57079457 41.1867086,7.71455445 41.2442671,7.87811604 C41.3018255,8.04167763 41.3306043,8.2129843 41.3306043,8.3920412 Z M40.4986275,8.3920412 C40.4986275,8.30939956 40.4855463,8.22848082 40.4593833,8.14928258 C40.4332204,8.07008434 40.3948487,8.00035649 40.3442671,7.94009696 C40.2936854,7.87983743 40.2300233,7.83076969 40.1532787,7.79289226 C40.0765341,7.75501484 39.9875815,7.73607642 39.8864182,7.73607642 C39.7887433,7.73607642 39.7015349,7.75501484 39.6247903,7.79289226 C39.5480457,7.83076969 39.4826394,7.88069826 39.4285694,7.9426795 C39.3744993,8.00466073 39.3326393,8.07524941 39.302988,8.15444766 C39.2733367,8.2336459 39.2585112,8.31456463 39.2585112,8.39720628 C39.2585112,8.47984792 39.2733367,8.56076665 39.302988,8.6399649 C39.3326393,8.71916314 39.3744993,8.78975182 39.4285694,8.85173306 C39.4826394,8.91371429 39.5480457,8.96364287 39.6247903,9.00152029 C39.7015349,9.03939771 39.7887433,9.05833614 39.8864182,9.05833614 C39.9875815,9.05833614 40.0765341,9.03939771 40.1532787,9.00152029 C40.2300233,8.96364287 40.2936854,8.91371429 40.3442671,8.85173306 C40.3948487,8.78975182 40.4332204,8.7183023 40.4593833,8.63738236 C40.4855463,8.55646242 40.4986275,8.47468285 40.4986275,8.3920412 Z M44.768395,8.3920412 C44.768395,8.5710981 44.7404883,8.74326561 44.684674,8.9085489 C44.6288598,9.0738322 44.547756,9.21931374 44.4413601,9.34499791 C44.3349642,9.47068208 44.2050236,9.57140008 44.0515345,9.64715492 C43.8980454,9.72290976 43.7236285,9.76078662 43.5282787,9.76078662 C43.3678128,9.76078662 43.2160701,9.72893563 43.0730461,9.66523269 C42.9300222,9.60152975 42.8183954,9.51458516 42.7381624,9.4043963 L42.7276973,9.4043963 L42.7276973,10.928094 L41.8695578,10.928094 L41.8695578,7.11626717 L42.6858368,7.11626717 L42.6858368,7.43133687 L42.7015345,7.43133687 C42.7817675,7.32803482 42.8925222,7.23764687 43.0338019,7.16017033 C43.1750817,7.08269378 43.3416498,7.04395609 43.5335112,7.04395609 C43.7218843,7.04395609 43.8928128,7.08011127 44.0463019,7.15242271 C44.1997911,7.22473415 44.3297316,7.32286963 44.4361275,7.4468321 C44.5425234,7.57079457 44.6244993,7.71455445 44.6820578,7.87811604 C44.7396162,8.04167763 44.768395,8.2129843 44.768395,8.3920412 Z M43.9364182,8.3920412 C43.9364182,8.30939956 43.923337,8.22848082 43.897174,8.14928258 C43.8710111,8.07008434 43.8326394,8.00035649 43.7820578,7.94009696 C43.7314761,7.87983743 43.667814,7.83076969 43.5910694,7.79289226 C43.5143248,7.75501484 43.4253722,7.73607642 43.3242089,7.73607642 C43.226534,7.73607642 43.1393256,7.75501484 43.062581,7.79289226 C42.9858364,7.83076969 42.9204301,7.88069826 42.8663601,7.9426795 C42.81229,8.00466073 42.77043,8.07524941 42.7407787,8.15444766 C42.7111274,8.2336459 42.6963019,8.31456463 42.6963019,8.39720628 C42.6963019,8.47984792 42.7111274,8.56076665 42.7407787,8.6399649 C42.77043,8.71916314 42.81229,8.78975182 42.8663601,8.85173306 C42.9204301,8.91371429 42.9858364,8.96364287 43.062581,9.00152029 C43.1393256,9.03939771 43.226534,9.05833614 43.3242089,9.05833614 C43.4253722,9.05833614 43.5143248,9.03939771 43.5910694,9.00152029 C43.667814,8.96364287 43.7314761,8.91371429 43.7820578,8.85173306 C43.8326394,8.78975182 43.8710111,8.7183023 43.897174,8.63738236 C43.923337,8.55646242 43.9364182,8.47468285 43.9364182,8.3920412 Z" id="example-app" fill="#000000"></path>
                    <path d="M13.9015345,4.027146 L12.4311857,4.027146 L12.4573485,3.87735877 C12.5410698,3.84636815 12.6239178,3.82140386 12.705895,3.80246515 C12.7878721,3.78352644 12.8776968,3.76717053 12.9753717,3.75339692 L13.634674,0.680176082 L12.8340926,0.680176082 L12.3997903,1.4187821 L12.2637438,1.4187821 C12.2672322,1.34991406 12.275081,1.27157784 12.2872903,1.18377109 C12.2994997,1.09596434 12.3125809,1.00643724 12.3265345,0.915187087 C12.3404881,0.823936937 12.3553135,0.73440983 12.3710112,0.646603081 C12.386709,0.558796333 12.4032786,0.480460114 12.4207205,0.411592076 L15.4556043,0.411592076 C15.4416507,0.480460114 15.424209,0.557935495 15.4032787,0.644020543 C15.3823484,0.730105591 15.3596742,0.81877186 15.3352554,0.91002201 C15.3108367,1.00127216 15.2855463,1.09079927 15.2593833,1.17860602 C15.2332204,1.26641276 15.20793,1.34647066 15.1835112,1.4187821 L15.0474647,1.4187821 L14.937581,0.680176082 L14.1369996,0.680176082 L13.4776973,3.75339692 C13.5614186,3.77061393 13.6407783,3.78783068 13.7157787,3.80504769 C13.7907791,3.8222647 13.8614179,3.84636815 13.9276973,3.87735877 L13.9015345,4.027146 Z M15.5340926,0.45807777 L15.5340926,0.339280998 C15.5864185,0.318620586 15.6448481,0.297099647 15.7093833,0.274717535 C15.7739185,0.252335422 15.841069,0.231675321 15.9108368,0.21273661 C15.9806046,0.1937979 16.0486272,0.178302824 16.1149066,0.166250917 C16.181186,0.15419901 16.2439761,0.146451472 16.3032787,0.14300807 L16.4131624,0.189493764 L15.9422322,2.35882612 L15.968395,2.35882612 C16.0346744,2.22109004 16.1096736,2.09282525 16.193395,1.97402788 C16.2771163,1.85523051 16.3651968,1.75193001 16.4576392,1.66412326 C16.5500815,1.57631651 16.6468828,1.5074495 16.7480461,1.45752018 C16.8492094,1.40759085 16.9521154,1.38262656 17.0567671,1.38262656 C17.217233,1.38262656 17.3332202,1.42825095 17.4047322,1.5195011 C17.4762442,1.61075125 17.5119996,1.72352097 17.5119996,1.85781365 C17.5119996,1.9507855 17.5032788,2.05064266 17.4858368,2.15738811 C17.4683949,2.26413357 17.4474649,2.36743408 17.4230461,2.46729274 L17.1247903,3.73790169 L17.5119996,3.73790169 L17.5119996,3.87219369 C17.4422318,3.92728812 17.3585117,3.97205167 17.2608368,4.00648569 C17.1631619,4.04091971 17.0654885,4.05813646 16.9678136,4.05813646 C16.8666503,4.05813646 16.7968835,4.03747636 16.7585112,3.99615554 C16.720139,3.95483472 16.7009531,3.91007116 16.7009531,3.86186354 C16.7009531,3.7998823 16.709674,3.73015446 16.7271159,3.65267792 C16.7445578,3.57520137 16.7619995,3.49686516 16.7794415,3.41766691 L16.9678136,2.55509905 C16.9922323,2.44835359 17.0140344,2.34849643 17.0332205,2.25552458 C17.0524067,2.16255273 17.0619996,2.07302562 17.0619996,1.98694057 C17.0619996,1.90774233 17.0445579,1.840597 17.009674,1.78550257 C16.9747901,1.73040814 16.9276976,1.70286134 16.868395,1.70286134 C16.7602549,1.70286134 16.6556048,1.74073819 16.5544415,1.81649303 C16.4532782,1.89224787 16.3590931,1.98349665 16.2718833,2.09024211 C16.1846736,2.19698757 16.1079302,2.30803562 16.0416508,2.42338958 C15.9753714,2.53874355 15.9247905,2.63429652 15.8899066,2.71005136 L15.612581,4.027146 L15.1730461,4.027146 L15.8899066,0.504563463 L15.5340926,0.45807777 Z M19.887581,3.56745415 C19.8561855,3.63287878 19.8108371,3.69658076 19.7515345,3.758562 C19.6922319,3.82054323 19.6224651,3.87649767 19.5422322,3.926427 C19.4619992,3.97635633 19.3713025,4.01595485 19.2701392,4.04522377 C19.1689759,4.07449269 19.0608374,4.08912693 18.9457205,4.08912693 C18.6561842,4.08912693 18.4338027,4.00734736 18.2785694,3.84378577 C18.1233361,3.68022418 18.0457205,3.4538239 18.0457205,3.16457814 C18.0457205,2.9200966 18.0806039,2.68939213 18.1503717,2.47245781 C18.2201395,2.25552349 18.3178129,2.06613923 18.443395,1.90429934 C18.568977,1.74245945 18.7215917,1.61505549 18.9012438,1.52208364 C19.0808959,1.42911179 19.2806032,1.38262656 19.5003717,1.38262656 C19.6678144,1.38262656 19.8117083,1.4248076 19.9320578,1.50917095 C20.0524072,1.59353429 20.112581,1.71835574 20.112581,1.88363903 C20.112581,2.12812057 19.9896171,2.32094818 19.7436857,2.46212766 C19.4977542,2.60330714 19.1009558,2.69455592 18.5532787,2.73587674 C18.5393251,2.79441457 18.5297322,2.85122985 18.5244996,2.90632428 C18.519267,2.96141872 18.5166508,3.01479064 18.5166508,3.06644167 C18.5166508,3.27304579 18.5698479,3.44176995 18.6762438,3.57261922 C18.7826397,3.70346849 18.9387428,3.76889215 19.1445578,3.76889215 C19.2108372,3.76889215 19.2762435,3.7585621 19.3407787,3.73790169 C19.4053139,3.71724128 19.4663598,3.69141615 19.5239182,3.66042553 C19.5814767,3.62943491 19.6338017,3.59672309 19.680895,3.56228907 C19.7279882,3.52785505 19.7689762,3.4968649 19.8038601,3.46931768 L19.887581,3.56745415 Z M19.3381624,1.60472487 C19.1881617,1.60816827 19.0486282,1.67789612 18.9195578,1.81391049 C18.7904873,1.94992487 18.6806047,2.18321185 18.5899066,2.51377843 C18.9282804,2.50344822 19.1916498,2.44577211 19.3800229,2.34074835 C19.5683959,2.23572459 19.662581,2.09024304 19.662581,1.90429934 C19.662581,1.8319879 19.6407789,1.76484257 19.597174,1.70286134 C19.5535692,1.6408801 19.4672328,1.60816827 19.3381624,1.60472487 Z M23.5032787,2.55509905 C23.5276974,2.44835359 23.5494995,2.34935727 23.5686857,2.25810712 C23.5878718,2.16685697 23.5974647,2.07646902 23.5974647,1.98694057 C23.5974647,1.90774233 23.579151,1.840597 23.5425229,1.78550257 C23.5058948,1.73040814 23.4474651,1.70286134 23.3672322,1.70286134 C23.2730457,1.70286134 23.1771164,1.74073819 23.0794415,1.81649303 C22.9817666,1.89224787 22.8910698,1.98349665 22.8073485,2.09024211 C22.7236271,2.19698757 22.6477558,2.30803562 22.5797322,2.42338958 C22.5117086,2.53874355 22.4602556,2.63429652 22.4253717,2.71005136 L22.1480461,4.027146 L21.7085112,4.027146 L22.1689764,1.74418195 L21.8497903,1.69769626 L21.8602554,1.56856933 C21.9090929,1.54446552 21.9640342,1.5212229 22.025081,1.49884079 C22.0861278,1.47645868 22.1489179,1.45665942 22.2134531,1.43944241 C22.2779883,1.4222254 22.3407784,1.408452 22.4018252,1.39812179 C22.462872,1.38779158 22.5195575,1.38262656 22.5718833,1.38262656 L22.6765345,1.44460748 L22.4776973,2.35882612 L22.5038601,2.35882612 C22.5701395,2.22109004 22.6460108,2.09282525 22.7314764,1.97402788 C22.8169419,1.85523051 22.9076387,1.75193001 23.0035694,1.66412326 C23.0995001,1.57631651 23.1997898,1.5074495 23.3044415,1.45752018 C23.4090932,1.40759085 23.5154875,1.38262656 23.6236275,1.38262656 C23.7701399,1.38262656 23.8774063,1.42825095 23.9454299,1.5195011 C24.0134534,1.61075125 24.0474647,1.72524265 24.0474647,1.86297872 C24.0474647,1.93873357 24.0387439,2.0334257 24.0213019,2.14705796 C24.00386,2.26069022 23.98293,2.36743408 23.9585112,2.46729274 L23.6602554,3.73790169 L24.0474647,3.73790169 L24.0474647,3.87219369 C23.9776969,3.92728812 23.8931048,3.97205167 23.7936857,4.00648569 C23.6942666,4.04091971 23.5974652,4.05813646 23.5032787,4.05813646 C23.4021154,4.05813646 23.3323486,4.03747636 23.2939764,3.99615554 C23.2556041,3.95483472 23.2364182,3.91007116 23.2364182,3.86186354 C23.2364182,3.7964389 23.2451391,3.72498938 23.262581,3.64751284 C23.280023,3.5700363 23.2974646,3.49170008 23.3149066,3.41250183 L23.5032787,2.55509905 Z M24.5864182,3.06644167 C24.5864182,2.88394137 24.615197,2.69369627 24.6727554,2.49570066 C24.7303139,2.29770505 24.8183944,2.11606832 24.9369996,1.95078503 C25.0556049,1.78550174 25.2038592,1.64948941 25.3817671,1.54274395 C25.5596749,1.43599849 25.767231,1.38262656 26.0044415,1.38262656 C26.2765359,1.38262656 26.4814757,1.46526697 26.6192671,1.63055026 C26.7570584,1.79583355 26.8259531,2.04031142 26.8259531,2.3639912 C26.8259531,2.59125572 26.7928139,2.80904763 26.7265345,3.01737344 C26.6602551,3.22569926 26.5678142,3.40905766 26.4492089,3.56745415 C26.3306037,3.72585063 26.1875819,3.85239375 26.0201392,3.94708731 C25.8526965,4.04178086 25.6678146,4.08912693 25.465488,4.08912693 C25.196882,4.08912693 24.9832213,4.00390401 24.8244996,3.83345561 C24.6657779,3.66300722 24.5864182,3.40733846 24.5864182,3.06644167 Z M25.8997903,1.60472487 C25.7288592,1.60816827 25.5893257,1.66326188 25.4811857,1.77000734 C25.3730456,1.8767528 25.2875813,2.00932178 25.2247903,2.16771827 C25.1619993,2.32611476 25.1183951,2.49656059 25.0939764,2.6790609 C25.0695576,2.8615612 25.0573485,3.02856368 25.0573485,3.18007337 C25.0573485,3.38323408 25.1026968,3.54851489 25.193395,3.67592076 C25.2840931,3.80332663 25.4061849,3.86702861 25.559674,3.86702861 C25.6817677,3.86702861 25.7907782,3.82140422 25.8867089,3.73015407 C25.9826396,3.63890392 26.0646156,3.51838666 26.1326392,3.36859868 C26.2006627,3.2188107 26.2529878,3.0492257 26.2896159,2.85983859 C26.326244,2.67045149 26.3445578,2.47934555 26.3445578,2.28651504 C26.3445578,2.08335433 26.3088023,1.91979519 26.2372903,1.79583272 C26.1657783,1.67187025 26.0532795,1.60816827 25.8997903,1.60472487 Z M28.034674,3.76889215 C28.1288606,3.76889215 28.2230457,3.72498943 28.3172322,3.63718269 C28.4114187,3.54937594 28.5003713,3.44349292 28.5840926,3.31953045 C28.667814,3.19556798 28.7428132,3.06644234 28.8090926,2.93214967 C28.875372,2.797857 28.9276971,2.68594811 28.9660694,2.59641966 L29.1335112,1.71319149 C29.0811854,1.67875747 29.0332208,1.65551486 28.9896159,1.64346295 C28.946011,1.63141104 28.884093,1.6236635 28.8038601,1.6202201 C28.6364174,1.6236635 28.4864189,1.67445292 28.3538601,1.77258988 C28.2213013,1.87072683 28.1096745,1.99640911 28.0189764,2.1496405 C27.9282782,2.30287188 27.8593836,2.47417856 27.8122903,2.66356566 C27.7651971,2.85295277 27.7416508,3.03889368 27.7416508,3.22139398 C27.7416508,3.39700748 27.7634529,3.53215898 27.8070578,3.62685253 C27.8506626,3.72154608 27.926534,3.76889215 28.034674,3.76889215 Z M28.8614182,3.0147909 C28.8160692,3.13875337 28.7585116,3.26443566 28.6887438,3.39184153 C28.618976,3.5192474 28.5396163,3.63459963 28.4506624,3.73790169 C28.3617085,3.84120374 28.264035,3.92556583 28.1576392,3.99099046 C28.0512433,4.0564151 27.9370002,4.08912693 27.8149066,4.08912693 C27.4521141,4.08912693 27.2707205,3.82743231 27.2707205,3.30403522 C27.2707205,3.05955368 27.3056039,2.82282335 27.3753717,2.59383712 C27.4451395,2.3648509 27.5463013,2.16169323 27.6788601,1.98435803 C27.8114189,1.80702284 27.9718824,1.66498464 28.1602554,1.55823918 C28.3486285,1.45149372 28.5631612,1.39812179 28.8038601,1.39812179 C28.8945582,1.39812179 28.9625808,1.40414765 29.0079299,1.41619956 C29.0532789,1.42825147 29.1108365,1.44977241 29.1806043,1.48076302 L29.3794415,0.504563463 L29.0131624,0.45807777 L29.0131624,0.328950844 C29.0654883,0.308290432 29.1230458,0.288491168 29.1858368,0.269552458 C29.2486278,0.250613747 29.3140342,0.233396996 29.3820578,0.217901687 C29.4500814,0.202406379 29.518976,0.18777214 29.5887438,0.173998533 C29.6585116,0.160224925 29.7230458,0.149894874 29.7823485,0.14300807 L29.8922322,0.184328687 L29.1753717,3.74306676 L29.5573485,3.74306676 L29.5573485,3.87219369 C29.4875807,3.92728812 29.4038606,3.97205167 29.3061857,4.00648569 C29.2085108,4.04091971 29.1125815,4.05813646 29.018395,4.05813646 C28.9172317,4.05813646 28.8448487,4.03661552 28.8012438,3.993573 C28.7576389,3.95053048 28.7358368,3.90490609 28.7358368,3.85669846 C28.7358368,3.79471722 28.748046,3.69313839 28.7724647,3.55195891 C28.7968835,3.41077944 28.833511,3.23172522 28.8823485,3.0147909 L28.8614182,3.0147909 Z M31.8858368,3.56745415 C31.8544413,3.63287878 31.8090929,3.69658076 31.7497903,3.758562 C31.6904877,3.82054323 31.620721,3.87649767 31.540488,3.926427 C31.460255,3.97635633 31.3695583,4.01595485 31.268395,4.04522377 C31.1672317,4.07449269 31.0590932,4.08912693 30.9439764,4.08912693 C30.65444,4.08912693 30.4320585,4.00734736 30.2768252,3.84378577 C30.1215919,3.68022418 30.0439764,3.4538239 30.0439764,3.16457814 C30.0439764,2.9200966 30.0788597,2.68939213 30.1486275,2.47245781 C30.2183953,2.25552349 30.3160688,2.06613923 30.4416508,1.90429934 C30.5672328,1.74245945 30.7198476,1.61505549 30.8994996,1.52208364 C31.0791517,1.42911179 31.278859,1.38262656 31.4986275,1.38262656 C31.6660702,1.38262656 31.8099641,1.4248076 31.9303136,1.50917095 C32.050663,1.59353429 32.1108368,1.71835574 32.1108368,1.88363903 C32.1108368,2.12812057 31.9878729,2.32094818 31.7419415,2.46212766 C31.49601,2.60330714 31.0992117,2.69455592 30.5515345,2.73587674 C30.5375809,2.79441457 30.527988,2.85122985 30.5227554,2.90632428 C30.5175228,2.96141872 30.5149066,3.01479064 30.5149066,3.06644167 C30.5149066,3.27304579 30.5681037,3.44176995 30.6744996,3.57261922 C30.7808955,3.70346849 30.9369986,3.76889215 31.1428136,3.76889215 C31.209093,3.76889215 31.2744993,3.7585621 31.3390345,3.73790169 C31.4035697,3.71724128 31.4646156,3.69141615 31.522174,3.66042553 C31.5797325,3.62943491 31.6320575,3.59672309 31.6791508,3.56228907 C31.726244,3.52785505 31.767232,3.4968649 31.8021159,3.46931768 L31.8858368,3.56745415 Z M31.3364182,1.60472487 C31.1864175,1.60816827 31.046884,1.67789612 30.9178136,1.81391049 C30.7887432,1.94992487 30.6788605,2.18321185 30.5881624,2.51377843 C30.9265362,2.50344822 31.1899057,2.44577211 31.3782787,2.34074835 C31.5666517,2.23572459 31.6608368,2.09024304 31.6608368,1.90429934 C31.6608368,1.8319879 31.6390347,1.76484257 31.5954299,1.70286134 C31.551825,1.6408801 31.4654886,1.60816827 31.3364182,1.60472487 Z M32.3619996,3.73273661 C32.3619996,3.62943455 32.3951388,3.54679415 32.4614182,3.48481291 C32.5276976,3.42283168 32.6131619,3.39184153 32.7178136,3.39184153 C32.8259536,3.39184153 32.9131621,3.42283168 32.9794415,3.48481291 C33.0457209,3.54679415 33.0788601,3.62943455 33.0788601,3.73273661 C33.0788601,3.83259527 33.0457209,3.913514 32.9794415,3.97549523 C32.9131621,4.03747647 32.8259536,4.06846662 32.7178136,4.06846662 C32.6131619,4.06846662 32.5276976,4.03747647 32.4614182,3.97549523 C32.3951388,3.913514 32.3619996,3.83259527 32.3619996,3.73273661 Z M34.3242089,1.74418195 L34.0050229,1.69769626 L34.0050229,1.56856933 C34.113163,1.52036171 34.2343827,1.47731983 34.3686857,1.43944241 C34.5029887,1.40156499 34.6224642,1.38262656 34.7271159,1.38262656 L34.8317671,1.44460748 L34.3294415,3.80504769 C34.2771156,4.04952922 34.2047326,4.25268689 34.1122903,4.41452678 C34.019848,4.57636667 33.9239187,4.70721398 33.8244996,4.80707263 C33.7250805,4.90693129 33.6274071,4.98096332 33.5314764,5.02917095 C33.4355457,5.07737857 33.3596743,5.10836873 33.3038601,5.12214233 L33.2463019,5.00851064 C33.2881626,4.98785023 33.3369993,4.95255589 33.3928136,4.90262656 C33.4486278,4.85269723 33.5044412,4.78383023 33.5602554,4.69602348 C33.6160697,4.60821673 33.671011,4.49889036 33.725081,4.36804109 C33.7791511,4.23719181 33.8253715,4.08224105 33.8637438,3.90318415 L34.3242089,1.74418195 Z M34.3974647,0.551049156 C34.3974647,0.461520707 34.4253714,0.390932026 34.4811857,0.339280998 C34.5369999,0.287629969 34.610255,0.261804842 34.7009531,0.261804842 C34.798628,0.261804842 34.8753714,0.287629969 34.9311857,0.339280998 C34.9869999,0.390932026 35.0149066,0.461520707 35.0149066,0.551049156 C35.0149066,0.637134204 34.9869999,0.704279534 34.9311857,0.752487161 C34.8753714,0.800694787 34.798628,0.824798239 34.7009531,0.824798239 C34.610255,0.824798239 34.5369999,0.800694787 34.4811857,0.752487161 C34.4253714,0.704279534 34.3974647,0.637134204 34.3974647,0.551049156 Z M36.4067671,3.41766691 C36.4032787,3.33502527 36.3797324,3.26357575 36.3361275,3.20331621 C36.2925227,3.14305668 36.2367093,3.08538056 36.1686857,3.03028613 C36.1006621,2.9751917 36.0282791,2.9200981 35.9515345,2.86500367 C35.8747899,2.80990924 35.8024069,2.74878977 35.7343833,2.68164343 C35.6663597,2.6144971 35.6105463,2.53702172 35.5669415,2.44921497 C35.5233366,2.36140822 35.5015345,2.2555252 35.5015345,2.13156273 C35.5015345,2.00760026 35.5259529,1.89913473 35.5747903,1.80616288 C35.6236278,1.71319102 35.6907783,1.63571564 35.7762438,1.57373441 C35.8617093,1.51175318 35.9646153,1.46440711 36.0849647,1.43169479 C36.2053142,1.39898247 36.3369989,1.38262656 36.4800229,1.38262656 C36.570721,1.38262656 36.6727549,1.3903741 36.7861275,1.40586941 C36.8995002,1.42136471 37.0067666,1.45838073 37.1079299,1.51691856 C37.1079299,1.55479598 37.1009532,1.5986987 37.0869996,1.64862803 C37.0730461,1.69855735 37.0547323,1.74676426 37.0320578,1.79325018 C37.0093832,1.83973611 36.9840928,1.88277799 36.9561857,1.92237711 C36.9282785,1.96197623 36.8986277,1.9886622 36.8672322,2.0024358 L36.4800229,1.60472487 C36.4067667,1.60816827 36.3387441,1.61677665 36.2759531,1.63055026 C36.2131621,1.64432386 36.1582208,1.66670564 36.1111275,1.69769626 C36.0640343,1.72868688 36.0274067,1.76914624 36.0012438,1.81907557 C35.9750809,1.8690049 35.9619996,1.93184604 35.9619996,2.00760088 C35.9619996,2.09712933 35.9846738,2.17374387 36.0300229,2.23744681 C36.0753719,2.30114974 36.1320574,2.36140837 36.200081,2.4182245 C36.2681046,2.47504064 36.3413597,2.53013424 36.4198485,2.58350697 C36.4983372,2.6368797 36.5715923,2.69713833 36.6396159,2.76428467 C36.7076395,2.831431 36.764325,2.90890638 36.809674,2.99671313 C36.8550231,3.08451988 36.8776973,3.18868123 36.8776973,3.30920029 C36.8776973,3.43316276 36.8489185,3.54334997 36.7913601,3.63976522 C36.7338017,3.73618048 36.6553141,3.81796005 36.555895,3.88510638 C36.4564759,3.95225272 36.3413607,4.00304214 36.2105461,4.03747616 C36.0797315,4.07191017 35.9410701,4.08912693 35.7945578,4.08912693 C35.6480454,4.08912693 35.5146165,4.07449269 35.3942671,4.04522377 C35.2739176,4.01595485 35.1788604,3.97893884 35.1090926,3.93417461 C35.1265346,3.84464617 35.1474646,3.75770157 35.1718833,3.67333822 C35.1963021,3.58897488 35.246883,3.51063866 35.3236275,3.43832722 L35.7945578,3.86702861 C35.8678139,3.86702861 35.9401969,3.85842024 36.0117089,3.84120323 C36.0832209,3.82398622 36.1477551,3.79643942 36.2053136,3.758562 C36.262872,3.72068457 36.3099646,3.67419935 36.3465926,3.61910492 C36.3832207,3.56401049 36.4032787,3.49686516 36.4067671,3.41766691 Z" id="The-node.js" fill="#848484"></path>
                </g>
            </g>
        </g>
        <text id="example.com" fill="#000000" font-family="Courier-Oblique, Courier" font-size="10" font-style="italic" font-weight="normal">
            <tspan x="68.4946289" y="189">example.com</tspan>
        </text>
        <text id="app.contentful.com" fill="#000000" font-family="Courier-Oblique, Courier" font-size="10" font-style="italic" font-weight="normal">
            <tspan x="480.491211" y="185">app.contentful.com</tspan>
        </text>
        <text id="Custom-Application" fill="#000000" font-family="AvenirNext-DemiBold, Avenir Next" font-size="11" font-weight="500">
            <tspan x="81.909" y="34">Custom</tspan>
            <tspan x="72.152" y="49">Application</tspan>
        </text>
        <g id="consume-arrow" transform="translate(168.000000, 76.000000)">
            <g id="arrow" transform="translate(0.000000, 65.000000)">
                <path d="M81.4,4 L6,4" id="Shape" stroke="#1237AD" stroke-width="1.3" stroke-dasharray="3"></path>
                <polygon id="Shape" fill="#1237AD" fill-rule="nonzero" points="6.74 0 0 3.89 6.74 7.78"></polygon>
            </g>
            <text id="Delivery-API" fill="#000000" font-family="Courier" font-size="8" font-weight="normal">
                <tspan x="12.1953125" y="8">Delivery API</tspan>
            </text>
            <text id="Preview-API" fill="#000000" font-family="Courier" font-size="8" font-weight="normal">
                <tspan x="13.5957031" y="36">Preview API</tspan>
            </text>
            <g id="arrow" transform="translate(0.000000, 37.000000)">
                <path d="M81.4,4 L6,4" id="Shape" stroke="#1237AD" stroke-width="1.3" stroke-dasharray="3"></path>
                <polygon id="Shape" fill="#1237AD" fill-rule="nonzero" points="6.74 0 0 3.89 6.74 7.78"></polygon>
            </g>
            <text id="Image-API" fill="#000000" font-family="Courier" font-size="8" font-weight="normal">
                <tspan x="19.3964844" y="63">Image API</tspan>
            </text>
            <g id="arrow" transform="translate(1.000000, 9.000000)">
                <path d="M81.4,4 L6,4" id="Shape" stroke="#1237AD" stroke-width="1.3" stroke-dasharray="3"></path>
                <polygon id="Shape" fill="#1237AD" fill-rule="nonzero" points="6.74 0 0 3.89 6.74 7.78"></polygon>
            </g>
        </g>
        <text id="Management-API" fill="#000000" font-family="Courier" font-size="8" font-weight="normal">
            <tspan x="391.394531" y="112">Management API</tspan>
        </text>
        <g id="arrow" transform="translate(380.000000, 114.000000)">
            <path d="M81.4,4 L6,4" id="Shape" stroke="#1237AD" stroke-width="1.3" stroke-dasharray="3"></path>
            <polygon id="Shape" fill="#1237AD" fill-rule="nonzero" points="6.74 0 0 3.89 6.74 7.78"></polygon>
            <polygon id="Shape" fill="#1237AD" fill-rule="nonzero" transform="translate(85.370000, 3.890000) rotate(-180.000000) translate(-85.370000, -3.890000) " points="88.74 0 82 3.89 88.74 7.78"></polygon>
        </g>
    </g>
</svg>